  0
SECTION
  2
HEADER
  9
$ACADVER
  1
AC1014
  9
$HANDSEED
  5
FFFF
  9
$INSUNITS
 70
     1
  9
$MEASUREMENT
 70
     1
  0
ENDSEC
  0
SECTION
  2
TABLES
  0
TABLE
  2
VPORT
  5
8
330
0
100
AcDbSymbolTable
 70
     4
  0
VPORT
  5
2E
330
8
100
AcDbSymbolTableRecord
100
AcDbViewportTableRecord
  2
*ACTIVE
 70
     0
 10
0.0
 20
0.0
 11
1.0
 21
1.0
 12
210.0
 22
148.5
 13
0.0
 23
0.0
 14
10.0
 24
10.0
 15
10.0
 25
10.0
 16
0.0
 26
0.0
 36
1.0
 17
0.0
 27
0.0
 37
0.0
 40
341.0
 41
1.24
 42
50.0
 43
0.0
 44
0.0
 50
0.0
 51
0.0
 71
     0
 72
   100
 73
     1
 74
     3
 75
     0
 76
     0
 77
     0
 78
     0
  0
ENDTAB
  0
TABLE
  2
LTYPE
  5
5
330
0
100
AcDbSymbolTable
 70
     1
  0
LTYPE
  5
14
330
5
100
AcDbSymbolTableRecord
100
AcDbLinetypeTableRecord
  2
BYBLOCK
 70
     0
  3

 72
    65
 73
     0
 40
0.0
  0
LTYPE
  5
15
330
5
100
AcDbSymbolTableRecord
100
AcDbLinetypeTableRecord
  2
BYLAYER
 70
     0
  3

 72
    65
 73
     0
 40
0.0
  0
LTYPE
  5
16
330
5
100
AcDbSymbolTableRecord
100
AcDbLinetypeTableRecord
  2
CONTINUOUS
 70
     0
  3
Solid line
 72
    65
 73
     0
 40
0.0
  0
ENDTAB
  0
TABLE
  2
LAYER
  5
2
100
AcDbSymbolTable
 70
2
  0
LAYER
  5
50
100
AcDbSymbolTableRecord
100
AcDbLayerTableRecord
  2
0
 70
0
  6
CONTINUOUS
  0
LAYER
  5
51
100
AcDbSymbolTableRecord
100
AcDbLayerTableRecord
  2
Layer_1
 70
0
  6
CONTINUOUS
  0
ENDTAB
  0
TABLE
  2
STYLE
  5
3
330
0
100
AcDbSymbolTable
 70
     1
  0
STYLE
  5
11
330
3
100
AcDbSymbolTableRecord
100
AcDbTextStyleTableRecord
  2
STANDARD
 70
     0
 40
0.0
 41
1.0
 50
0.0
 71
     0
 42
2.5
  3
txt
  4

  0
ENDTAB
  0
TABLE
  2
VIEW
  5
6
330
0
100
AcDbSymbolTable
 70
     0
  0
ENDTAB
  0
TABLE
  2
UCS
  5
7
330
0
100
AcDbSymbolTable
 70
     0
  0
ENDTAB
  0
TABLE
  2
APPID
  5
9
330
0
100
AcDbSymbolTable
 70
     2
  0
APPID
  5
12
330
9
100
AcDbSymbolTableRecord
100
AcDbRegAppTableRecord
  2
ACAD
 70
     0
  0
ENDTAB
  0
TABLE
  2
DIMSTYLE
  5
A
330
0
100
AcDbSymbolTable
 70
     1
  0
DIMSTYLE
105
27
330
A
100
AcDbSymbolTableRecord
100
AcDbDimStyleTableRecord
  2
ISO-25
 70
     0
  3

  4

  5

  6

  7

 40
1.0
 41
2.5
 42
0.625
 43
3.75
 44
1.25
 45
0.0
 46
0.0
 47
0.0
 48
0.0
140
2.5
141
2.5
142
0.0
143
0.03937007874016
144
1.0
145
0.0
146
1.0
147
0.625
 71
     0
 72
     0
 73
     0
 74
     0
 75
     0
 76
     0
 77
     1
 78
     8
170
     0
171
     3
172
     1
173
     0
174
     0
175
     0
176
     0
177
     0
178
     0
270
     2
271
     2
272
     2
273
     2
274
     3
340
11
275
     0
280
     0
281
     0
282
     0
283
     0
284
     8
285
     0
286
     0
287
     3
288
     0
  0
ENDTAB
  0
TABLE
  2
BLOCK_RECORD
  5
1
330
0
100
AcDbSymbolTable
 70
     1
  0
BLOCK_RECORD
  5
1F
330
1
100
AcDbSymbolTableRecord
100
AcDbBlockTableRecord
  2
*MODEL_SPACE
  0
BLOCK_RECORD
  5
1B
330
1
100
AcDbSymbolTableRecord
100
AcDbBlockTableRecord
  2
*PAPER_SPACE
  0
ENDTAB
  0
ENDSEC
  0
SECTION
  2
BLOCKS
  0
BLOCK
  5
20
330
1F
100
AcDbEntity
  8
0
100
AcDbBlockBegin
  2
*MODEL_SPACE
 70
     0
 10
0.0
 20
0.0
 30
0.0
  3
*MODEL_SPACE
  1

  0
ENDBLK
  5
21
330
1F
100
AcDbEntity
  8
0
100
AcDbBlockEnd
  0
BLOCK
  5
1C
330
1B
100
AcDbEntity
 67
     1
  8
0
100
AcDbBlockBegin
  2
*PAPER_SPACE
  1

  0
ENDBLK
  5
1D
330
1B
100
AcDbEntity
 67
     1
  8
0
100
AcDbBlockEnd
  0
ENDSEC
  0
SECTION
  2
ENTITIES
  0
LINE
  5
100
100
AcDbEntity
  8
Layer_1
 62
7
100
AcDbLine
 10
0.000000
 20
2.500000
 30
0.0
 11
4.000000
 21
2.500000
 31
0.0
  0
LINE
  5
101
100
AcDbEntity
  8
Layer_1
 62
7
100
AcDbLine
 10
4.000000
 20
2.500000
 30
0.0
 11
4.000000
 21
0.000000
 31
0.0
  0
LINE
  5
102
100
AcDbEntity
  8
Layer_1
 62
7
100
AcDbLine
 10
4.000000
 20
0.000000
 30
0.0
 11
0.000000
 21
0.000000
 31
0.0
  0
LINE
  5
103
100
AcDbEntity
  8
Layer_1
 62
7
100
AcDbLine
 10
0.000000
 20
0.000000
 30
0.0
 11
0.000000
 21
2.500000
 31
0.0
  0
LINE
  5
104
100
AcDbEntity
  8
Layer_1
 62
7
100
AcDbLine
 10
1.000000
 20
2.312500
 30
0.0
 11
1.375000
 21
2.312500
 31
0.0
  0
LINE
  5
105
100
AcDbEntity
  8
Layer_1
 62
7
100
AcDbLine
 10
1.375000
 20
2.312500
 30
0.0
 11
1.375000
 21
1.937500
 31
0.0
  0
LINE
  5
106
100
AcDbEntity
  8
Layer_1
 62
7
100
AcDbLine
 10
1.375000
 20
1.937500
 30
0.0
 11
1.000000
 21
1.937500
 31
0.0
  0
LINE
  5
107
100
AcDbEntity
  8
Layer_1
 62
7
100
AcDbLine
 10
1.000000
 20
1.937500
 30
0.0
 11
1.000000
 21
2.312500
 31
0.0
  0
LINE
  5
108
100
AcDbEntity
  8
Layer_1
 62
7
100
AcDbLine
 10
1.500000
 20
2.312500
 30
0.0
 11
1.875000
 21
2.312500
 31
0.0
  0
LINE
  5
109
100
AcDbEntity
  8
Layer_1
 62
7
100
AcDbLine
 10
1.875000
 20
2.312500
 30
0.0
 11
1.875000
 21
1.937500
 31
0.0
  0
LINE
  5
10a
100
AcDbEntity
  8
Layer_1
 62
7
100
AcDbLine
 10
1.875000
 20
1.937500
 30
0.0
 11
1.500000
 21
1.937500
 31
0.0
  0
LINE
  5
10b
100
AcDbEntity
  8
Layer_1
 62
7
100
AcDbLine
 10
1.500000
 20
1.937500
 30
0.0
 11
1.500000
 21
2.312500
 31
0.0
  0
LINE
  5
10c
100
AcDbEntity
  8
Layer_1
 62
7
100
AcDbLine
 10
2.000000
 20
2.312500
 30
0.0
 11
2.375000
 21
2.312500
 31
0.0
  0
LINE
  5
10d
100
AcDbEntity
  8
Layer_1
 62
7
100
AcDbLine
 10
2.375000
 20
2.312500
 30
0.0
 11
2.375000
 21
1.937500
 31
0.0
  0
LINE
  5
10e
100
AcDbEntity
  8
Layer_1
 62
7
100
AcDbLine
 10
2.375000
 20
1.937500
 30
0.0
 11
2.000000
 21
1.937500
 31
0.0
  0
LINE
  5
10f
100
AcDbEntity
  8
Layer_1
 62
7
100
AcDbLine
 10
2.000000
 20
1.937500
 30
0.0
 11
2.000000
 21
2.312500
 31
0.0
  0
LINE
  5
110
100
AcDbEntity
  8
Layer_1
 62
7
100
AcDbLine
 10
2.500000
 20
2.312500
 30
0.0
 11
2.875000
 21
2.312500
 31
0.0
  0
LINE
  5
111
100
AcDbEntity
  8
Layer_1
 62
7
100
AcDbLine
 10
2.875000
 20
2.312500
 30
0.0
 11
2.875000
 21
1.937500
 31
0.0
  0
LINE
  5
112
100
AcDbEntity
  8
Layer_1
 62
7
100
AcDbLine
 10
2.875000
 20
1.937500
 30
0.0
 11
2.500000
 21
1.937500
 31
0.0
  0
LINE
  5
113
100
AcDbEntity
  8
Layer_1
 62
7
100
AcDbLine
 10
2.500000
 20
1.937500
 30
0.0
 11
2.500000
 21
2.312500
 31
0.0
  0
LINE
  5
114
100
AcDbEntity
  8
Layer_1
 62
7
100
AcDbLine
 10
3.000000
 20
2.312500
 30
0.0
 11
3.375000
 21
2.312500
 31
0.0
  0
LINE
  5
115
100
AcDbEntity
  8
Layer_1
 62
7
100
AcDbLine
 10
3.375000
 20
2.312500
 30
0.0
 11
3.375000
 21
1.937500
 31
0.0
  0
LINE
  5
116
100
AcDbEntity
  8
Layer_1
 62
7
100
AcDbLine
 10
3.375000
 20
1.937500
 30
0.0
 11
3.000000
 21
1.937500
 31
0.0
  0
LINE
  5
117
100
AcDbEntity
  8
Layer_1
 62
7
100
AcDbLine
 10
3.000000
 20
1.937500
 30
0.0
 11
3.000000
 21
2.312500
 31
0.0
  0
LINE
  5
118
100
AcDbEntity
  8
Layer_1
 62
7
100
AcDbLine
 10
3.500000
 20
2.312500
 30
0.0
 11
3.875000
 21
2.312500
 31
0.0
  0
LINE
  5
119
100
AcDbEntity
  8
Layer_1
 62
7
100
AcDbLine
 10
3.875000
 20
2.312500
 30
0.0
 11
3.875000
 21
1.937500
 31
0.0
  0
LINE
  5
11a
100
AcDbEntity
  8
Layer_1
 62
7
100
AcDbLine
 10
3.875000
 20
1.937500
 30
0.0
 11
3.500000
 21
1.937500
 31
0.0
  0
LINE
  5
11b
100
AcDbEntity
  8
Layer_1
 62
7
100
AcDbLine
 10
3.500000
 20
1.937500
 30
0.0
 11
3.500000
 21
2.312500
 31
0.0
  0
LINE
  5
11c
100
AcDbEntity
  8
Layer_1
 62
7
100
AcDbLine
 10
1.000000
 20
0.437500
 30
0.0
 11
1.375000
 21
0.437500
 31
0.0
  0
LINE
  5
11d
100
AcDbEntity
  8
Layer_1
 62
7
100
AcDbLine
 10
1.375000
 20
0.437500
 30
0.0
 11
1.375000
 21
0.062500
 31
0.0
  0
LINE
  5
11e
100
AcDbEntity
  8
Layer_1
 62
7
100
AcDbLine
 10
1.375000
 20
0.062500
 30
0.0
 11
1.000000
 21
0.062500
 31
0.0
  0
LINE
  5
11f
100
AcDbEntity
  8
Layer_1
 62
7
100
AcDbLine
 10
1.000000
 20
0.062500
 30
0.0
 11
1.000000
 21
0.437500
 31
0.0
  0
LINE
  5
120
100
AcDbEntity
  8
Layer_1
 62
7
100
AcDbLine
 10
1.500000
 20
0.437500
 30
0.0
 11
1.875000
 21
0.437500
 31
0.0
  0
LINE
  5
121
100
AcDbEntity
  8
Layer_1
 62
7
100
AcDbLine
 10
1.875000
 20
0.437500
 30
0.0
 11
1.875000
 21
0.062500
 31
0.0
  0
LINE
  5
122
100
AcDbEntity
  8
Layer_1
 62
7
100
AcDbLine
 10
1.875000
 20
0.062500
 30
0.0
 11
1.500000
 21
0.062500
 31
0.0
  0
LINE
  5
123
100
AcDbEntity
  8
Layer_1
 62
7
100
AcDbLine
 10
1.500000
 20
0.062500
 30
0.0
 11
1.500000
 21
0.437500
 31
0.0
  0
LINE
  5
124
100
AcDbEntity
  8
Layer_1
 62
7
100
AcDbLine
 10
2.000000
 20
0.437500
 30
0.0
 11
2.375000
 21
0.437500
 31
0.0
  0
LINE
  5
125
100
AcDbEntity
  8
Layer_1
 62
7
100
AcDbLine
 10
2.375000
 20
0.437500
 30
0.0
 11
2.375000
 21
0.062500
 31
0.0
  0
LINE
  5
126
100
AcDbEntity
  8
Layer_1
 62
7
100
AcDbLine
 10
2.375000
 20
0.062500
 30
0.0
 11
2.000000
 21
0.062500
 31
0.0
  0
LINE
  5
127
100
AcDbEntity
  8
Layer_1
 62
7
100
AcDbLine
 10
2.000000
 20
0.062500
 30
0.0
 11
2.000000
 21
0.437500
 31
0.0
  0
LINE
  5
128
100
AcDbEntity
  8
Layer_1
 62
7
100
AcDbLine
 10
2.500000
 20
0.437500
 30
0.0
 11
2.875000
 21
0.437500
 31
0.0
  0
LINE
  5
129
100
AcDbEntity
  8
Layer_1
 62
7
100
AcDbLine
 10
2.875000
 20
0.437500
 30
0.0
 11
2.875000
 21
0.062500
 31
0.0
  0
LINE
  5
12a
100
AcDbEntity
  8
Layer_1
 62
7
100
AcDbLine
 10
2.875000
 20
0.062500
 30
0.0
 11
2.500000
 21
0.062500
 31
0.0
  0
LINE
  5
12b
100
AcDbEntity
  8
Layer_1
 62
7
100
AcDbLine
 10
2.500000
 20
0.062500
 30
0.0
 11
2.500000
 21
0.437500
 31
0.0
  0
LINE
  5
12c
100
AcDbEntity
  8
Layer_1
 62
7
100
AcDbLine
 10
3.000000
 20
0.437500
 30
0.0
 11
3.375000
 21
0.437500
 31
0.0
  0
LINE
  5
12d
100
AcDbEntity
  8
Layer_1
 62
7
100
AcDbLine
 10
3.375000
 20
0.437500
 30
0.0
 11
3.375000
 21
0.062500
 31
0.0
  0
LINE
  5
12e
100
AcDbEntity
  8
Layer_1
 62
7
100
AcDbLine
 10
3.375000
 20
0.062500
 30
0.0
 11
3.000000
 21
0.062500
 31
0.0
  0
LINE
  5
12f
100
AcDbEntity
  8
Layer_1
 62
7
100
AcDbLine
 10
3.000000
 20
0.062500
 30
0.0
 11
3.000000
 21
0.437500
 31
0.0
  0
LINE
  5
130
100
AcDbEntity
  8
Layer_1
 62
7
100
AcDbLine
 10
3.500000
 20
0.437500
 30
0.0
 11
3.875000
 21
0.437500
 31
0.0
  0
LINE
  5
131
100
AcDbEntity
  8
Layer_1
 62
7
100
AcDbLine
 10
3.875000
 20
0.437500
 30
0.0
 11
3.875000
 21
0.062500
 31
0.0
  0
LINE
  5
132
100
AcDbEntity
  8
Layer_1
 62
7
100
AcDbLine
 10
3.875000
 20
0.062500
 30
0.0
 11
3.500000
 21
0.062500
 31
0.0
  0
LINE
  5
133
100
AcDbEntity
  8
Layer_1
 62
7
100
AcDbLine
 10
3.500000
 20
0.062500
 30
0.0
 11
3.500000
 21
0.437500
 31
0.0
  0
LINE
  5
134
100
AcDbEntity
  8
Layer_1
 62
7
100
AcDbLine
 10
1.000000
 20
1.843750
 30
0.0
 11
1.375000
 21
1.843750
 31
0.0
  0
LINE
  5
135
100
AcDbEntity
  8
Layer_1
 62
7
100
AcDbLine
 10
1.375000
 20
1.843750
 30
0.0
 11
1.375000
 21
1.468750
 31
0.0
  0
LINE
  5
136
100
AcDbEntity
  8
Layer_1
 62
7
100
AcDbLine
 10
1.375000
 20
1.468750
 30
0.0
 11
1.000000
 21
1.468750
 31
0.0
  0
LINE
  5
137
100
AcDbEntity
  8
Layer_1
 62
7
100
AcDbLine
 10
1.000000
 20
1.468750
 30
0.0
 11
1.000000
 21
1.843750
 31
0.0
  0
LINE
  5
138
100
AcDbEntity
  8
Layer_1
 62
7
100
AcDbLine
 10
1.500000
 20
1.843750
 30
0.0
 11
1.875000
 21
1.843750
 31
0.0
  0
LINE
  5
139
100
AcDbEntity
  8
Layer_1
 62
7
100
AcDbLine
 10
1.875000
 20
1.843750
 30
0.0
 11
1.875000
 21
1.468750
 31
0.0
  0
LINE
  5
13a
100
AcDbEntity
  8
Layer_1
 62
7
100
AcDbLine
 10
1.875000
 20
1.468750
 30
0.0
 11
1.500000
 21
1.468750
 31
0.0
  0
LINE
  5
13b
100
AcDbEntity
  8
Layer_1
 62
7
100
AcDbLine
 10
1.500000
 20
1.468750
 30
0.0
 11
1.500000
 21
1.843750
 31
0.0
  0
LINE
  5
13c
100
AcDbEntity
  8
Layer_1
 62
7
100
AcDbLine
 10
2.000000
 20
1.843750
 30
0.0
 11
2.375000
 21
1.843750
 31
0.0
  0
LINE
  5
13d
100
AcDbEntity
  8
Layer_1
 62
7
100
AcDbLine
 10
2.375000
 20
1.843750
 30
0.0
 11
2.375000
 21
1.468750
 31
0.0
  0
LINE
  5
13e
100
AcDbEntity
  8
Layer_1
 62
7
100
AcDbLine
 10
2.375000
 20
1.468750
 30
0.0
 11
2.000000
 21
1.468750
 31
0.0
  0
LINE
  5
13f
100
AcDbEntity
  8
Layer_1
 62
7
100
AcDbLine
 10
2.000000
 20
1.468750
 30
0.0
 11
2.000000
 21
1.843750
 31
0.0
  0
LINE
  5
140
100
AcDbEntity
  8
Layer_1
 62
7
100
AcDbLine
 10
2.500000
 20
1.843750
 30
0.0
 11
2.875000
 21
1.843750
 31
0.0
  0
LINE
  5
141
100
AcDbEntity
  8
Layer_1
 62
7
100
AcDbLine
 10
2.875000
 20
1.843750
 30
0.0
 11
2.875000
 21
1.468750
 31
0.0
  0
LINE
  5
142
100
AcDbEntity
  8
Layer_1
 62
7
100
AcDbLine
 10
2.875000
 20
1.468750
 30
0.0
 11
2.500000
 21
1.468750
 31
0.0
  0
LINE
  5
143
100
AcDbEntity
  8
Layer_1
 62
7
100
AcDbLine
 10
2.500000
 20
1.468750
 30
0.0
 11
2.500000
 21
1.843750
 31
0.0
  0
LINE
  5
144
100
AcDbEntity
  8
Layer_1
 62
7
100
AcDbLine
 10
3.000000
 20
1.843750
 30
0.0
 11
3.375000
 21
1.843750
 31
0.0
  0
LINE
  5
145
100
AcDbEntity
  8
Layer_1
 62
7
100
AcDbLine
 10
3.375000
 20
1.843750
 30
0.0
 11
3.375000
 21
1.468750
 31
0.0
  0
LINE
  5
146
100
AcDbEntity
  8
Layer_1
 62
7
100
AcDbLine
 10
3.375000
 20
1.468750
 30
0.0
 11
3.000000
 21
1.468750
 31
0.0
  0
LINE
  5
147
100
AcDbEntity
  8
Layer_1
 62
7
100
AcDbLine
 10
3.000000
 20
1.468750
 30
0.0
 11
3.000000
 21
1.843750
 31
0.0
  0
LINE
  5
148
100
AcDbEntity
  8
Layer_1
 62
7
100
AcDbLine
 10
3.500000
 20
1.843750
 30
0.0
 11
3.875000
 21
1.843750
 31
0.0
  0
LINE
  5
149
100
AcDbEntity
  8
Layer_1
 62
7
100
AcDbLine
 10
3.875000
 20
1.843750
 30
0.0
 11
3.875000
 21
1.468750
 31
0.0
  0
LINE
  5
14a
100
AcDbEntity
  8
Layer_1
 62
7
100
AcDbLine
 10
3.875000
 20
1.468750
 30
0.0
 11
3.500000
 21
1.468750
 31
0.0
  0
LINE
  5
14b
100
AcDbEntity
  8
Layer_1
 62
7
100
AcDbLine
 10
3.500000
 20
1.468750
 30
0.0
 11
3.500000
 21
1.843750
 31
0.0
  0
LINE
  5
14c
100
AcDbEntity
  8
Layer_1
 62
7
100
AcDbLine
 10
1.000000
 20
1.375000
 30
0.0
 11
1.375000
 21
1.375000
 31
0.0
  0
LINE
  5
14d
100
AcDbEntity
  8
Layer_1
 62
7
100
AcDbLine
 10
1.375000
 20
1.375000
 30
0.0
 11
1.375000
 21
1.000000
 31
0.0
  0
LINE
  5
14e
100
AcDbEntity
  8
Layer_1
 62
7
100
AcDbLine
 10
1.375000
 20
1.000000
 30
0.0
 11
1.000000
 21
1.000000
 31
0.0
  0
LINE
  5
14f
100
AcDbEntity
  8
Layer_1
 62
7
100
AcDbLine
 10
1.000000
 20
1.000000
 30
0.0
 11
1.000000
 21
1.375000
 31
0.0
  0
LINE
  5
150
100
AcDbEntity
  8
Layer_1
 62
7
100
AcDbLine
 10
1.500000
 20
1.375000
 30
0.0
 11
1.875000
 21
1.375000
 31
0.0
  0
LINE
  5
151
100
AcDbEntity
  8
Layer_1
 62
7
100
AcDbLine
 10
1.875000
 20
1.375000
 30
0.0
 11
1.875000
 21
1.000000
 31
0.0
  0
LINE
  5
152
100
AcDbEntity
  8
Layer_1
 62
7
100
AcDbLine
 10
1.875000
 20
1.000000
 30
0.0
 11
1.500000
 21
1.000000
 31
0.0
  0
LINE
  5
153
100
AcDbEntity
  8
Layer_1
 62
7
100
AcDbLine
 10
1.500000
 20
1.000000
 30
0.0
 11
1.500000
 21
1.375000
 31
0.0
  0
LINE
  5
154
100
AcDbEntity
  8
Layer_1
 62
7
100
AcDbLine
 10
2.000000
 20
1.375000
 30
0.0
 11
2.375000
 21
1.375000
 31
0.0
  0
LINE
  5
155
100
AcDbEntity
  8
Layer_1
 62
7
100
AcDbLine
 10
2.375000
 20
1.375000
 30
0.0
 11
2.375000
 21
1.000000
 31
0.0
  0
LINE
  5
156
100
AcDbEntity
  8
Layer_1
 62
7
100
AcDbLine
 10
2.375000
 20
1.000000
 30
0.0
 11
2.000000
 21
1.000000
 31
0.0
  0
LINE
  5
157
100
AcDbEntity
  8
Layer_1
 62
7
100
AcDbLine
 10
2.000000
 20
1.000000
 30
0.0
 11
2.000000
 21
1.375000
 31
0.0
  0
LINE
  5
158
100
AcDbEntity
  8
Layer_1
 62
7
100
AcDbLine
 10
2.500000
 20
1.375000
 30
0.0
 11
2.875000
 21
1.375000
 31
0.0
  0
LINE
  5
159
100
AcDbEntity
  8
Layer_1
 62
7
100
AcDbLine
 10
2.875000
 20
1.375000
 30
0.0
 11
2.875000
 21
1.000000
 31
0.0
  0
LINE
  5
15a
100
AcDbEntity
  8
Layer_1
 62
7
100
AcDbLine
 10
2.875000
 20
1.000000
 30
0.0
 11
2.500000
 21
1.000000
 31
0.0
  0
LINE
  5
15b
100
AcDbEntity
  8
Layer_1
 62
7
100
AcDbLine
 10
2.500000
 20
1.000000
 30
0.0
 11
2.500000
 21
1.375000
 31
0.0
  0
LINE
  5
15c
100
AcDbEntity
  8
Layer_1
 62
7
100
AcDbLine
 10
3.000000
 20
1.375000
 30
0.0
 11
3.375000
 21
1.375000
 31
0.0
  0
LINE
  5
15d
100
AcDbEntity
  8
Layer_1
 62
7
100
AcDbLine
 10
3.375000
 20
1.375000
 30
0.0
 11
3.375000
 21
1.000000
 31
0.0
  0
LINE
  5
15e
100
AcDbEntity
  8
Layer_1
 62
7
100
AcDbLine
 10
3.375000
 20
1.000000
 30
0.0
 11
3.000000
 21
1.000000
 31
0.0
  0
LINE
  5
15f
100
AcDbEntity
  8
Layer_1
 62
7
100
AcDbLine
 10
3.000000
 20
1.000000
 30
0.0
 11
3.000000
 21
1.375000
 31
0.0
  0
LINE
  5
160
100
AcDbEntity
  8
Layer_1
 62
7
100
AcDbLine
 10
3.500000
 20
1.375000
 30
0.0
 11
3.875000
 21
1.375000
 31
0.0
  0
LINE
  5
161
100
AcDbEntity
  8
Layer_1
 62
7
100
AcDbLine
 10
3.875000
 20
1.375000
 30
0.0
 11
3.875000
 21
1.000000
 31
0.0
  0
LINE
  5
162
100
AcDbEntity
  8
Layer_1
 62
7
100
AcDbLine
 10
3.875000
 20
1.000000
 30
0.0
 11
3.500000
 21
1.000000
 31
0.0
  0
LINE
  5
163
100
AcDbEntity
  8
Layer_1
 62
7
100
AcDbLine
 10
3.500000
 20
1.000000
 30
0.0
 11
3.500000
 21
1.375000
 31
0.0
  0
LINE
  5
164
100
AcDbEntity
  8
Layer_1
 62
7
100
AcDbLine
 10
1.000000
 20
0.906250
 30
0.0
 11
1.375000
 21
0.906250
 31
0.0
  0
LINE
  5
165
100
AcDbEntity
  8
Layer_1
 62
7
100
AcDbLine
 10
1.375000
 20
0.906250
 30
0.0
 11
1.375000
 21
0.531250
 31
0.0
  0
LINE
  5
166
100
AcDbEntity
  8
Layer_1
 62
7
100
AcDbLine
 10
1.375000
 20
0.531250
 30
0.0
 11
1.000000
 21
0.531250
 31
0.0
  0
LINE
  5
167
100
AcDbEntity
  8
Layer_1
 62
7
100
AcDbLine
 10
1.000000
 20
0.531250
 30
0.0
 11
1.000000
 21
0.906250
 31
0.0
  0
LINE
  5
168
100
AcDbEntity
  8
Layer_1
 62
7
100
AcDbLine
 10
1.500000
 20
0.906250
 30
0.0
 11
1.875000
 21
0.906250
 31
0.0
  0
LINE
  5
169
100
AcDbEntity
  8
Layer_1
 62
7
100
AcDbLine
 10
1.875000
 20
0.906250
 30
0.0
 11
1.875000
 21
0.531250
 31
0.0
  0
LINE
  5
16a
100
AcDbEntity
  8
Layer_1
 62
7
100
AcDbLine
 10
1.875000
 20
0.531250
 30
0.0
 11
1.500000
 21
0.531250
 31
0.0
  0
LINE
  5
16b
100
AcDbEntity
  8
Layer_1
 62
7
100
AcDbLine
 10
1.500000
 20
0.531250
 30
0.0
 11
1.500000
 21
0.906250
 31
0.0
  0
LINE
  5
16c
100
AcDbEntity
  8
Layer_1
 62
7
100
AcDbLine
 10
2.000000
 20
0.906250
 30
0.0
 11
2.375000
 21
0.906250
 31
0.0
  0
LINE
  5
16d
100
AcDbEntity
  8
Layer_1
 62
7
100
AcDbLine
 10
2.375000
 20
0.906250
 30
0.0
 11
2.375000
 21
0.531250
 31
0.0
  0
LINE
  5
16e
100
AcDbEntity
  8
Layer_1
 62
7
100
AcDbLine
 10
2.375000
 20
0.531250
 30
0.0
 11
2.000000
 21
0.531250
 31
0.0
  0
LINE
  5
16f
100
AcDbEntity
  8
Layer_1
 62
7
100
AcDbLine
 10
2.000000
 20
0.531250
 30
0.0
 11
2.000000
 21
0.906250
 31
0.0
  0
LINE
  5
170
100
AcDbEntity
  8
Layer_1
 62
7
100
AcDbLine
 10
2.500000
 20
0.906250
 30
0.0
 11
2.875000
 21
0.906250
 31
0.0
  0
LINE
  5
171
100
AcDbEntity
  8
Layer_1
 62
7
100
AcDbLine
 10
2.875000
 20
0.906250
 30
0.0
 11
2.875000
 21
0.531250
 31
0.0
  0
LINE
  5
172
100
AcDbEntity
  8
Layer_1
 62
7
100
AcDbLine
 10
2.875000
 20
0.531250
 30
0.0
 11
2.500000
 21
0.531250
 31
0.0
  0
LINE
  5
173
100
AcDbEntity
  8
Layer_1
 62
7
100
AcDbLine
 10
2.500000
 20
0.531250
 30
0.0
 11
2.500000
 21
0.906250
 31
0.0
  0
LINE
  5
174
100
AcDbEntity
  8
Layer_1
 62
7
100
AcDbLine
 10
3.000000
 20
0.906250
 30
0.0
 11
3.375000
 21
0.906250
 31
0.0
  0
LINE
  5
175
100
AcDbEntity
  8
Layer_1
 62
7
100
AcDbLine
 10
3.375000
 20
0.906250
 30
0.0
 11
3.375000
 21
0.531250
 31
0.0
  0
LINE
  5
176
100
AcDbEntity
  8
Layer_1
 62
7
100
AcDbLine
 10
3.375000
 20
0.531250
 30
0.0
 11
3.000000
 21
0.531250
 31
0.0
  0
LINE
  5
177
100
AcDbEntity
  8
Layer_1
 62
7
100
AcDbLine
 10
3.000000
 20
0.531250
 30
0.0
 11
3.000000
 21
0.906250
 31
0.0
  0
LINE
  5
178
100
AcDbEntity
  8
Layer_1
 62
7
100
AcDbLine
 10
3.500000
 20
0.906250
 30
0.0
 11
3.875000
 21
0.906250
 31
0.0
  0
LINE
  5
179
100
AcDbEntity
  8
Layer_1
 62
7
100
AcDbLine
 10
3.875000
 20
0.906250
 30
0.0
 11
3.875000
 21
0.531250
 31
0.0
  0
LINE
  5
17a
100
AcDbEntity
  8
Layer_1
 62
7
100
AcDbLine
 10
3.875000
 20
0.531250
 30
0.0
 11
3.500000
 21
0.531250
 31
0.0
  0
LINE
  5
17b
100
AcDbEntity
  8
Layer_1
 62
7
100
AcDbLine
 10
3.500000
 20
0.531250
 30
0.0
 11
3.500000
 21
0.906250
 31
0.0
  0
SPLINE
  5
17c
100
AcDbEntity
  8
Layer_1
 62
7
100
AcDbSpline
 70
8
 71
3
 72
8
 73
4
 74
0
 40
0
 40
0
 40
0
 40
0
 40
1
 40
1
 40
1
 40
1
 10
0.377664
 20
2.365312
 30
0.0
 10
0.374979
 20
2.355630
 30
0.0
 10
0.370651
 20
2.348307
 30
0.0
 10
0.364681
 20
2.343344
 30
0.0
  0
SPLINE
  5
17d
100
AcDbEntity
  8
Layer_1
 62
7
100
AcDbSpline
 70
8
 71
3
 72
8
 73
4
 74
0
 40
0
 40
0
 40
0
 40
0
 40
1
 40
1
 40
1
 40
1
 10
0.364681
 20
2.343344
 30
0.0
 10
0.358711
 20
2.338380
 30
0.0
 10
0.351240
 20
2.335899
 30
0.0
 10
0.342269
 20
2.335899
 30
0.0
  0
SPLINE
  5
17e
100
AcDbEntity
  8
Layer_1
 62
7
100
AcDbSpline
 70
8
 71
3
 72
8
 73
4
 74
0
 40
0
 40
0
 40
0
 40
0
 40
1
 40
1
 40
1
 40
1
 10
0.342269
 20
2.335899
 30
0.0
 10
0.330707
 20
2.335899
 30
0.0
 10
0.321324
 20
2.339989
 30
0.0
 10
0.314218
 20
2.348272
 30
0.0
  0
SPLINE
  5
17f
100
AcDbEntity
  8
Layer_1
 62
7
100
AcDbSpline
 70
8
 71
3
 72
8
 73
4
 74
0
 40
0
 40
0
 40
0
 40
0
 40
1
 40
1
 40
1
 40
1
 10
0.314218
 20
2.348272
 30
0.0
 10
0.307446
 20
2.356163
 30
0.0
 10
0.303742
 20
2.367340
 30
0.0
 10
0.303116
 20
2.381513
 30
0.0
  0
SPLINE
  5
180
100
AcDbEntity
  8
Layer_1
 62
7
100
AcDbSpline
 70
8
 71
3
 72
8
 73
4
 74
0
 40
0
 40
0
 40
0
 40
0
 40
1
 40
1
 40
1
 40
1
 10
0.303116
 20
2.381513
 30
0.0
 10
0.303401
 20
2.395740
 30
0.0
 10
0.307049
 20
2.406890
 30
0.0
 10
0.314062
 20
2.414964
 30
0.0
  0
SPLINE
  5
181
100
AcDbEntity
  8
Layer_1
 62
7
100
AcDbSpline
 70
8
 71
3
 72
8
 73
4
 74
0
 40
0
 40
0
 40
0
 40
0
 40
1
 40
1
 40
1
 40
1
 10
0.314062
 20
2.414964
 30
0.0
 10
0.321106
 20
2.423038
 30
0.0
 10
0.330062
 20
2.427076
 30
0.0
 10
0.340929
 20
2.427076
 30
0.0
  0
SPLINE
  5
182
100
AcDbEntity
  8
Layer_1
 62
7
100
AcDbSpline
 70
8
 71
3
 72
8
 73
4
 74
0
 40
0
 40
0
 40
0
 40
0
 40
1
 40
1
 40
1
 40
1
 10
0.340929
 20
2.427076
 30
0.0
 10
0.351985
 20
2.427076
 30
0.0
 10
0.361003
 20
2.422724
 30
0.0
 10
0.367985
 20
2.414020
 30
0.0
  0
SPLINE
  5
183
100
AcDbEntity
  8
Layer_1
 62
7
100
AcDbSpline
 70
8
 71
3
 72
8
 73
4
 74
0
 40
0
 40
0
 40
0
 40
0
 40
1
 40
1
 40
1
 40
1
 10
0.367985
 20
2.414020
 30
0.0
 10
0.374018
 20
2.406610
 30
0.0
 10
0.377224
 20
2.395967
 30
0.0
 10
0.377603
 20
2.382090
 30
0.0
  0
LINE
  5
184
100
AcDbEntity
  8
Layer_1
 62
7
100
AcDbLine
 10
0.377603
 20
2.382090
 30
0.0
 11
0.303183
 21
2.382180
 31
0.0
  0
SPLINE
  5
185
100
AcDbEntity
  8
Layer_1
 62
7
100
AcDbSpline
 70
8
 71
3
 72
8
 73
4
 74
0
 40
0
 40
0
 40
0
 40
0
 40
1
 40
1
 40
1
 40
1
 10
0.098078
 20
2.362488
 30
0.0
 10
0.099430
 20
2.352173
 30
0.0
 10
0.105719
 20
2.341985
 30
0.0
 10
0.115891
 20
2.338503
 30
0.0
  0
SPLINE
  5
186
100
AcDbEntity
  8
Layer_1
 62
7
100
AcDbSpline
 70
8
 71
3
 72
8
 73
4
 74
0
 40
0
 40
0
 40
0
 40
0
 40
1
 40
1
 40
1
 40
1
 10
0.115891
 20
2.338503
 30
0.0
 10
0.125272
 20
2.335262
 30
0.0
 10
0.135737
 20
2.335019
 30
0.0
 10
0.145299
 20
2.337507
 30
0.0
  0
SPLINE
  5
187
100
AcDbEntity
  8
Layer_1
 62
7
100
AcDbSpline
 70
8
 71
3
 72
8
 73
4
 74
0
 40
0
 40
0
 40
0
 40
0
 40
1
 40
1
 40
1
 40
1
 10
0.145299
 20
2.337507
 30
0.0
 10
0.154689
 20
2.339957
 30
0.0
 10
0.162921
 20
2.348251
 30
0.0
 10
0.162807
 20
2.357495
 30
0.0
  0
SPLINE
  5
188
100
AcDbEntity
  8
Layer_1
 62
7
100
AcDbSpline
 70
8
 71
3
 72
8
 73
4
 74
0
 40
0
 40
0
 40
0
 40
0
 40
1
 40
1
 40
1
 40
1
 10
0.162807
 20
2.357495
 30
0.0
 10
0.163079
 20
2.365559
 30
0.0
 10
0.158181
 20
2.372939
 30
0.0
 10
0.150183
 20
2.377135
 30
0.0
  0
SPLINE
  5
189
100
AcDbEntity
  8
Layer_1
 62
7
100
AcDbSpline
 70
8
 71
3
 72
8
 73
4
 74
0
 40
0
 40
0
 40
0
 40
0
 40
1
 40
1
 40
1
 40
1
 10
0.150183
 20
2.377135
 30
0.0
 10
0.140352
 20
2.381279
 30
0.0
 10
0.129597
 20
2.383419
 30
0.0
 10
0.119648
 20
2.387387
 30
0.0
  0
SPLINE
  5
18a
100
AcDbEntity
  8
Layer_1
 62
7
100
AcDbSpline
 70
8
 71
3
 72
8
 73
4
 74
0
 40
0
 40
0
 40
0
 40
0
 40
1
 40
1
 40
1
 40
1
 10
0.119648
 20
2.387387
 30
0.0
 10
0.111338
 20
2.391003
 30
0.0
 10
0.105492
 20
2.397801
 30
0.0
 10
0.103929
 20
2.404829
 30
0.0
  0
SPLINE
  5
18b
100
AcDbEntity
  8
Layer_1
 62
7
100
AcDbSpline
 70
8
 71
3
 72
8
 73
4
 74
0
 40
0
 40
0
 40
0
 40
0
 40
1
 40
1
 40
1
 40
1
 10
0.103929
 20
2.404829
 30
0.0
 10
0.102307
 20
2.411380
 30
0.0
 10
0.105892
 20
2.419277
 30
0.0
 10
0.113081
 20
2.422873
 30
0.0
  0
SPLINE
  5
18c
100
AcDbEntity
  8
Layer_1
 62
7
100
AcDbSpline
 70
8
 71
3
 72
8
 73
4
 74
0
 40
0
 40
0
 40
0
 40
0
 40
1
 40
1
 40
1
 40
1
 10
0.113081
 20
2.422873
 30
0.0
 10
0.121750
 20
2.427811
 30
0.0
 10
0.132996
 20
2.427539
 30
0.0
 10
0.142669
 20
2.425164
 30
0.0
  0
SPLINE
  5
18d
100
AcDbEntity
  8
Layer_1
 62
7
100
AcDbSpline
 70
8
 71
3
 72
8
 73
4
 74
0
 40
0
 40
0
 40
0
 40
0
 40
1
 40
1
 40
1
 40
1
 10
0.142669
 20
2.425164
 30
0.0
 10
0.150567
 20
2.423643
 30
0.0
 10
0.157804
 20
2.418013
 30
0.0
 10
0.160002
 20
2.409965
 30
0.0
  0
SPLINE
  5
18e
100
AcDbEntity
  8
Layer_1
 62
7
100
AcDbSpline
 70
8
 71
3
 72
8
 73
4
 74
0
 40
0
 40
0
 40
0
 40
0
 40
1
 40
1
 40
1
 40
1
 10
0.160002
 20
2.409965
 30
0.0
 10
0.160543
 20
2.408258
 30
0.0
 10
0.160935
 20
2.406506
 30
0.0
 10
0.161215
 20
2.404738
 30
0.0
  0
SPLINE
  5
18f
100
AcDbEntity
  8
Layer_1
 62
7
100
AcDbSpline
 70
8
 71
3
 72
8
 73
4
 74
0
 40
0
 40
0
 40
0
 40
0
 40
1
 40
1
 40
1
 40
1
 10
0.217486
 20
1.993591
 30
0.0
 10
0.203718
 20
1.989194
 30
0.0
 10
0.188119
 20
1.990092
 30
0.0
 10
0.175205
 20
1.996691
 30
0.0
  0
SPLINE
  5
190
100
AcDbEntity
  8
Layer_1
 62
7
100
AcDbSpline
 70
8
 71
3
 72
8
 73
4
 74
0
 40
0
 40
0
 40
0
 40
0
 40
1
 40
1
 40
1
 40
1
 10
0.175205
 20
1.996691
 30
0.0
 10
0.162629
 20
2.003244
 30
0.0
 10
0.153089
 20
2.016769
 30
0.0
 10
0.154040
 20
2.031315
 30
0.0
  0
SPLINE
  5
191
100
AcDbEntity
  8
Layer_1
 62
7
100
AcDbSpline
 70
8
 71
3
 72
8
 73
4
 74
0
 40
0
 40
0
 40
0
 40
0
 40
1
 40
1
 40
1
 40
1
 10
0.154040
 20
2.031315
 30
0.0
 10
0.154055
 20
2.048898
 30
0.0
 10
0.167793
 20
2.064319
 30
0.0
 10
0.184280
 20
2.069089
 30
0.0
  0
SPLINE
  5
192
100
AcDbEntity
  8
Layer_1
 62
7
100
AcDbSpline
 70
8
 71
3
 72
8
 73
4
 74
0
 40
0
 40
0
 40
0
 40
0
 40
1
 40
1
 40
1
 40
1
 10
0.184280
 20
2.069089
 30
0.0
 10
0.211380
 20
2.076502
 30
0.0
 10
0.240955
 20
2.064284
 30
0.0
 10
0.245983
 20
2.036787
 30
0.0
  0
SPLINE
  5
193
100
AcDbEntity
  8
Layer_1
 62
7
100
AcDbSpline
 70
8
 71
3
 72
8
 73
4
 74
0
 40
0
 40
0
 40
0
 40
0
 40
1
 40
1
 40
1
 40
1
 10
0.245983
 20
2.036787
 30
0.0
 10
0.249085
 20
2.019819
 30
0.0
 10
0.238892
 20
2.000175
 30
0.0
 10
0.217486
 20
1.993591
 30
0.0
  0
LINE
  5
194
100
AcDbEntity
  8
Layer_1
 62
7
100
AcDbLine
 10
0.217486
 20
1.993591
 30
0.0
 11
0.217486
 21
1.993591
 31
0.0
  0
LINE
  5
195
100
AcDbEntity
  8
Layer_1
 62
7
100
AcDbLine
 10
0.533013
 20
1.970486
 30
0.0
 11
0.498833
 21
1.970486
 31
0.0
  0
LINE
  5
196
100
AcDbEntity
  8
Layer_1
 62
7
100
AcDbLine
 10
0.498833
 20
1.970486
 30
0.0
 11
0.498833
 21
2.188287
 31
0.0
  0
SPLINE
  5
197
100
AcDbEntity
  8
Layer_1
 62
7
100
AcDbSpline
 70
8
 71
3
 72
8
 73
4
 74
0
 40
0
 40
0
 40
0
 40
0
 40
1
 40
1
 40
1
 40
1
 10
0.498833
 20
2.188287
 30
0.0
 10
0.490605
 20
2.180438
 30
0.0
 10
0.479781
 20
2.172589
 30
0.0
 10
0.466363
 20
2.164741
 30
0.0
  0
SPLINE
  5
198
100
AcDbEntity
  8
Layer_1
 62
7
100
AcDbSpline
 70
8
 71
3
 72
8
 73
4
 74
0
 40
0
 40
0
 40
0
 40
0
 40
1
 40
1
 40
1
 40
1
 10
0.466363
 20
2.164741
 30
0.0
 10
0.453071
 20
2.156892
 30
0.0
 10
0.441108
 20
2.151005
 30
0.0
 10
0.430474
 20
2.147081
 30
0.0
  0
LINE
  5
199
100
AcDbEntity
  8
Layer_1
 62
7
100
AcDbLine
 10
0.430474
 20
2.147081
 30
0.0
 11
0.430474
 21
2.180122
 31
0.0
  0
SPLINE
  5
19a
100
AcDbEntity
  8
Layer_1
 62
7
100
AcDbSpline
 70
8
 71
3
 72
8
 73
4
 74
0
 40
0
 40
0
 40
0
 40
0
 40
1
 40
1
 40
1
 40
1
 10
0.430474
 20
2.180122
 30
0.0
 10
0.449589
 20
2.189109
 30
0.0
 10
0.466299
 20
2.199996
 30
0.0
 10
0.480604
 20
2.212782
 30
0.0
  0
SPLINE
  5
19b
100
AcDbEntity
  8
Layer_1
 62
7
100
AcDbSpline
 70
8
 71
3
 72
8
 73
4
 74
0
 40
0
 40
0
 40
0
 40
0
 40
1
 40
1
 40
1
 40
1
 10
0.480604
 20
2.212782
 30
0.0
 10
0.494909
 20
2.225568
 30
0.0
 10
0.505036
 20
2.237974
 30
0.0
 10
0.510986
 20
2.250000
 30
0.0
  0
LINE
  5
19c
100
AcDbEntity
  8
Layer_1
 62
7
100
AcDbLine
 10
0.510986
 20
2.250000
 30
0.0
 11
0.533013
 21
2.250000
 31
0.0
  0
LINE
  5
19d
100
AcDbEntity
  8
Layer_1
 62
7
100
AcDbLine
 10
0.533013
 20
2.250000
 30
0.0
 11
0.533013
 21
1.970486
 31
0.0
  0
SPLINE
  5
19e
100
AcDbEntity
  8
Layer_1
 62
7
100
AcDbSpline
 70
8
 71
3
 72
8
 73
4
 74
0
 40
0
 40
0
 40
0
 40
0
 40
1
 40
1
 40
1
 40
1
 10
0.610134
 20
2.107774
 30
0.0
 10
0.610134
 20
2.140688
 30
0.0
 10
0.613489
 20
2.167146
 30
0.0
 10
0.620198
 20
2.187147
 30
0.0
  0
SPLINE
  5
19f
100
AcDbEntity
  8
Layer_1
 62
7
100
AcDbSpline
 70
8
 71
3
 72
8
 73
4
 74
0
 40
0
 40
0
 40
0
 40
0
 40
1
 40
1
 40
1
 40
1
 10
0.620198
 20
2.187147
 30
0.0
 10
0.627034
 20
2.207275
 30
0.0
 10
0.637098
 20
2.222783
 30
0.0
 10
0.650391
 20
2.233670
 30
0.0
  0
SPLINE
  5
1a0
100
AcDbEntity
  8
Layer_1
 62
7
100
AcDbSpline
 70
8
 71
3
 72
8
 73
4
 74
0
 40
0
 40
0
 40
0
 40
0
 40
1
 40
1
 40
1
 40
1
 10
0.650391
 20
2.233670
 30
0.0
 10
0.663809
 20
2.244557
 30
0.0
 10
0.680646
 20
2.250000
 30
0.0
 10
0.700901
 20
2.250000
 30
0.0
  0
SPLINE
  5
1a1
100
AcDbEntity
  8
Layer_1
 62
7
100
AcDbSpline
 70
8
 71
3
 72
8
 73
4
 74
0
 40
0
 40
0
 40
0
 40
0
 40
1
 40
1
 40
1
 40
1
 10
0.700901
 20
2.250000
 30
0.0
 10
0.715838
 20
2.250000
 30
0.0
 10
0.728941
 20
2.246962
 30
0.0
 10
0.740207
 20
2.240885
 30
0.0
  0
SPLINE
  5
1a2
100
AcDbEntity
  8
Layer_1
 62
7
100
AcDbSpline
 70
8
 71
3
 72
8
 73
4
 74
0
 40
0
 40
0
 40
0
 40
0
 40
1
 40
1
 40
1
 40
1
 10
0.740207
 20
2.240885
 30
0.0
 10
0.751474
 20
2.234936
 30
0.0
 10
0.760778
 20
2.226264
 30
0.0
 10
0.768121
 20
2.214871
 30
0.0
  0
SPLINE
  5
1a3
100
AcDbEntity
  8
Layer_1
 62
7
100
AcDbSpline
 70
8
 71
3
 72
8
 73
4
 74
0
 40
0
 40
0
 40
0
 40
0
 40
1
 40
1
 40
1
 40
1
 10
0.768121
 20
2.214871
 30
0.0
 10
0.775463
 20
2.203604
 30
0.0
 10
0.781223
 20
2.189806
 30
0.0
 10
0.785400
 20
2.173475
 30
0.0
  0
SPLINE
  5
1a4
100
AcDbEntity
  8
Layer_1
 62
7
100
AcDbSpline
 70
8
 71
3
 72
8
 73
4
 74
0
 40
0
 40
0
 40
0
 40
0
 40
1
 40
1
 40
1
 40
1
 10
0.785400
 20
2.173475
 30
0.0
 10
0.789578
 20
2.157272
 30
0.0
 10
0.791667
 20
2.135371
 30
0.0
 10
0.791667
 20
2.107774
 30
0.0
  0
SPLINE
  5
1a5
100
AcDbEntity
  8
Layer_1
 62
7
100
AcDbSpline
 70
8
 71
3
 72
8
 73
4
 74
0
 40
0
 40
0
 40
0
 40
0
 40
1
 40
1
 40
1
 40
1
 10
0.791667
 20
2.107774
 30
0.0
 10
0.791667
 20
2.075114
 30
0.0
 10
0.788312
 20
2.048720
 30
0.0
 10
0.781603
 20
2.028592
 30
0.0
  0
SPLINE
  5
1a6
100
AcDbEntity
  8
Layer_1
 62
7
100
AcDbSpline
 70
8
 71
3
 72
8
 73
4
 74
0
 40
0
 40
0
 40
0
 40
0
 40
1
 40
1
 40
1
 40
1
 10
0.781603
 20
2.028592
 30
0.0
 10
0.774893
 20
2.008590
 30
0.0
 10
0.764829
 20
1.993083
 30
0.0
 10
0.751411
 20
1.982069
 30
0.0
  0
SPLINE
  5
1a7
100
AcDbEntity
  8
Layer_1
 62
7
100
AcDbSpline
 70
8
 71
3
 72
8
 73
4
 74
0
 40
0
 40
0
 40
0
 40
0
 40
1
 40
1
 40
1
 40
1
 10
0.751411
 20
1.982069
 30
0.0
 10
0.738118
 20
1.971182
 30
0.0
 10
0.721282
 20
1.965739
 30
0.0
 10
0.700901
 20
1.965739
 30
0.0
  0
SPLINE
  5
1a8
100
AcDbEntity
  8
Layer_1
 62
7
100
AcDbSpline
 70
8
 71
3
 72
8
 73
4
 74
0
 40
0
 40
0
 40
0
 40
0
 40
1
 40
1
 40
1
 40
1
 10
0.700901
 20
1.965739
 30
0.0
 10
0.674063
 20
1.965739
 30
0.0
 10
0.652986
 20
1.975360
 30
0.0
 10
0.637668
 20
1.994602
 30
0.0
  0
SPLINE
  5
1a9
100
AcDbEntity
  8
Layer_1
 62
7
100
AcDbSpline
 70
8
 71
3
 72
8
 73
4
 74
0
 40
0
 40
0
 40
0
 40
0
 40
1
 40
1
 40
1
 40
1
 10
0.637668
 20
1.994602
 30
0.0
 10
0.619312
 20
2.017768
 30
0.0
 10
0.610134
 20
2.055492
 30
0.0
 10
0.610134
 20
2.107774
 30
0.0
  0
LINE
  5
1aa
100
AcDbEntity
  8
Layer_1
 62
7
100
AcDbLine
 10
0.610134
 20
2.107774
 30
0.0
 11
0.610134
 21
2.107774
 31
0.0
  0
SPLINE
  5
1ab
100
AcDbEntity
  8
Layer_1
 62
7
100
AcDbSpline
 70
8
 71
3
 72
8
 73
4
 74
0
 40
0
 40
0
 40
0
 40
0
 40
1
 40
1
 40
1
 40
1
 10
0.645264
 20
2.107774
 30
0.0
 10
0.645264
 20
2.062075
 30
0.0
 10
0.650580
 20
2.031630
 30
0.0
 10
0.661214
 20
2.016439
 30
0.0
  0
SPLINE
  5
1ac
100
AcDbEntity
  8
Layer_1
 62
7
100
AcDbSpline
 70
8
 71
3
 72
8
 73
4
 74
0
 40
0
 40
0
 40
0
 40
0
 40
1
 40
1
 40
1
 40
1
 10
0.661214
 20
2.016439
 30
0.0
 10
0.671974
 20
2.001374
 30
0.0
 10
0.685203
 20
1.993842
 30
0.0
 10
0.700901
 20
1.993842
 30
0.0
  0
SPLINE
  5
1ad
100
AcDbEntity
  8
Layer_1
 62
7
100
AcDbSpline
 70
8
 71
3
 72
8
 73
4
 74
0
 40
0
 40
0
 40
0
 40
0
 40
1
 40
1
 40
1
 40
1
 10
0.700901
 20
1.993842
 30
0.0
 10
0.716598
 20
1.993842
 30
0.0
 10
0.729763
 20
2.001438
 30
0.0
 10
0.740397
 20
2.016629
 30
0.0
  0
SPLINE
  5
1ae
100
AcDbEntity
  8
Layer_1
 62
7
100
AcDbSpline
 70
8
 71
3
 72
8
 73
4
 74
0
 40
0
 40
0
 40
0
 40
0
 40
1
 40
1
 40
1
 40
1
 10
0.740397
 20
2.016629
 30
0.0
 10
0.751157
 20
2.031820
 30
0.0
 10
0.756537
 20
2.062202
 30
0.0
 10
0.756537
 20
2.107774
 30
0.0
  0
SPLINE
  5
1af
100
AcDbEntity
  8
Layer_1
 62
7
100
AcDbSpline
 70
8
 71
3
 72
8
 73
4
 74
0
 40
0
 40
0
 40
0
 40
0
 40
1
 40
1
 40
1
 40
1
 10
0.756537
 20
2.107774
 30
0.0
 10
0.756537
 20
2.153601
 30
0.0
 10
0.751157
 20
2.184046
 30
0.0
 10
0.740397
 20
2.199110
 30
0.0
  0
SPLINE
  5
1b0
100
AcDbEntity
  8
Layer_1
 62
7
100
AcDbSpline
 70
8
 71
3
 72
8
 73
4
 74
0
 40
0
 40
0
 40
0
 40
0
 40
1
 40
1
 40
1
 40
1
 10
0.740397
 20
2.199110
 30
0.0
 10
0.729763
 20
2.214175
 30
0.0
 10
0.716471
 20
2.221707
 30
0.0
 10
0.700521
 20
2.221707
 30
0.0
  0
SPLINE
  5
1b1
100
AcDbEntity
  8
Layer_1
 62
7
100
AcDbSpline
 70
8
 71
3
 72
8
 73
4
 74
0
 40
0
 40
0
 40
0
 40
0
 40
1
 40
1
 40
1
 40
1
 10
0.700521
 20
2.221707
 30
0.0
 10
0.684823
 20
2.221707
 30
0.0
 10
0.672291
 20
2.215061
 30
0.0
 10
0.662923
 20
2.201769
 30
0.0
  0
SPLINE
  5
1b2
100
AcDbEntity
  8
Layer_1
 62
7
100
AcDbSpline
 70
8
 71
3
 72
8
 73
4
 74
0
 40
0
 40
0
 40
0
 40
0
 40
1
 40
1
 40
1
 40
1
 10
0.662923
 20
2.201769
 30
0.0
 10
0.651150
 20
2.184805
 30
0.0
 10
0.645264
 20
2.153474
 30
0.0
 10
0.645264
 20
2.107774
 30
0.0
  0
LINE
  5
1b3
100
AcDbEntity
  8
Layer_1
 62
7
100
AcDbLine
 10
0.645264
 20
2.107774
 30
0.0
 11
0.645264
 21
2.107774
 31
0.0
  0
LINE
  5
1b4
100
AcDbEntity
  8
Layer_1
 62
7
100
AcDbLine
 10
0.599204
 20
1.538917
 30
0.0
 11
0.599204
 21
1.506066
 31
0.0
  0
LINE
  5
1b5
100
AcDbEntity
  8
Layer_1
 62
7
100
AcDbLine
 10
0.599204
 20
1.506066
 30
0.0
 11
0.415203
 21
1.506066
 31
0.0
  0
SPLINE
  5
1b6
100
AcDbEntity
  8
Layer_1
 62
7
100
AcDbSpline
 70
8
 71
3
 72
8
 73
4
 74
0
 40
0
 40
0
 40
0
 40
0
 40
1
 40
1
 40
1
 40
1
 10
0.415203
 20
1.506066
 30
0.0
 10
0.414951
 20
1.514295
 30
0.0
 10
0.416281
 20
1.522207
 30
0.0
 10
0.419191
 20
1.529802
 30
0.0
  0
SPLINE
  5
1b7
100
AcDbEntity
  8
Layer_1
 62
7
100
AcDbSpline
 70
8
 71
3
 72
8
 73
4
 74
0
 40
0
 40
0
 40
0
 40
0
 40
1
 40
1
 40
1
 40
1
 10
0.419191
 20
1.529802
 30
0.0
 10
0.423875
 20
1.542335
 30
0.0
 10
0.431344
 20
1.554677
 30
0.0
 10
0.441598
 20
1.566830
 30
0.0
  0
SPLINE
  5
1b8
100
AcDbEntity
  8
Layer_1
 62
7
100
AcDbSpline
 70
8
 71
3
 72
8
 73
4
 74
0
 40
0
 40
0
 40
0
 40
0
 40
1
 40
1
 40
1
 40
1
 10
0.441598
 20
1.566830
 30
0.0
 10
0.451978
 20
1.578983
 30
0.0
 10
0.466916
 20
1.593034
 30
0.0
 10
0.486411
 20
1.608985
 30
0.0
  0
SPLINE
  5
1b9
100
AcDbEntity
  8
Layer_1
 62
7
100
AcDbSpline
 70
8
 71
3
 72
8
 73
4
 74
0
 40
0
 40
0
 40
0
 40
0
 40
1
 40
1
 40
1
 40
1
 10
0.486411
 20
1.608985
 30
0.0
 10
0.516666
 20
1.633797
 30
0.0
 10
0.537111
 20
1.653419
 30
0.0
 10
0.547745
 20
1.667850
 30
0.0
  0
SPLINE
  5
1ba
100
AcDbEntity
  8
Layer_1
 62
7
100
AcDbSpline
 70
8
 71
3
 72
8
 73
4
 74
0
 40
0
 40
0
 40
0
 40
0
 40
1
 40
1
 40
1
 40
1
 10
0.547745
 20
1.667850
 30
0.0
 10
0.558378
 20
1.682408
 30
0.0
 10
0.563695
 20
1.696143
 30
0.0
 10
0.563695
 20
1.709056
 30
0.0
  0
SPLINE
  5
1bb
100
AcDbEntity
  8
Layer_1
 62
7
100
AcDbSpline
 70
8
 71
3
 72
8
 73
4
 74
0
 40
0
 40
0
 40
0
 40
0
 40
1
 40
1
 40
1
 40
1
 10
0.563695
 20
1.709056
 30
0.0
 10
0.563695
 20
1.722601
 30
0.0
 10
0.558821
 20
1.733994
 30
0.0
 10
0.549074
 20
1.743235
 30
0.0
  0
SPLINE
  5
1bc
100
AcDbEntity
  8
Layer_1
 62
7
100
AcDbSpline
 70
8
 71
3
 72
8
 73
4
 74
0
 40
0
 40
0
 40
0
 40
0
 40
1
 40
1
 40
1
 40
1
 10
0.549074
 20
1.743235
 30
0.0
 10
0.539453
 20
1.752603
 30
0.0
 10
0.526857
 20
1.757287
 30
0.0
 10
0.511286
 20
1.757287
 30
0.0
  0
SPLINE
  5
1bd
100
AcDbEntity
  8
Layer_1
 62
7
100
AcDbSpline
 70
8
 71
3
 72
8
 73
4
 74
0
 40
0
 40
0
 40
0
 40
0
 40
1
 40
1
 40
1
 40
1
 10
0.511286
 20
1.757287
 30
0.0
 10
0.494829
 20
1.757287
 30
0.0
 10
0.481664
 20
1.752350
 30
0.0
 10
0.471790
 20
1.742476
 30
0.0
  0
SPLINE
  5
1be
100
AcDbEntity
  8
Layer_1
 62
7
100
AcDbSpline
 70
8
 71
3
 72
8
 73
4
 74
0
 40
0
 40
0
 40
0
 40
0
 40
1
 40
1
 40
1
 40
1
 10
0.471790
 20
1.742476
 30
0.0
 10
0.461916
 20
1.732602
 30
0.0
 10
0.456915
 20
1.718930
 30
0.0
 10
0.456789
 20
1.701460
 30
0.0
  0
LINE
  5
1bf
100
AcDbEntity
  8
Layer_1
 62
7
100
AcDbLine
 10
0.456789
 20
1.701460
 30
0.0
 11
0.421659
 21
1.705068
 31
0.0
  0
SPLINE
  5
1c0
100
AcDbEntity
  8
Layer_1
 62
7
100
AcDbSpline
 70
8
 71
3
 72
8
 73
4
 74
0
 40
0
 40
0
 40
0
 40
0
 40
1
 40
1
 40
1
 40
1
 10
0.421659
 20
1.705068
 30
0.0
 10
0.424065
 20
1.731272
 30
0.0
 10
0.433116
 20
1.751210
 30
0.0
 10
0.448813
 20
1.764882
 30
0.0
  0
SPLINE
  5
1c1
100
AcDbEntity
  8
Layer_1
 62
7
100
AcDbSpline
 70
8
 71
3
 72
8
 73
4
 74
0
 40
0
 40
0
 40
0
 40
0
 40
1
 40
1
 40
1
 40
1
 10
0.448813
 20
1.764882
 30
0.0
 10
0.464511
 20
1.778681
 30
0.0
 10
0.485588
 20
1.785580
 30
0.0
 10
0.512046
 20
1.785580
 30
0.0
  0
SPLINE
  5
1c2
100
AcDbEntity
  8
Layer_1
 62
7
100
AcDbSpline
 70
8
 71
3
 72
8
 73
4
 74
0
 40
0
 40
0
 40
0
 40
0
 40
1
 40
1
 40
1
 40
1
 10
0.512046
 20
1.785580
 30
0.0
 10
0.538757
 20
1.785580
 30
0.0
 10
0.559897
 20
1.778174
 30
0.0
 10
0.575468
 20
1.763363
 30
0.0
  0
SPLINE
  5
1c3
100
AcDbEntity
  8
Layer_1
 62
7
100
AcDbSpline
 70
8
 71
3
 72
8
 73
4
 74
0
 40
0
 40
0
 40
0
 40
0
 40
1
 40
1
 40
1
 40
1
 10
0.575468
 20
1.763363
 30
0.0
 10
0.591039
 20
1.748552
 30
0.0
 10
0.598824
 20
1.730196
 30
0.0
 10
0.598824
 20
1.708296
 30
0.0
  0
SPLINE
  5
1c4
100
AcDbEntity
  8
Layer_1
 62
7
100
AcDbSpline
 70
8
 71
3
 72
8
 73
4
 74
0
 40
0
 40
0
 40
0
 40
0
 40
1
 40
1
 40
1
 40
1
 10
0.598824
 20
1.708296
 30
0.0
 10
0.598824
 20
1.697156
 30
0.0
 10
0.596546
 20
1.686206
 30
0.0
 10
0.591988
 20
1.675446
 30
0.0
  0
SPLINE
  5
1c5
100
AcDbEntity
  8
Layer_1
 62
7
100
AcDbSpline
 70
8
 71
3
 72
8
 73
4
 74
0
 40
0
 40
0
 40
0
 40
0
 40
1
 40
1
 40
1
 40
1
 10
0.591988
 20
1.675446
 30
0.0
 10
0.587431
 20
1.664685
 30
0.0
 10
0.579835
 20
1.653355
 30
0.0
 10
0.569202
 20
1.641456
 30
0.0
  0
SPLINE
  5
1c6
100
AcDbEntity
  8
Layer_1
 62
7
100
AcDbSpline
 70
8
 71
3
 72
8
 73
4
 74
0
 40
0
 40
0
 40
0
 40
0
 40
1
 40
1
 40
1
 40
1
 10
0.569202
 20
1.641456
 30
0.0
 10
0.558695
 20
1.629556
 30
0.0
 10
0.541162
 20
1.613226
 30
0.0
 10
0.516603
 20
1.592465
 30
0.0
  0
SPLINE
  5
1c7
100
AcDbEntity
  8
Layer_1
 62
7
100
AcDbSpline
 70
8
 71
3
 72
8
 73
4
 74
0
 40
0
 40
0
 40
0
 40
0
 40
1
 40
1
 40
1
 40
1
 10
0.516603
 20
1.592465
 30
0.0
 10
0.496095
 20
1.575248
 30
0.0
 10
0.482930
 20
1.563539
 30
0.0
 10
0.477107
 20
1.557336
 30
0.0
  0
SPLINE
  5
1c8
100
AcDbEntity
  8
Layer_1
 62
7
100
AcDbSpline
 70
8
 71
3
 72
8
 73
4
 74
0
 40
0
 40
0
 40
0
 40
0
 40
1
 40
1
 40
1
 40
1
 10
0.477107
 20
1.557336
 30
0.0
 10
0.471283
 20
1.551259
 30
0.0
 10
0.466473
 20
1.545120
 30
0.0
 10
0.462675
 20
1.538917
 30
0.0
  0
LINE
  5
1c9
100
AcDbEntity
  8
Layer_1
 62
7
100
AcDbLine
 10
0.462675
 20
1.538917
 30
0.0
 11
0.599204
 21
1.538917
 31
0.0
  0
SPLINE
  5
1ca
100
AcDbEntity
  8
Layer_1
 62
7
100
AcDbSpline
 70
8
 71
3
 72
8
 73
4
 74
0
 40
0
 40
0
 40
0
 40
0
 40
1
 40
1
 40
1
 40
1
 10
0.625436
 20
1.643355
 30
0.0
 10
0.625436
 20
1.676268
 30
0.0
 10
0.628790
 20
1.702726
 30
0.0
 10
0.635500
 20
1.722727
 30
0.0
  0
SPLINE
  5
1cb
100
AcDbEntity
  8
Layer_1
 62
7
100
AcDbSpline
 70
8
 71
3
 72
8
 73
4
 74
0
 40
0
 40
0
 40
0
 40
0
 40
1
 40
1
 40
1
 40
1
 10
0.635500
 20
1.722727
 30
0.0
 10
0.642336
 20
1.742855
 30
0.0
 10
0.652400
 20
1.758363
 30
0.0
 10
0.665692
 20
1.769250
 30
0.0
  0
SPLINE
  5
1cc
100
AcDbEntity
  8
Layer_1
 62
7
100
AcDbSpline
 70
8
 71
3
 72
8
 73
4
 74
0
 40
0
 40
0
 40
0
 40
0
 40
1
 40
1
 40
1
 40
1
 10
0.665692
 20
1.769250
 30
0.0
 10
0.679110
 20
1.780137
 30
0.0
 10
0.695947
 20
1.785580
 30
0.0
 10
0.716202
 20
1.785580
 30
0.0
  0
SPLINE
  5
1cd
100
AcDbEntity
  8
Layer_1
 62
7
100
AcDbSpline
 70
8
 71
3
 72
8
 73
4
 74
0
 40
0
 40
0
 40
0
 40
0
 40
1
 40
1
 40
1
 40
1
 10
0.716202
 20
1.785580
 30
0.0
 10
0.731139
 20
1.785580
 30
0.0
 10
0.744242
 20
1.782542
 30
0.0
 10
0.755508
 20
1.776466
 30
0.0
  0
SPLINE
  5
1ce
100
AcDbEntity
  8
Layer_1
 62
7
100
AcDbSpline
 70
8
 71
3
 72
8
 73
4
 74
0
 40
0
 40
0
 40
0
 40
0
 40
1
 40
1
 40
1
 40
1
 10
0.755508
 20
1.776466
 30
0.0
 10
0.766775
 20
1.770516
 30
0.0
 10
0.776079
 20
1.761844
 30
0.0
 10
0.783422
 20
1.750451
 30
0.0
  0
SPLINE
  5
1cf
100
AcDbEntity
  8
Layer_1
 62
7
100
AcDbSpline
 70
8
 71
3
 72
8
 73
4
 74
0
 40
0
 40
0
 40
0
 40
0
 40
1
 40
1
 40
1
 40
1
 10
0.783422
 20
1.750451
 30
0.0
 10
0.790764
 20
1.739184
 30
0.0
 10
0.796524
 20
1.725386
 30
0.0
 10
0.800701
 20
1.709056
 30
0.0
  0
SPLINE
  5
1d0
100
AcDbEntity
  8
Layer_1
 62
7
100
AcDbSpline
 70
8
 71
3
 72
8
 73
4
 74
0
 40
0
 40
0
 40
0
 40
0
 40
1
 40
1
 40
1
 40
1
 10
0.800701
 20
1.709056
 30
0.0
 10
0.804879
 20
1.692852
 30
0.0
 10
0.806968
 20
1.670952
 30
0.0
 10
0.806968
 20
1.643355
 30
0.0
  0
SPLINE
  5
1d1
100
AcDbEntity
  8
Layer_1
 62
7
100
AcDbSpline
 70
8
 71
3
 72
8
 73
4
 74
0
 40
0
 40
0
 40
0
 40
0
 40
1
 40
1
 40
1
 40
1
 10
0.806968
 20
1.643355
 30
0.0
 10
0.806968
 20
1.610694
 30
0.0
 10
0.803613
 20
1.584300
 30
0.0
 10
0.796904
 20
1.564172
 30
0.0
  0
SPLINE
  5
1d2
100
AcDbEntity
  8
Layer_1
 62
7
100
AcDbSpline
 70
8
 71
3
 72
8
 73
4
 74
0
 40
0
 40
0
 40
0
 40
0
 40
1
 40
1
 40
1
 40
1
 10
0.796904
 20
1.564172
 30
0.0
 10
0.790194
 20
1.544170
 30
0.0
 10
0.780130
 20
1.528663
 30
0.0
 10
0.766712
 20
1.517649
 30
0.0
  0
SPLINE
  5
1d3
100
AcDbEntity
  8
Layer_1
 62
7
100
AcDbSpline
 70
8
 71
3
 72
8
 73
4
 74
0
 40
0
 40
0
 40
0
 40
0
 40
1
 40
1
 40
1
 40
1
 10
0.766712
 20
1.517649
 30
0.0
 10
0.753420
 20
1.506762
 30
0.0
 10
0.736583
 20
1.501319
 30
0.0
 10
0.716202
 20
1.501319
 30
0.0
  0
SPLINE
  5
1d4
100
AcDbEntity
  8
Layer_1
 62
7
100
AcDbSpline
 70
8
 71
3
 72
8
 73
4
 74
0
 40
0
 40
0
 40
0
 40
0
 40
1
 40
1
 40
1
 40
1
 10
0.716202
 20
1.501319
 30
0.0
 10
0.689364
 20
1.501319
 30
0.0
 10
0.668287
 20
1.510940
 30
0.0
 10
0.652969
 20
1.530182
 30
0.0
  0
SPLINE
  5
1d5
100
AcDbEntity
  8
Layer_1
 62
7
100
AcDbSpline
 70
8
 71
3
 72
8
 73
4
 74
0
 40
0
 40
0
 40
0
 40
0
 40
1
 40
1
 40
1
 40
1
 10
0.652969
 20
1.530182
 30
0.0
 10
0.634613
 20
1.553348
 30
0.0
 10
0.625436
 20
1.591072
 30
0.0
 10
0.625436
 20
1.643355
 30
0.0
  0
LINE
  5
1d6
100
AcDbEntity
  8
Layer_1
 62
7
100
AcDbLine
 10
0.625436
 20
1.643355
 30
0.0
 11
0.625436
 21
1.643355
 31
0.0
  0
SPLINE
  5
1d7
100
AcDbEntity
  8
Layer_1
 62
7
100
AcDbSpline
 70
8
 71
3
 72
8
 73
4
 74
0
 40
0
 40
0
 40
0
 40
0
 40
1
 40
1
 40
1
 40
1
 10
0.660565
 20
1.643355
 30
0.0
 10
0.660565
 20
1.597655
 30
0.0
 10
0.665882
 20
1.567210
 30
0.0
 10
0.676515
 20
1.552019
 30
0.0
  0
SPLINE
  5
1d8
100
AcDbEntity
  8
Layer_1
 62
7
100
AcDbSpline
 70
8
 71
3
 72
8
 73
4
 74
0
 40
0
 40
0
 40
0
 40
0
 40
1
 40
1
 40
1
 40
1
 10
0.676515
 20
1.552019
 30
0.0
 10
0.687275
 20
1.536954
 30
0.0
 10
0.700504
 20
1.529422
 30
0.0
 10
0.716202
 20
1.529422
 30
0.0
  0
SPLINE
  5
1d9
100
AcDbEntity
  8
Layer_1
 62
7
100
AcDbSpline
 70
8
 71
3
 72
8
 73
4
 74
0
 40
0
 40
0
 40
0
 40
0
 40
1
 40
1
 40
1
 40
1
 10
0.716202
 20
1.529422
 30
0.0
 10
0.731899
 20
1.529422
 30
0.0
 10
0.745064
 20
1.537018
 30
0.0
 10
0.755698
 20
1.552209
 30
0.0
  0
SPLINE
  5
1da
100
AcDbEntity
  8
Layer_1
 62
7
100
AcDbSpline
 70
8
 71
3
 72
8
 73
4
 74
0
 40
0
 40
0
 40
0
 40
0
 40
1
 40
1
 40
1
 40
1
 10
0.755698
 20
1.552209
 30
0.0
 10
0.766458
 20
1.567400
 30
0.0
 10
0.771839
 20
1.597782
 30
0.0
 10
0.771839
 20
1.643355
 30
0.0
  0
SPLINE
  5
1db
100
AcDbEntity
  8
Layer_1
 62
7
100
AcDbSpline
 70
8
 71
3
 72
8
 73
4
 74
0
 40
0
 40
0
 40
0
 40
0
 40
1
 40
1
 40
1
 40
1
 10
0.771839
 20
1.643355
 30
0.0
 10
0.771839
 20
1.689181
 30
0.0
 10
0.766458
 20
1.719626
 30
0.0
 10
0.755698
 20
1.734690
 30
0.0
  0
SPLINE
  5
1dc
100
AcDbEntity
  8
Layer_1
 62
7
100
AcDbSpline
 70
8
 71
3
 72
8
 73
4
 74
0
 40
0
 40
0
 40
0
 40
0
 40
1
 40
1
 40
1
 40
1
 10
0.755698
 20
1.734690
 30
0.0
 10
0.745064
 20
1.749755
 30
0.0
 10
0.731772
 20
1.757287
 30
0.0
 10
0.715822
 20
1.757287
 30
0.0
  0
SPLINE
  5
1dd
100
AcDbEntity
  8
Layer_1
 62
7
100
AcDbSpline
 70
8
 71
3
 72
8
 73
4
 74
0
 40
0
 40
0
 40
0
 40
0
 40
1
 40
1
 40
1
 40
1
 10
0.715822
 20
1.757287
 30
0.0
 10
0.700125
 20
1.757287
 30
0.0
 10
0.687592
 20
1.750641
 30
0.0
 10
0.678224
 20
1.737349
 30
0.0
  0
SPLINE
  5
1de
100
AcDbEntity
  8
Layer_1
 62
7
100
AcDbSpline
 70
8
 71
3
 72
8
 73
4
 74
0
 40
0
 40
0
 40
0
 40
0
 40
1
 40
1
 40
1
 40
1
 10
0.678224
 20
1.737349
 30
0.0
 10
0.666451
 20
1.720385
 30
0.0
 10
0.660565
 20
1.689054
 30
0.0
 10
0.660565
 20
1.643355
 30
0.0
  0
LINE
  5
1df
100
AcDbEntity
  8
Layer_1
 62
7
100
AcDbLine
 10
0.660565
 20
1.643355
 30
0.0
 11
0.660565
 21
1.643355
 31
0.0
  0
LINE
  5
1e0
100
AcDbEntity
  8
Layer_1
 62
7
100
AcDbLine
 10
0.417467
 20
1.114943
 30
0.0
 11
0.451646
 21
1.119500
 31
0.0
  0
SPLINE
  5
1e1
100
AcDbEntity
  8
Layer_1
 62
7
100
AcDbSpline
 70
8
 71
3
 72
8
 73
4
 74
0
 40
0
 40
0
 40
0
 40
0
 40
1
 40
1
 40
1
 40
1
 10
0.451646
 20
1.119500
 30
0.0
 10
0.455571
 20
1.100131
 30
0.0
 10
0.462217
 20
1.086143
 30
0.0
 10
0.471585
 20
1.077535
 30
0.0
  0
SPLINE
  5
1e2
100
AcDbEntity
  8
Layer_1
 62
7
100
AcDbSpline
 70
8
 71
3
 72
8
 73
4
 74
0
 40
0
 40
0
 40
0
 40
0
 40
1
 40
1
 40
1
 40
1
 10
0.471585
 20
1.077535
 30
0.0
 10
0.481079
 20
1.069053
 30
0.0
 10
0.492599
 20
1.064812
 30
0.0
 10
0.506144
 20
1.064812
 30
0.0
  0
SPLINE
  5
1e3
100
AcDbEntity
  8
Layer_1
 62
7
100
AcDbSpline
 70
8
 71
3
 72
8
 73
4
 74
0
 40
0
 40
0
 40
0
 40
0
 40
1
 40
1
 40
1
 40
1
 10
0.506144
 20
1.064812
 30
0.0
 10
0.522221
 20
1.064812
 30
0.0
 10
0.535766
 20
1.070383
 30
0.0
 10
0.546780
 20
1.081523
 30
0.0
  0
SPLINE
  5
1e4
100
AcDbEntity
  8
Layer_1
 62
7
100
AcDbSpline
 70
8
 71
3
 72
8
 73
4
 74
0
 40
0
 40
0
 40
0
 40
0
 40
1
 40
1
 40
1
 40
1
 10
0.546780
 20
1.081523
 30
0.0
 10
0.557920
 20
1.092663
 30
0.0
 10
0.563490
 20
1.106461
 30
0.0
 10
0.563490
 20
1.122918
 30
0.0
  0
SPLINE
  5
1e5
100
AcDbEntity
  8
Layer_1
 62
7
100
AcDbSpline
 70
8
 71
3
 72
8
 73
4
 74
0
 40
0
 40
0
 40
0
 40
0
 40
1
 40
1
 40
1
 40
1
 10
0.563490
 20
1.122918
 30
0.0
 10
0.563490
 20
1.138615
 30
0.0
 10
0.558363
 20
1.151528
 30
0.0
 10
0.548109
 20
1.161655
 30
0.0
  0
SPLINE
  5
1e6
100
AcDbEntity
  8
Layer_1
 62
7
100
AcDbSpline
 70
8
 71
3
 72
8
 73
4
 74
0
 40
0
 40
0
 40
0
 40
0
 40
1
 40
1
 40
1
 40
1
 10
0.548109
 20
1.161655
 30
0.0
 10
0.537855
 20
1.171909
 30
0.0
 10
0.524816
 20
1.177036
 30
0.0
 10
0.508992
 20
1.177036
 30
0.0
  0
SPLINE
  5
1e7
100
AcDbEntity
  8
Layer_1
 62
7
100
AcDbSpline
 70
8
 71
3
 72
8
 73
4
 74
0
 40
0
 40
0
 40
0
 40
0
 40
1
 40
1
 40
1
 40
1
 10
0.508992
 20
1.177036
 30
0.0
 10
0.502536
 20
1.177036
 30
0.0
 10
0.494498
 20
1.175770
 30
0.0
 10
0.484877
 20
1.173238
 30
0.0
  0
LINE
  5
1e8
100
AcDbEntity
  8
Layer_1
 62
7
100
AcDbLine
 10
0.484877
 20
1.173238
 30
0.0
 11
0.488674
 21
1.203240
 31
0.0
  0
SPLINE
  5
1e9
100
AcDbEntity
  8
Layer_1
 62
7
100
AcDbSpline
 70
8
 71
3
 72
8
 73
4
 74
0
 40
0
 40
0
 40
0
 40
0
 40
1
 40
1
 40
1
 40
1
 10
0.488674
 20
1.203240
 30
0.0
 10
0.490953
 20
1.202988
 30
0.0
 10
0.492789
 20
1.202862
 30
0.0
 10
0.494181
 20
1.202862
 30
0.0
  0
SPLINE
  5
1ea
100
AcDbEntity
  8
Layer_1
 62
7
100
AcDbSpline
 70
8
 71
3
 72
8
 73
4
 74
0
 40
0
 40
0
 40
0
 40
0
 40
1
 40
1
 40
1
 40
1
 10
0.494181
 20
1.202862
 30
0.0
 10
0.508739
 20
1.202862
 30
0.0
 10
0.521841
 20
1.206660
 30
0.0
 10
0.533488
 20
1.214256
 30
0.0
  0
SPLINE
  5
1eb
100
AcDbEntity
  8
Layer_1
 62
7
100
AcDbSpline
 70
8
 71
3
 72
8
 73
4
 74
0
 40
0
 40
0
 40
0
 40
0
 40
1
 40
1
 40
1
 40
1
 10
0.533488
 20
1.214256
 30
0.0
 10
0.545134
 20
1.221851
 30
0.0
 10
0.550957
 20
1.233561
 30
0.0
 10
0.550957
 20
1.249385
 30
0.0
  0
SPLINE
  5
1ec
100
AcDbEntity
  8
Layer_1
 62
7
100
AcDbSpline
 70
8
 71
3
 72
8
 73
4
 74
0
 40
0
 40
0
 40
0
 40
0
 40
1
 40
1
 40
1
 40
1
 10
0.550957
 20
1.249385
 30
0.0
 10
0.550957
 20
1.261917
 30
0.0
 10
0.546717
 20
1.272298
 30
0.0
 10
0.538235
 20
1.280526
 30
0.0
  0
SPLINE
  5
1ed
100
AcDbEntity
  8
Layer_1
 62
7
100
AcDbSpline
 70
8
 71
3
 72
8
 73
4
 74
0
 40
0
 40
0
 40
0
 40
0
 40
1
 40
1
 40
1
 40
1
 10
0.538235
 20
1.280526
 30
0.0
 10
0.529753
 20
1.288755
 30
0.0
 10
0.518803
 20
1.292869
 30
0.0
 10
0.505384
 20
1.292869
 30
0.0
  0
SPLINE
  5
1ee
100
AcDbEntity
  8
Layer_1
 62
7
100
AcDbSpline
 70
8
 71
3
 72
8
 73
4
 74
0
 40
0
 40
0
 40
0
 40
0
 40
1
 40
1
 40
1
 40
1
 10
0.505384
 20
1.292869
 30
0.0
 10
0.492092
 20
1.292869
 30
0.0
 10
0.481016
 20
1.288691
 30
0.0
 10
0.472154
 20
1.280336
 30
0.0
  0
SPLINE
  5
1ef
100
AcDbEntity
  8
Layer_1
 62
7
100
AcDbSpline
 70
8
 71
3
 72
8
 73
4
 74
0
 40
0
 40
0
 40
0
 40
0
 40
1
 40
1
 40
1
 40
1
 10
0.472154
 20
1.280336
 30
0.0
 10
0.463293
 20
1.271981
 30
0.0
 10
0.457596
 20
1.259449
 30
0.0
 10
0.455064
 20
1.242739
 30
0.0
  0
LINE
  5
1f0
100
AcDbEntity
  8
Layer_1
 62
7
100
AcDbLine
 10
0.455064
 20
1.242739
 30
0.0
 11
0.420885
 21
1.248815
 31
0.0
  0
SPLINE
  5
1f1
100
AcDbEntity
  8
Layer_1
 62
7
100
AcDbSpline
 70
8
 71
3
 72
8
 73
4
 74
0
 40
0
 40
0
 40
0
 40
0
 40
1
 40
1
 40
1
 40
1
 10
0.420885
 20
1.248815
 30
0.0
 10
0.425062
 20
1.271728
 30
0.0
 10
0.434556
 20
1.289451
 30
0.0
 10
0.449368
 20
1.301984
 30
0.0
  0
SPLINE
  5
1f2
100
AcDbEntity
  8
Layer_1
 62
7
100
AcDbSpline
 70
8
 71
3
 72
8
 73
4
 74
0
 40
0
 40
0
 40
0
 40
0
 40
1
 40
1
 40
1
 40
1
 10
0.449368
 20
1.301984
 30
0.0
 10
0.464179
 20
1.314643
 30
0.0
 10
0.482598
 20
1.320972
 30
0.0
 10
0.504625
 20
1.320972
 30
0.0
  0
SPLINE
  5
1f3
100
AcDbEntity
  8
Layer_1
 62
7
100
AcDbSpline
 70
8
 71
3
 72
8
 73
4
 74
0
 40
0
 40
0
 40
0
 40
0
 40
1
 40
1
 40
1
 40
1
 10
0.504625
 20
1.320972
 30
0.0
 10
0.519816
 20
1.320972
 30
0.0
 10
0.533804
 20
1.317681
 30
0.0
 10
0.546590
 20
1.311098
 30
0.0
  0
SPLINE
  5
1f4
100
AcDbEntity
  8
Layer_1
 62
7
100
AcDbSpline
 70
8
 71
3
 72
8
 73
4
 74
0
 40
0
 40
0
 40
0
 40
0
 40
1
 40
1
 40
1
 40
1
 10
0.546590
 20
1.311098
 30
0.0
 10
0.559376
 20
1.304642
 30
0.0
 10
0.569123
 20
1.295781
 30
0.0
 10
0.575833
 20
1.284514
 30
0.0
  0
SPLINE
  5
1f5
100
AcDbEntity
  8
Layer_1
 62
7
100
AcDbSpline
 70
8
 71
3
 72
8
 73
4
 74
0
 40
0
 40
0
 40
0
 40
0
 40
1
 40
1
 40
1
 40
1
 10
0.575833
 20
1.284514
 30
0.0
 10
0.582668
 20
1.273247
 30
0.0
 10
0.586086
 20
1.261284
 30
0.0
 10
0.586086
 20
1.248625
 30
0.0
  0
SPLINE
  5
1f6
100
AcDbEntity
  8
Layer_1
 62
7
100
AcDbSpline
 70
8
 71
3
 72
8
 73
4
 74
0
 40
0
 40
0
 40
0
 40
0
 40
1
 40
1
 40
1
 40
1
 10
0.586086
 20
1.248625
 30
0.0
 10
0.586086
 20
1.236599
 30
0.0
 10
0.582858
 20
1.225649
 30
0.0
 10
0.576402
 20
1.215775
 30
0.0
  0
SPLINE
  5
1f7
100
AcDbEntity
  8
Layer_1
 62
7
100
AcDbSpline
 70
8
 71
3
 72
8
 73
4
 74
0
 40
0
 40
0
 40
0
 40
0
 40
1
 40
1
 40
1
 40
1
 10
0.576402
 20
1.215775
 30
0.0
 10
0.569946
 20
1.205901
 30
0.0
 10
0.560388
 20
1.198052
 30
0.0
 10
0.547729
 20
1.192229
 30
0.0
  0
SPLINE
  5
1f8
100
AcDbEntity
  8
Layer_1
 62
7
100
AcDbSpline
 70
8
 71
3
 72
8
 73
4
 74
0
 40
0
 40
0
 40
0
 40
0
 40
1
 40
1
 40
1
 40
1
 10
0.547729
 20
1.192229
 30
0.0
 10
0.564186
 20
1.188431
 30
0.0
 10
0.576972
 20
1.180519
 30
0.0
 10
0.586086
 20
1.168493
 30
0.0
  0
SPLINE
  5
1f9
100
AcDbEntity
  8
Layer_1
 62
7
100
AcDbSpline
 70
8
 71
3
 72
8
 73
4
 74
0
 40
0
 40
0
 40
0
 40
0
 40
1
 40
1
 40
1
 40
1
 10
0.586086
 20
1.168493
 30
0.0
 10
0.595201
 20
1.156593
 30
0.0
 10
0.599758
 20
1.141655
 30
0.0
 10
0.599758
 20
1.123679
 30
0.0
  0
SPLINE
  5
1fa
100
AcDbEntity
  8
Layer_1
 62
7
100
AcDbSpline
 70
8
 71
3
 72
8
 73
4
 74
0
 40
0
 40
0
 40
0
 40
0
 40
1
 40
1
 40
1
 40
1
 10
0.599758
 20
1.123679
 30
0.0
 10
0.599758
 20
1.099374
 30
0.0
 10
0.590897
 20
1.078739
 30
0.0
 10
0.573174
 20
1.061776
 30
0.0
  0
SPLINE
  5
1fb
100
AcDbEntity
  8
Layer_1
 62
7
100
AcDbSpline
 70
8
 71
3
 72
8
 73
4
 74
0
 40
0
 40
0
 40
0
 40
0
 40
1
 40
1
 40
1
 40
1
 10
0.573174
 20
1.061776
 30
0.0
 10
0.555451
 20
1.044940
 30
0.0
 10
0.533045
 20
1.036521
 30
0.0
 10
0.505954
 20
1.036521
 30
0.0
  0
SPLINE
  5
1fc
100
AcDbEntity
  8
Layer_1
 62
7
100
AcDbSpline
 70
8
 71
3
 72
8
 73
4
 74
0
 40
0
 40
0
 40
0
 40
0
 40
1
 40
1
 40
1
 40
1
 10
0.505954
 20
1.036521
 30
0.0
 10
0.481522
 20
1.036521
 30
0.0
 10
0.461204
 20
1.043800
 30
0.0
 10
0.445000
 20
1.058358
 30
0.0
  0
SPLINE
  5
1fd
100
AcDbEntity
  8
Layer_1
 62
7
100
AcDbSpline
 70
8
 71
3
 72
8
 73
4
 74
0
 40
0
 40
0
 40
0
 40
0
 40
1
 40
1
 40
1
 40
1
 10
0.445000
 20
1.058358
 30
0.0
 10
0.428923
 20
1.072916
 30
0.0
 10
0.419745
 20
1.091778
 30
0.0
 10
0.417467
 20
1.114945
 30
0.0
  0
LINE
  5
1fe
100
AcDbEntity
  8
Layer_1
 62
7
100
AcDbLine
 10
0.417467
 20
1.114945
 30
0.0
 11
0.417467
 21
1.114943
 31
0.0
  0
SPLINE
  5
1ff
100
AcDbEntity
  8
Layer_1
 62
7
100
AcDbSpline
 70
8
 71
3
 72
8
 73
4
 74
0
 40
0
 40
0
 40
0
 40
0
 40
1
 40
1
 40
1
 40
1
 10
0.623142
 20
1.178745
 30
0.0
 10
0.623142
 20
1.211659
 30
0.0
 10
0.626496
 20
1.238116
 30
0.0
 10
0.633206
 20
1.258118
 30
0.0
  0
SPLINE
  5
200
100
AcDbEntity
  8
Layer_1
 62
7
100
AcDbSpline
 70
8
 71
3
 72
8
 73
4
 74
0
 40
0
 40
0
 40
0
 40
0
 40
1
 40
1
 40
1
 40
1
 10
0.633206
 20
1.258118
 30
0.0
 10
0.640042
 20
1.278246
 30
0.0
 10
0.650106
 20
1.293753
 30
0.0
 10
0.663398
 20
1.304640
 30
0.0
  0
SPLINE
  5
201
100
AcDbEntity
  8
Layer_1
 62
7
100
AcDbSpline
 70
8
 71
3
 72
8
 73
4
 74
0
 40
0
 40
0
 40
0
 40
0
 40
1
 40
1
 40
1
 40
1
 10
0.663398
 20
1.304640
 30
0.0
 10
0.676816
 20
1.315527
 30
0.0
 10
0.693653
 20
1.320970
 30
0.0
 10
0.713908
 20
1.320970
 30
0.0
  0
SPLINE
  5
202
100
AcDbEntity
  8
Layer_1
 62
7
100
AcDbSpline
 70
8
 71
3
 72
8
 73
4
 74
0
 40
0
 40
0
 40
0
 40
0
 40
1
 40
1
 40
1
 40
1
 10
0.713908
 20
1.320970
 30
0.0
 10
0.728846
 20
1.320970
 30
0.0
 10
0.741948
 20
1.317932
 30
0.0
 10
0.753214
 20
1.311856
 30
0.0
  0
SPLINE
  5
203
100
AcDbEntity
  8
Layer_1
 62
7
100
AcDbSpline
 70
8
 71
3
 72
8
 73
4
 74
0
 40
0
 40
0
 40
0
 40
0
 40
1
 40
1
 40
1
 40
1
 10
0.753214
 20
1.311856
 30
0.0
 10
0.764481
 20
1.305906
 30
0.0
 10
0.773786
 20
1.297234
 30
0.0
 10
0.781128
 20
1.285841
 30
0.0
  0
SPLINE
  5
204
100
AcDbEntity
  8
Layer_1
 62
7
100
AcDbSpline
 70
8
 71
3
 72
8
 73
4
 74
0
 40
0
 40
0
 40
0
 40
0
 40
1
 40
1
 40
1
 40
1
 10
0.781128
 20
1.285841
 30
0.0
 10
0.788470
 20
1.274575
 30
0.0
 10
0.794230
 20
1.260776
 30
0.0
 10
0.798408
 20
1.244446
 30
0.0
  0
SPLINE
  5
205
100
AcDbEntity
  8
Layer_1
 62
7
100
AcDbSpline
 70
8
 71
3
 72
8
 73
4
 74
0
 40
0
 40
0
 40
0
 40
0
 40
1
 40
1
 40
1
 40
1
 10
0.798408
 20
1.244446
 30
0.0
 10
0.802585
 20
1.228242
 30
0.0
 10
0.804674
 20
1.206342
 30
0.0
 10
0.804674
 20
1.178745
 30
0.0
  0
SPLINE
  5
206
100
AcDbEntity
  8
Layer_1
 62
7
100
AcDbSpline
 70
8
 71
3
 72
8
 73
4
 74
0
 40
0
 40
0
 40
0
 40
0
 40
1
 40
1
 40
1
 40
1
 10
0.804674
 20
1.178745
 30
0.0
 10
0.804674
 20
1.146084
 30
0.0
 10
0.801319
 20
1.119690
 30
0.0
 10
0.794610
 20
1.099562
 30
0.0
  0
SPLINE
  5
207
100
AcDbEntity
  8
Layer_1
 62
7
100
AcDbSpline
 70
8
 71
3
 72
8
 73
4
 74
0
 40
0
 40
0
 40
0
 40
0
 40
1
 40
1
 40
1
 40
1
 10
0.794610
 20
1.099562
 30
0.0
 10
0.787900
 20
1.079560
 30
0.0
 10
0.777836
 20
1.064053
 30
0.0
 10
0.764418
 20
1.053039
 30
0.0
  0
SPLINE
  5
208
100
AcDbEntity
  8
Layer_1
 62
7
100
AcDbSpline
 70
8
 71
3
 72
8
 73
4
 74
0
 40
0
 40
0
 40
0
 40
0
 40
1
 40
1
 40
1
 40
1
 10
0.764418
 20
1.053039
 30
0.0
 10
0.751126
 20
1.042153
 30
0.0
 10
0.734289
 20
1.036709
 30
0.0
 10
0.713908
 20
1.036709
 30
0.0
  0
SPLINE
  5
209
100
AcDbEntity
  8
Layer_1
 62
7
100
AcDbSpline
 70
8
 71
3
 72
8
 73
4
 74
0
 40
0
 40
0
 40
0
 40
0
 40
1
 40
1
 40
1
 40
1
 10
0.713908
 20
1.036709
 30
0.0
 10
0.687070
 20
1.036709
 30
0.0
 10
0.665993
 20
1.046330
 30
0.0
 10
0.650675
 20
1.065572
 30
0.0
  0
SPLINE
  5
20a
100
AcDbEntity
  8
Layer_1
 62
7
100
AcDbSpline
 70
8
 71
3
 72
8
 73
4
 74
0
 40
0
 40
0
 40
0
 40
0
 40
1
 40
1
 40
1
 40
1
 10
0.650675
 20
1.065572
 30
0.0
 10
0.632320
 20
1.088738
 30
0.0
 10
0.623142
 20
1.126463
 30
0.0
 10
0.623142
 20
1.178745
 30
0.0
  0
LINE
  5
20b
100
AcDbEntity
  8
Layer_1
 62
7
100
AcDbLine
 10
0.623142
 20
1.178745
 30
0.0
 11
0.623142
 21
1.178745
 31
0.0
  0
SPLINE
  5
20c
100
AcDbEntity
  8
Layer_1
 62
7
100
AcDbSpline
 70
8
 71
3
 72
8
 73
4
 74
0
 40
0
 40
0
 40
0
 40
0
 40
1
 40
1
 40
1
 40
1
 10
0.658271
 20
1.178745
 30
0.0
 10
0.658271
 20
1.133045
 30
0.0
 10
0.663588
 20
1.102600
 30
0.0
 10
0.674221
 20
1.087409
 30
0.0
  0
SPLINE
  5
20d
100
AcDbEntity
  8
Layer_1
 62
7
100
AcDbSpline
 70
8
 71
3
 72
8
 73
4
 74
0
 40
0
 40
0
 40
0
 40
0
 40
1
 40
1
 40
1
 40
1
 10
0.674221
 20
1.087409
 30
0.0
 10
0.684982
 20
1.072345
 30
0.0
 10
0.698210
 20
1.064812
 30
0.0
 10
0.713908
 20
1.064812
 30
0.0
  0
SPLINE
  5
20e
100
AcDbEntity
  8
Layer_1
 62
7
100
AcDbSpline
 70
8
 71
3
 72
8
 73
4
 74
0
 40
0
 40
0
 40
0
 40
0
 40
1
 40
1
 40
1
 40
1
 10
0.713908
 20
1.064812
 30
0.0
 10
0.729605
 20
1.064812
 30
0.0
 10
0.742771
 20
1.072408
 30
0.0
 10
0.753404
 20
1.087599
 30
0.0
  0
SPLINE
  5
20f
100
AcDbEntity
  8
Layer_1
 62
7
100
AcDbSpline
 70
8
 71
3
 72
8
 73
4
 74
0
 40
0
 40
0
 40
0
 40
0
 40
1
 40
1
 40
1
 40
1
 10
0.753404
 20
1.087599
 30
0.0
 10
0.764165
 20
1.102790
 30
0.0
 10
0.769545
 20
1.133172
 30
0.0
 10
0.769545
 20
1.178745
 30
0.0
  0
SPLINE
  5
210
100
AcDbEntity
  8
Layer_1
 62
7
100
AcDbSpline
 70
8
 71
3
 72
8
 73
4
 74
0
 40
0
 40
0
 40
0
 40
0
 40
1
 40
1
 40
1
 40
1
 10
0.769545
 20
1.178745
 30
0.0
 10
0.769545
 20
1.224571
 30
0.0
 10
0.764165
 20
1.255016
 30
0.0
 10
0.753404
 20
1.270081
 30
0.0
  0
SPLINE
  5
211
100
AcDbEntity
  8
Layer_1
 62
7
100
AcDbSpline
 70
8
 71
3
 72
8
 73
4
 74
0
 40
0
 40
0
 40
0
 40
0
 40
1
 40
1
 40
1
 40
1
 10
0.753404
 20
1.270081
 30
0.0
 10
0.742771
 20
1.285145
 30
0.0
 10
0.729479
 20
1.292677
 30
0.0
 10
0.713528
 20
1.292677
 30
0.0
  0
SPLINE
  5
212
100
AcDbEntity
  8
Layer_1
 62
7
100
AcDbSpline
 70
8
 71
3
 72
8
 73
4
 74
0
 40
0
 40
0
 40
0
 40
0
 40
1
 40
1
 40
1
 40
1
 10
0.713528
 20
1.292677
 30
0.0
 10
0.697831
 20
1.292677
 30
0.0
 10
0.685298
 20
1.286031
 30
0.0
 10
0.675930
 20
1.272739
 30
0.0
  0
SPLINE
  5
213
100
AcDbEntity
  8
Layer_1
 62
7
100
AcDbSpline
 70
8
 71
3
 72
8
 73
4
 74
0
 40
0
 40
0
 40
0
 40
0
 40
1
 40
1
 40
1
 40
1
 10
0.675930
 20
1.272739
 30
0.0
 10
0.664157
 20
1.255776
 30
0.0
 10
0.658271
 20
1.224444
 30
0.0
 10
0.658271
 20
1.178745
 30
0.0
  0
LINE
  5
214
100
AcDbEntity
  8
Layer_1
 62
7
100
AcDbLine
 10
0.658271
 20
1.178745
 30
0.0
 11
0.658271
 21
1.178745
 31
0.0
  0
LINE
  5
215
100
AcDbEntity
  8
Layer_1
 62
7
100
AcDbLine
 10
0.595486
 20
0.787242
 30
0.0
 11
0.561496
 21
0.784583
 31
0.0
  0
SPLINE
  5
216
100
AcDbEntity
  8
Layer_1
 62
7
100
AcDbSpline
 70
8
 71
3
 72
8
 73
4
 74
0
 40
0
 40
0
 40
0
 40
0
 40
1
 40
1
 40
1
 40
1
 10
0.561496
 20
0.784583
 30
0.0
 10
0.558458
 20
0.798002
 30
0.0
 10
0.554154
 20
0.807750
 30
0.0
 10
0.548584
 20
0.813826
 30
0.0
  0
SPLINE
  5
217
100
AcDbEntity
  8
Layer_1
 62
7
100
AcDbSpline
 70
8
 71
3
 72
8
 73
4
 74
0
 40
0
 40
0
 40
0
 40
0
 40
1
 40
1
 40
1
 40
1
 10
0.548584
 20
0.813826
 30
0.0
 10
0.539343
 20
0.823574
 30
0.0
 10
0.527949
 20
0.828447
 30
0.0
 10
0.514404
 20
0.828447
 30
0.0
  0
SPLINE
  5
218
100
AcDbEntity
  8
Layer_1
 62
7
100
AcDbSpline
 70
8
 71
3
 72
8
 73
4
 74
0
 40
0
 40
0
 40
0
 40
0
 40
1
 40
1
 40
1
 40
1
 10
0.514404
 20
0.828447
 30
0.0
 10
0.503517
 20
0.828447
 30
0.0
 10
0.493960
 20
0.825409
 30
0.0
 10
0.485731
 20
0.819333
 30
0.0
  0
SPLINE
  5
219
100
AcDbEntity
  8
Layer_1
 62
7
100
AcDbSpline
 70
8
 71
3
 72
8
 73
4
 74
0
 40
0
 40
0
 40
0
 40
0
 40
1
 40
1
 40
1
 40
1
 10
0.485731
 20
0.819333
 30
0.0
 10
0.474971
 20
0.811484
 30
0.0
 10
0.466489
 20
0.800027
 30
0.0
 10
0.460286
 20
0.784963
 30
0.0
  0
SPLINE
  5
21a
100
AcDbEntity
  8
Layer_1
 62
7
100
AcDbSpline
 70
8
 71
3
 72
8
 73
4
 74
0
 40
0
 40
0
 40
0
 40
0
 40
1
 40
1
 40
1
 40
1
 10
0.460286
 20
0.784963
 30
0.0
 10
0.454083
 20
0.769899
 30
0.0
 10
0.450855
 20
0.748441
 30
0.0
 10
0.450602
 20
0.720591
 30
0.0
  0
SPLINE
  5
21b
100
AcDbEntity
  8
Layer_1
 62
7
100
AcDbSpline
 70
8
 71
3
 72
8
 73
4
 74
0
 40
0
 40
0
 40
0
 40
0
 40
1
 40
1
 40
1
 40
1
 10
0.450602
 20
0.720591
 30
0.0
 10
0.458831
 20
0.733124
 30
0.0
 10
0.468895
 20
0.742428
 30
0.0
 10
0.480794
 20
0.748505
 30
0.0
  0
SPLINE
  5
21c
100
AcDbEntity
  8
Layer_1
 62
7
100
AcDbSpline
 70
8
 71
3
 72
8
 73
4
 74
0
 40
0
 40
0
 40
0
 40
0
 40
1
 40
1
 40
1
 40
1
 10
0.480794
 20
0.748505
 30
0.0
 10
0.492694
 20
0.754581
 30
0.0
 10
0.505163
 20
0.757619
 30
0.0
 10
0.518202
 20
0.757619
 30
0.0
  0
SPLINE
  5
21d
100
AcDbEntity
  8
Layer_1
 62
7
100
AcDbSpline
 70
8
 71
3
 72
8
 73
4
 74
0
 40
0
 40
0
 40
0
 40
0
 40
1
 40
1
 40
1
 40
1
 10
0.518202
 20
0.757619
 30
0.0
 10
0.540988
 20
0.757619
 30
0.0
 10
0.560357
 20
0.749201
 30
0.0
 10
0.576307
 20
0.732364
 30
0.0
  0
SPLINE
  5
21e
100
AcDbEntity
  8
Layer_1
 62
7
100
AcDbSpline
 70
8
 71
3
 72
8
 73
4
 74
0
 40
0
 40
0
 40
0
 40
0
 40
1
 40
1
 40
1
 40
1
 10
0.576307
 20
0.732364
 30
0.0
 10
0.592385
 20
0.715654
 30
0.0
 10
0.600423
 20
0.694007
 30
0.0
 10
0.600423
 20
0.667423
 30
0.0
  0
SPLINE
  5
21f
100
AcDbEntity
  8
Layer_1
 62
7
100
AcDbSpline
 70
8
 71
3
 72
8
 73
4
 74
0
 40
0
 40
0
 40
0
 40
0
 40
1
 40
1
 40
1
 40
1
 10
0.600423
 20
0.667423
 30
0.0
 10
0.600423
 20
0.649953
 30
0.0
 10
0.596625
 20
0.633686
 30
0.0
 10
0.589030
 20
0.618622
 30
0.0
  0
SPLINE
  5
220
100
AcDbEntity
  8
Layer_1
 62
7
100
AcDbSpline
 70
8
 71
3
 72
8
 73
4
 74
0
 40
0
 40
0
 40
0
 40
0
 40
1
 40
1
 40
1
 40
1
 10
0.589030
 20
0.618622
 30
0.0
 10
0.581561
 20
0.603684
 30
0.0
 10
0.571244
 20
0.592228
 30
0.0
 10
0.558078
 20
0.584252
 30
0.0
  0
SPLINE
  5
221
100
AcDbEntity
  8
Layer_1
 62
7
100
AcDbSpline
 70
8
 71
3
 72
8
 73
4
 74
0
 40
0
 40
0
 40
0
 40
0
 40
1
 40
1
 40
1
 40
1
 10
0.558078
 20
0.584252
 30
0.0
 10
0.544913
 20
0.576277
 30
0.0
 10
0.529975
 20
0.572289
 30
0.0
 10
0.513265
 20
0.572289
 30
0.0
  0
SPLINE
  5
222
100
AcDbEntity
  8
Layer_1
 62
7
100
AcDbSpline
 70
8
 71
3
 72
8
 73
4
 74
0
 40
0
 40
0
 40
0
 40
0
 40
1
 40
1
 40
1
 40
1
 10
0.513265
 20
0.572289
 30
0.0
 10
0.484782
 20
0.572289
 30
0.0
 10
0.461552
 20
0.582733
 30
0.0
 10
0.443576
 20
0.603621
 30
0.0
  0
SPLINE
  5
223
100
AcDbEntity
  8
Layer_1
 62
7
100
AcDbSpline
 70
8
 71
3
 72
8
 73
4
 74
0
 40
0
 40
0
 40
0
 40
0
 40
1
 40
1
 40
1
 40
1
 10
0.443576
 20
0.603621
 30
0.0
 10
0.425600
 20
0.624635
 30
0.0
 10
0.416612
 20
0.659195
 30
0.0
 10
0.416612
 20
0.707299
 30
0.0
  0
SPLINE
  5
224
100
AcDbEntity
  8
Layer_1
 62
7
100
AcDbSpline
 70
8
 71
3
 72
8
 73
4
 74
0
 40
0
 40
0
 40
0
 40
0
 40
1
 40
1
 40
1
 40
1
 10
0.416612
 20
0.707299
 30
0.0
 10
0.416612
 20
0.761101
 30
0.0
 10
0.426550
 20
0.800217
 30
0.0
 10
0.446425
 20
0.824650
 30
0.0
  0
SPLINE
  5
225
100
AcDbEntity
  8
Layer_1
 62
7
100
AcDbSpline
 70
8
 71
3
 72
8
 73
4
 74
0
 40
0
 40
0
 40
0
 40
0
 40
1
 40
1
 40
1
 40
1
 10
0.446425
 20
0.824650
 30
0.0
 10
0.463768
 20
0.845917
 30
0.0
 10
0.487124
 20
0.856551
 30
0.0
 10
0.516493
 20
0.856551
 30
0.0
  0
SPLINE
  5
226
100
AcDbEntity
  8
Layer_1
 62
7
100
AcDbSpline
 70
8
 71
3
 72
8
 73
4
 74
0
 40
0
 40
0
 40
0
 40
0
 40
1
 40
1
 40
1
 40
1
 10
0.516493
 20
0.856551
 30
0.0
 10
0.538393
 20
0.856551
 30
0.0
 10
0.556306
 20
0.850411
 30
0.0
 10
0.570231
 20
0.838132
 30
0.0
  0
SPLINE
  5
227
100
AcDbEntity
  8
Layer_1
 62
7
100
AcDbSpline
 70
8
 71
3
 72
8
 73
4
 74
0
 40
0
 40
0
 40
0
 40
0
 40
1
 40
1
 40
1
 40
1
 10
0.570231
 20
0.838132
 30
0.0
 10
0.584283
 20
0.825852
 30
0.0
 10
0.592701
 20
0.808889
 30
0.0
 10
0.595486
 20
0.787242
 30
0.0
  0
LINE
  5
228
100
AcDbEntity
  8
Layer_1
 62
7
100
AcDbLine
 10
0.595486
 20
0.787242
 30
0.0
 11
0.595486
 21
0.787242
 31
0.0
  0
SPLINE
  5
229
100
AcDbEntity
  8
Layer_1
 62
7
100
AcDbSpline
 70
8
 71
3
 72
8
 73
4
 74
0
 40
0
 40
0
 40
0
 40
0
 40
1
 40
1
 40
1
 40
1
 10
0.455919
 20
0.667233
 30
0.0
 10
0.455919
 20
0.655460
 30
0.0
 10
0.458387
 20
0.644193
 30
0.0
 10
0.463325
 20
0.633433
 30
0.0
  0
SPLINE
  5
22a
100
AcDbEntity
  8
Layer_1
 62
7
100
AcDbSpline
 70
8
 71
3
 72
8
 73
4
 74
0
 40
0
 40
0
 40
0
 40
0
 40
1
 40
1
 40
1
 40
1
 10
0.463325
 20
0.633433
 30
0.0
 10
0.468388
 20
0.622673
 30
0.0
 10
0.475414
 20
0.614444
 30
0.0
 10
0.484402
 20
0.608748
 30
0.0
  0
SPLINE
  5
22b
100
AcDbEntity
  8
Layer_1
 62
7
100
AcDbSpline
 70
8
 71
3
 72
8
 73
4
 74
0
 40
0
 40
0
 40
0
 40
0
 40
1
 40
1
 40
1
 40
1
 10
0.484402
 20
0.608748
 30
0.0
 10
0.493390
 20
0.603178
 30
0.0
 10
0.502821
 20
0.600393
 30
0.0
 10
0.512695
 20
0.600393
 30
0.0
  0
SPLINE
  5
22c
100
AcDbEntity
  8
Layer_1
 62
7
100
AcDbSpline
 70
8
 71
3
 72
8
 73
4
 74
0
 40
0
 40
0
 40
0
 40
0
 40
1
 40
1
 40
1
 40
1
 10
0.512695
 20
0.600393
 30
0.0
 10
0.527127
 20
0.600393
 30
0.0
 10
0.539533
 20
0.606216
 30
0.0
 10
0.549913
 20
0.617862
 30
0.0
  0
SPLINE
  5
22d
100
AcDbEntity
  8
Layer_1
 62
7
100
AcDbSpline
 70
8
 71
3
 72
8
 73
4
 74
0
 40
0
 40
0
 40
0
 40
0
 40
1
 40
1
 40
1
 40
1
 10
0.549913
 20
0.617862
 30
0.0
 10
0.560294
 20
0.629509
 30
0.0
 10
0.565484
 20
0.645333
 30
0.0
 10
0.565484
 20
0.665334
 30
0.0
  0
SPLINE
  5
22e
100
AcDbEntity
  8
Layer_1
 62
7
100
AcDbSpline
 70
8
 71
3
 72
8
 73
4
 74
0
 40
0
 40
0
 40
0
 40
0
 40
1
 40
1
 40
1
 40
1
 10
0.565484
 20
0.665334
 30
0.0
 10
0.565484
 20
0.684576
 30
0.0
 10
0.560357
 20
0.699704
 30
0.0
 10
0.550103
 20
0.710717
 30
0.0
  0
SPLINE
  5
22f
100
AcDbEntity
  8
Layer_1
 62
7
100
AcDbSpline
 70
8
 71
3
 72
8
 73
4
 74
0
 40
0
 40
0
 40
0
 40
0
 40
1
 40
1
 40
1
 40
1
 10
0.550103
 20
0.710717
 30
0.0
 10
0.539849
 20
0.721857
 30
0.0
 10
0.526937
 20
0.727427
 30
0.0
 10
0.511366
 20
0.727427
 30
0.0
  0
SPLINE
  5
230
100
AcDbEntity
  8
Layer_1
 62
7
100
AcDbSpline
 70
8
 71
3
 72
8
 73
4
 74
0
 40
0
 40
0
 40
0
 40
0
 40
1
 40
1
 40
1
 40
1
 10
0.511366
 20
0.727427
 30
0.0
 10
0.495922
 20
0.727427
 30
0.0
 10
0.482820
 20
0.721857
 30
0.0
 10
0.472059
 20
0.710717
 30
0.0
  0
SPLINE
  5
231
100
AcDbEntity
  8
Layer_1
 62
7
100
AcDbSpline
 70
8
 71
3
 72
8
 73
4
 74
0
 40
0
 40
0
 40
0
 40
0
 40
1
 40
1
 40
1
 40
1
 10
0.472059
 20
0.710717
 30
0.0
 10
0.461299
 20
0.699704
 30
0.0
 10
0.455919
 20
0.685209
 30
0.0
 10
0.455919
 20
0.667233
 30
0.0
  0
LINE
  5
232
100
AcDbEntity
  8
Layer_1
 62
7
100
AcDbLine
 10
0.455919
 20
0.667233
 30
0.0
 11
0.455919
 21
0.667233
 31
0.0
  0
SPLINE
  5
233
100
AcDbEntity
  8
Layer_1
 62
7
100
AcDbSpline
 70
8
 71
3
 72
8
 73
4
 74
0
 40
0
 40
0
 40
0
 40
0
 40
1
 40
1
 40
1
 40
1
 10
0.623996
 20
0.714325
 30
0.0
 10
0.623996
 20
0.747239
 30
0.0
 10
0.627351
 20
0.773696
 30
0.0
 10
0.634060
 20
0.793698
 30
0.0
  0
SPLINE
  5
234
100
AcDbEntity
  8
Layer_1
 62
7
100
AcDbSpline
 70
8
 71
3
 72
8
 73
4
 74
0
 40
0
 40
0
 40
0
 40
0
 40
1
 40
1
 40
1
 40
1
 10
0.634060
 20
0.793698
 30
0.0
 10
0.640896
 20
0.813826
 30
0.0
 10
0.650960
 20
0.829333
 30
0.0
 10
0.664252
 20
0.840220
 30
0.0
  0
SPLINE
  5
235
100
AcDbEntity
  8
Layer_1
 62
7
100
AcDbSpline
 70
8
 71
3
 72
8
 73
4
 74
0
 40
0
 40
0
 40
0
 40
0
 40
1
 40
1
 40
1
 40
1
 10
0.664252
 20
0.840220
 30
0.0
 10
0.677671
 20
0.851107
 30
0.0
 10
0.694508
 20
0.856550
 30
0.0
 10
0.714762
 20
0.856550
 30
0.0
  0
SPLINE
  5
236
100
AcDbEntity
  8
Layer_1
 62
7
100
AcDbSpline
 70
8
 71
3
 72
8
 73
4
 74
0
 40
0
 40
0
 40
0
 40
0
 40
1
 40
1
 40
1
 40
1
 10
0.714762
 20
0.856550
 30
0.0
 10
0.729700
 20
0.856550
 30
0.0
 10
0.742802
 20
0.853512
 30
0.0
 10
0.754069
 20
0.847436
 30
0.0
  0
SPLINE
  5
237
100
AcDbEntity
  8
Layer_1
 62
7
100
AcDbSpline
 70
8
 71
3
 72
8
 73
4
 74
0
 40
0
 40
0
 40
0
 40
0
 40
1
 40
1
 40
1
 40
1
 10
0.754069
 20
0.847436
 30
0.0
 10
0.765336
 20
0.841486
 30
0.0
 10
0.774640
 20
0.832815
 30
0.0
 10
0.781982
 20
0.821421
 30
0.0
  0
SPLINE
  5
238
100
AcDbEntity
  8
Layer_1
 62
7
100
AcDbSpline
 70
8
 71
3
 72
8
 73
4
 74
0
 40
0
 40
0
 40
0
 40
0
 40
1
 40
1
 40
1
 40
1
 10
0.781982
 20
0.821421
 30
0.0
 10
0.789325
 20
0.810155
 30
0.0
 10
0.795085
 20
0.796356
 30
0.0
 10
0.799262
 20
0.780026
 30
0.0
  0
SPLINE
  5
239
100
AcDbEntity
  8
Layer_1
 62
7
100
AcDbSpline
 70
8
 71
3
 72
8
 73
4
 74
0
 40
0
 40
0
 40
0
 40
0
 40
1
 40
1
 40
1
 40
1
 10
0.799262
 20
0.780026
 30
0.0
 10
0.803440
 20
0.763822
 30
0.0
 10
0.805528
 20
0.741922
 30
0.0
 10
0.805528
 20
0.714325
 30
0.0
  0
SPLINE
  5
23a
100
AcDbEntity
  8
Layer_1
 62
7
100
AcDbSpline
 70
8
 71
3
 72
8
 73
4
 74
0
 40
0
 40
0
 40
0
 40
0
 40
1
 40
1
 40
1
 40
1
 10
0.805528
 20
0.714325
 30
0.0
 10
0.805528
 20
0.681664
 30
0.0
 10
0.802174
 20
0.655270
 30
0.0
 10
0.795464
 20
0.635142
 30
0.0
  0
SPLINE
  5
23b
100
AcDbEntity
  8
Layer_1
 62
7
100
AcDbSpline
 70
8
 71
3
 72
8
 73
4
 74
0
 40
0
 40
0
 40
0
 40
0
 40
1
 40
1
 40
1
 40
1
 10
0.795464
 20
0.635142
 30
0.0
 10
0.788755
 20
0.615141
 30
0.0
 10
0.778691
 20
0.599633
 30
0.0
 10
0.765272
 20
0.588620
 30
0.0
  0
SPLINE
  5
23c
100
AcDbEntity
  8
Layer_1
 62
7
100
AcDbSpline
 70
8
 71
3
 72
8
 73
4
 74
0
 40
0
 40
0
 40
0
 40
0
 40
1
 40
1
 40
1
 40
1
 10
0.765272
 20
0.588620
 30
0.0
 10
0.751980
 20
0.577733
 30
0.0
 10
0.735144
 20
0.572289
 30
0.0
 10
0.714762
 20
0.572289
 30
0.0
  0
SPLINE
  5
23d
100
AcDbEntity
  8
Layer_1
 62
7
100
AcDbSpline
 70
8
 71
3
 72
8
 73
4
 74
0
 40
0
 40
0
 40
0
 40
0
 40
1
 40
1
 40
1
 40
1
 10
0.714762
 20
0.572289
 30
0.0
 10
0.687925
 20
0.572289
 30
0.0
 10
0.666847
 20
0.581910
 30
0.0
 10
0.651530
 20
0.601152
 30
0.0
  0
SPLINE
  5
23e
100
AcDbEntity
  8
Layer_1
 62
7
100
AcDbSpline
 70
8
 71
3
 72
8
 73
4
 74
0
 40
0
 40
0
 40
0
 40
0
 40
1
 40
1
 40
1
 40
1
 10
0.651530
 20
0.601152
 30
0.0
 10
0.633174
 20
0.624318
 30
0.0
 10
0.623996
 20
0.662043
 30
0.0
 10
0.623996
 20
0.714325
 30
0.0
  0
LINE
  5
23f
100
AcDbEntity
  8
Layer_1
 62
7
100
AcDbLine
 10
0.623996
 20
0.714325
 30
0.0
 11
0.623996
 21
0.714325
 31
0.0
  0
SPLINE
  5
240
100
AcDbEntity
  8
Layer_1
 62
7
100
AcDbSpline
 70
8
 71
3
 72
8
 73
4
 74
0
 40
0
 40
0
 40
0
 40
0
 40
1
 40
1
 40
1
 40
1
 10
0.659125
 20
0.714325
 30
0.0
 10
0.659125
 20
0.668625
 30
0.0
 10
0.664442
 20
0.638180
 30
0.0
 10
0.675076
 20
0.622989
 30
0.0
  0
SPLINE
  5
241
100
AcDbEntity
  8
Layer_1
 62
7
100
AcDbSpline
 70
8
 71
3
 72
8
 73
4
 74
0
 40
0
 40
0
 40
0
 40
0
 40
1
 40
1
 40
1
 40
1
 10
0.675076
 20
0.622989
 30
0.0
 10
0.685836
 20
0.607925
 30
0.0
 10
0.699065
 20
0.600393
 30
0.0
 10
0.714762
 20
0.600393
 30
0.0
  0
SPLINE
  5
242
100
AcDbEntity
  8
Layer_1
 62
7
100
AcDbSpline
 70
8
 71
3
 72
8
 73
4
 74
0
 40
0
 40
0
 40
0
 40
0
 40
1
 40
1
 40
1
 40
1
 10
0.714762
 20
0.600393
 30
0.0
 10
0.730460
 20
0.600393
 30
0.0
 10
0.743625
 20
0.607988
 30
0.0
 10
0.754259
 20
0.623179
 30
0.0
  0
SPLINE
  5
243
100
AcDbEntity
  8
Layer_1
 62
7
100
AcDbSpline
 70
8
 71
3
 72
8
 73
4
 74
0
 40
0
 40
0
 40
0
 40
0
 40
1
 40
1
 40
1
 40
1
 10
0.754259
 20
0.623179
 30
0.0
 10
0.765019
 20
0.638370
 30
0.0
 10
0.770399
 20
0.668752
 30
0.0
 10
0.770399
 20
0.714325
 30
0.0
  0
SPLINE
  5
244
100
AcDbEntity
  8
Layer_1
 62
7
100
AcDbSpline
 70
8
 71
3
 72
8
 73
4
 74
0
 40
0
 40
0
 40
0
 40
0
 40
1
 40
1
 40
1
 40
1
 10
0.770399
 20
0.714325
 30
0.0
 10
0.770399
 20
0.760151
 30
0.0
 10
0.765019
 20
0.790596
 30
0.0
 10
0.754259
 20
0.805661
 30
0.0
  0
SPLINE
  5
245
100
AcDbEntity
  8
Layer_1
 62
7
100
AcDbSpline
 70
8
 71
3
 72
8
 73
4
 74
0
 40
0
 40
0
 40
0
 40
0
 40
1
 40
1
 40
1
 40
1
 10
0.754259
 20
0.805661
 30
0.0
 10
0.743625
 20
0.820725
 30
0.0
 10
0.730333
 20
0.828257
 30
0.0
 10
0.714383
 20
0.828257
 30
0.0
  0
SPLINE
  5
246
100
AcDbEntity
  8
Layer_1
 62
7
100
AcDbSpline
 70
8
 71
3
 72
8
 73
4
 74
0
 40
0
 40
0
 40
0
 40
0
 40
1
 40
1
 40
1
 40
1
 10
0.714383
 20
0.828257
 30
0.0
 10
0.698685
 20
0.828257
 30
0.0
 10
0.686153
 20
0.821611
 30
0.0
 10
0.676785
 20
0.808319
 30
0.0
  0
SPLINE
  5
247
100
AcDbEntity
  8
Layer_1
 62
7
100
AcDbSpline
 70
8
 71
3
 72
8
 73
4
 74
0
 40
0
 40
0
 40
0
 40
0
 40
1
 40
1
 40
1
 40
1
 10
0.676785
 20
0.808319
 30
0.0
 10
0.665012
 20
0.791356
 30
0.0
 10
0.659125
 20
0.760024
 30
0.0
 10
0.659125
 20
0.714325
 30
0.0
  0
LINE
  5
248
100
AcDbEntity
  8
Layer_1
 62
7
100
AcDbLine
 10
0.659125
 20
0.714325
 30
0.0
 11
0.659125
 21
0.714325
 31
0.0
  0
LINE
  5
249
100
AcDbEntity
  8
Layer_1
 62
7
100
AcDbLine
 10
0.422499
 20
0.176988
 30
0.0
 11
0.455349
 21
0.180027
 31
0.0
  0
SPLINE
  5
24a
100
AcDbEntity
  8
Layer_1
 62
7
100
AcDbSpline
 70
8
 71
3
 72
8
 73
4
 74
0
 40
0
 40
0
 40
0
 40
0
 40
1
 40
1
 40
1
 40
1
 10
0.455349
 20
0.180027
 30
0.0
 10
0.458134
 20
0.164582
 30
0.0
 10
0.463451
 20
0.153379
 30
0.0
 10
0.471300
 20
0.146417
 30
0.0
  0
SPLINE
  5
24b
100
AcDbEntity
  8
Layer_1
 62
7
100
AcDbSpline
 70
8
 71
3
 72
8
 73
4
 74
0
 40
0
 40
0
 40
0
 40
0
 40
1
 40
1
 40
1
 40
1
 10
0.471300
 20
0.146417
 30
0.0
 10
0.479148
 20
0.139454
 30
0.0
 10
0.489213
 20
0.135973
 30
0.0
 10
0.501492
 20
0.135973
 30
0.0
  0
SPLINE
  5
24c
100
AcDbEntity
  8
Layer_1
 62
7
100
AcDbSpline
 70
8
 71
3
 72
8
 73
4
 74
0
 40
0
 40
0
 40
0
 40
0
 40
1
 40
1
 40
1
 40
1
 10
0.501492
 20
0.135973
 30
0.0
 10
0.511999
 20
0.135973
 30
0.0
 10
0.521177
 20
0.138378
 30
0.0
 10
0.529026
 20
0.143188
 30
0.0
  0
SPLINE
  5
24d
100
AcDbEntity
  8
Layer_1
 62
7
100
AcDbSpline
 70
8
 71
3
 72
8
 73
4
 74
0
 40
0
 40
0
 40
0
 40
0
 40
1
 40
1
 40
1
 40
1
 10
0.529026
 20
0.143188
 30
0.0
 10
0.537001
 20
0.147999
 30
0.0
 10
0.543520
 20
0.154392
 30
0.0
 10
0.548584
 20
0.162367
 30
0.0
  0
SPLINE
  5
24e
100
AcDbEntity
  8
Layer_1
 62
7
100
AcDbSpline
 70
8
 71
3
 72
8
 73
4
 74
0
 40
0
 40
0
 40
0
 40
0
 40
1
 40
1
 40
1
 40
1
 10
0.548584
 20
0.162367
 30
0.0
 10
0.553648
 20
0.170469
 30
0.0
 10
0.557888
 20
0.181356
 30
0.0
 10
0.561306
 20
0.195028
 30
0.0
  0
SPLINE
  5
24f
100
AcDbEntity
  8
Layer_1
 62
7
100
AcDbSpline
 70
8
 71
3
 72
8
 73
4
 74
0
 40
0
 40
0
 40
0
 40
0
 40
1
 40
1
 40
1
 40
1
 10
0.561306
 20
0.195028
 30
0.0
 10
0.564724
 20
0.208700
 30
0.0
 10
0.566433
 20
0.222625
 30
0.0
 10
0.566433
 20
0.236803
 30
0.0
  0
SPLINE
  5
250
100
AcDbEntity
  8
Layer_1
 62
7
100
AcDbSpline
 70
8
 71
3
 72
8
 73
4
 74
0
 40
0
 40
0
 40
0
 40
0
 40
1
 40
1
 40
1
 40
1
 10
0.566433
 20
0.236803
 30
0.0
 10
0.566433
 20
0.238322
 30
0.0
 10
0.566370
 20
0.240601
 30
0.0
 10
0.566244
 20
0.243639
 30
0.0
  0
SPLINE
  5
251
100
AcDbEntity
  8
Layer_1
 62
7
100
AcDbSpline
 70
8
 71
3
 72
8
 73
4
 74
0
 40
0
 40
0
 40
0
 40
0
 40
1
 40
1
 40
1
 40
1
 10
0.566244
 20
0.243639
 30
0.0
 10
0.559408
 20
0.232752
 30
0.0
 10
0.550041
 20
0.223891
 30
0.0
 10
0.538141
 20
0.217055
 30
0.0
  0
SPLINE
  5
252
100
AcDbEntity
  8
Layer_1
 62
7
100
AcDbSpline
 70
8
 71
3
 72
8
 73
4
 74
0
 40
0
 40
0
 40
0
 40
0
 40
1
 40
1
 40
1
 40
1
 10
0.538141
 20
0.217055
 30
0.0
 10
0.526368
 20
0.210345
 30
0.0
 10
0.513582
 20
0.206991
 30
0.0
 10
0.499784
 20
0.206991
 30
0.0
  0
SPLINE
  5
253
100
AcDbEntity
  8
Layer_1
 62
7
100
AcDbSpline
 70
8
 71
3
 72
8
 73
4
 74
0
 40
0
 40
0
 40
0
 40
0
 40
1
 40
1
 40
1
 40
1
 10
0.499784
 20
0.206991
 30
0.0
 10
0.476744
 20
0.206991
 30
0.0
 10
0.457249
 20
0.215346
 30
0.0
 10
0.441299
 20
0.232056
 30
0.0
  0
SPLINE
  5
254
100
AcDbEntity
  8
Layer_1
 62
7
100
AcDbSpline
 70
8
 71
3
 72
8
 73
4
 74
0
 40
0
 40
0
 40
0
 40
0
 40
1
 40
1
 40
1
 40
1
 10
0.441299
 20
0.232056
 30
0.0
 10
0.425348
 20
0.248766
 30
0.0
 10
0.417373
 20
0.270793
 30
0.0
 10
0.417373
 20
0.298136
 30
0.0
  0
SPLINE
  5
255
100
AcDbEntity
  8
Layer_1
 62
7
100
AcDbSpline
 70
8
 71
3
 72
8
 73
4
 74
0
 40
0
 40
0
 40
0
 40
0
 40
1
 40
1
 40
1
 40
1
 10
0.417373
 20
0.298136
 30
0.0
 10
0.417373
 20
0.326366
 30
0.0
 10
0.425665
 20
0.349089
 30
0.0
 10
0.442248
 20
0.366306
 30
0.0
  0
SPLINE
  5
256
100
AcDbEntity
  8
Layer_1
 62
7
100
AcDbSpline
 70
8
 71
3
 72
8
 73
4
 74
0
 40
0
 40
0
 40
0
 40
0
 40
1
 40
1
 40
1
 40
1
 10
0.442248
 20
0.366306
 30
0.0
 10
0.458958
 20
0.383522
 30
0.0
 10
0.479846
 20
0.392131
 30
0.0
 10
0.504911
 20
0.392131
 30
0.0
  0
SPLINE
  5
257
100
AcDbEntity
  8
Layer_1
 62
7
100
AcDbSpline
 70
8
 71
3
 72
8
 73
4
 74
0
 40
0
 40
0
 40
0
 40
0
 40
1
 40
1
 40
1
 40
1
 10
0.504911
 20
0.392131
 30
0.0
 10
0.523013
 20
0.392131
 30
0.0
 10
0.539534
 20
0.387257
 30
0.0
 10
0.554471
 20
0.377509
 30
0.0
  0
SPLINE
  5
258
100
AcDbEntity
  8
Layer_1
 62
7
100
AcDbSpline
 70
8
 71
3
 72
8
 73
4
 74
0
 40
0
 40
0
 40
0
 40
0
 40
1
 40
1
 40
1
 40
1
 10
0.554471
 20
0.377509
 30
0.0
 10
0.569536
 20
0.367762
 30
0.0
 10
0.580929
 20
0.353837
 30
0.0
 10
0.588651
 20
0.335734
 30
0.0
  0
SPLINE
  5
259
100
AcDbEntity
  8
Layer_1
 62
7
100
AcDbSpline
 70
8
 71
3
 72
8
 73
4
 74
0
 40
0
 40
0
 40
0
 40
0
 40
1
 40
1
 40
1
 40
1
 10
0.588651
 20
0.335734
 30
0.0
 10
0.596500
 20
0.317758
 30
0.0
 10
0.600424
 20
0.291680
 30
0.0
 10
0.600424
 20
0.257501
 30
0.0
  0
SPLINE
  5
25a
100
AcDbEntity
  8
Layer_1
 62
7
100
AcDbSpline
 70
8
 71
3
 72
8
 73
4
 74
0
 40
0
 40
0
 40
0
 40
0
 40
1
 40
1
 40
1
 40
1
 10
0.600424
 20
0.257501
 30
0.0
 10
0.600424
 20
0.221928
 30
0.0
 10
0.596563
 20
0.193572
 30
0.0
 10
0.588841
 20
0.172431
 30
0.0
  0
SPLINE
  5
25b
100
AcDbEntity
  8
Layer_1
 62
7
100
AcDbSpline
 70
8
 71
3
 72
8
 73
4
 74
0
 40
0
 40
0
 40
0
 40
0
 40
1
 40
1
 40
1
 40
1
 10
0.588841
 20
0.172431
 30
0.0
 10
0.581119
 20
0.151417
 30
0.0
 10
0.569599
 20
0.135403
 30
0.0
 10
0.554281
 20
0.124390
 30
0.0
  0
SPLINE
  5
25c
100
AcDbEntity
  8
Layer_1
 62
7
100
AcDbSpline
 70
8
 71
3
 72
8
 73
4
 74
0
 40
0
 40
0
 40
0
 40
0
 40
1
 40
1
 40
1
 40
1
 10
0.554281
 20
0.124390
 30
0.0
 10
0.539090
 20
0.113376
 30
0.0
 10
0.521241
 20
0.107869
 30
0.0
 10
0.500733
 20
0.107869
 30
0.0
  0
SPLINE
  5
25d
100
AcDbEntity
  8
Layer_1
 62
7
100
AcDbSpline
 70
8
 71
3
 72
8
 73
4
 74
0
 40
0
 40
0
 40
0
 40
0
 40
1
 40
1
 40
1
 40
1
 10
0.500733
 20
0.107869
 30
0.0
 10
0.478960
 20
0.107869
 30
0.0
 10
0.461173
 20
0.113883
 30
0.0
 10
0.447375
 20
0.125909
 30
0.0
  0
SPLINE
  5
25e
100
AcDbEntity
  8
Layer_1
 62
7
100
AcDbSpline
 70
8
 71
3
 72
8
 73
4
 74
0
 40
0
 40
0
 40
0
 40
0
 40
1
 40
1
 40
1
 40
1
 10
0.447375
 20
0.125909
 30
0.0
 10
0.433576
 20
0.138062
 30
0.0
 10
0.425285
 20
0.155088
 30
0.0
 10
0.422500
 20
0.176988
 30
0.0
  0
LINE
  5
25f
100
AcDbEntity
  8
Layer_1
 62
7
100
AcDbLine
 10
0.422500
 20
0.176988
 30
0.0
 11
0.422499
 21
0.176988
 31
0.0
  0
SPLINE
  5
260
100
AcDbEntity
  8
Layer_1
 62
7
100
AcDbSpline
 70
8
 71
3
 72
8
 73
4
 74
0
 40
0
 40
0
 40
0
 40
0
 40
1
 40
1
 40
1
 40
1
 10
0.562446
 20
0.299845
 30
0.0
 10
0.562446
 20
0.319467
 30
0.0
 10
0.557192
 20
0.335038
 30
0.0
 10
0.546685
 20
0.346558
 30
0.0
  0
SPLINE
  5
261
100
AcDbEntity
  8
Layer_1
 62
7
100
AcDbSpline
 70
8
 71
3
 72
8
 73
4
 74
0
 40
0
 40
0
 40
0
 40
0
 40
1
 40
1
 40
1
 40
1
 10
0.546685
 20
0.346558
 30
0.0
 10
0.536305
 20
0.358077
 30
0.0
 10
0.523772
 20
0.363837
 30
0.0
 10
0.509087
 20
0.363837
 30
0.0
  0
SPLINE
  5
262
100
AcDbEntity
  8
Layer_1
 62
7
100
AcDbSpline
 70
8
 71
3
 72
8
 73
4
 74
0
 40
0
 40
0
 40
0
 40
0
 40
1
 40
1
 40
1
 40
1
 10
0.509087
 20
0.363837
 30
0.0
 10
0.493896
 20
0.363837
 30
0.0
 10
0.480668
 20
0.357634
 30
0.0
 10
0.469401
 20
0.345228
 30
0.0
  0
SPLINE
  5
263
100
AcDbEntity
  8
Layer_1
 62
7
100
AcDbSpline
 70
8
 71
3
 72
8
 73
4
 74
0
 40
0
 40
0
 40
0
 40
0
 40
1
 40
1
 40
1
 40
1
 10
0.469401
 20
0.345228
 30
0.0
 10
0.458134
 20
0.332822
 30
0.0
 10
0.452501
 20
0.316745
 30
0.0
 10
0.452501
 20
0.296997
 30
0.0
  0
SPLINE
  5
264
100
AcDbEntity
  8
Layer_1
 62
7
100
AcDbSpline
 70
8
 71
3
 72
8
 73
4
 74
0
 40
0
 40
0
 40
0
 40
0
 40
1
 40
1
 40
1
 40
1
 10
0.452501
 20
0.296997
 30
0.0
 10
0.452501
 20
0.279274
 30
0.0
 10
0.457818
 20
0.264843
 30
0.0
 10
0.468451
 20
0.253703
 30
0.0
  0
SPLINE
  5
265
100
AcDbEntity
  8
Layer_1
 62
7
100
AcDbSpline
 70
8
 71
3
 72
8
 73
4
 74
0
 40
0
 40
0
 40
0
 40
0
 40
1
 40
1
 40
1
 40
1
 10
0.468451
 20
0.253703
 30
0.0
 10
0.479212
 20
0.242689
 30
0.0
 10
0.492441
 20
0.237183
 30
0.0
 10
0.508138
 20
0.237183
 30
0.0
  0
SPLINE
  5
266
100
AcDbEntity
  8
Layer_1
 62
7
100
AcDbSpline
 70
8
 71
3
 72
8
 73
4
 74
0
 40
0
 40
0
 40
0
 40
0
 40
1
 40
1
 40
1
 40
1
 10
0.508138
 20
0.237183
 30
0.0
 10
0.523962
 20
0.237183
 30
0.0
 10
0.536937
 20
0.242689
 30
0.0
 10
0.547065
 20
0.253703
 30
0.0
  0
SPLINE
  5
267
100
AcDbEntity
  8
Layer_1
 62
7
100
AcDbSpline
 70
8
 71
3
 72
8
 73
4
 74
0
 40
0
 40
0
 40
0
 40
0
 40
1
 40
1
 40
1
 40
1
 10
0.547065
 20
0.253703
 30
0.0
 10
0.557319
 20
0.264843
 30
0.0
 10
0.562446
 20
0.280224
 30
0.0
 10
0.562446
 20
0.299845
 30
0.0
  0
LINE
  5
268
100
AcDbEntity
  8
Layer_1
 62
7
100
AcDbLine
 10
0.562446
 20
0.299845
 30
0.0
 11
0.562446
 21
0.299845
 31
0.0
  0
SPLINE
  5
269
100
AcDbEntity
  8
Layer_1
 62
7
100
AcDbSpline
 70
8
 71
3
 72
8
 73
4
 74
0
 40
0
 40
0
 40
0
 40
0
 40
1
 40
1
 40
1
 40
1
 10
0.623237
 20
0.249905
 30
0.0
 10
0.623237
 20
0.282819
 30
0.0
 10
0.626591
 20
0.309276
 30
0.0
 10
0.633301
 20
0.329278
 30
0.0
  0
SPLINE
  5
26a
100
AcDbEntity
  8
Layer_1
 62
7
100
AcDbSpline
 70
8
 71
3
 72
8
 73
4
 74
0
 40
0
 40
0
 40
0
 40
0
 40
1
 40
1
 40
1
 40
1
 10
0.633301
 20
0.329278
 30
0.0
 10
0.640137
 20
0.349406
 30
0.0
 10
0.650201
 20
0.364913
 30
0.0
 10
0.663493
 20
0.375800
 30
0.0
  0
SPLINE
  5
26b
100
AcDbEntity
  8
Layer_1
 62
7
100
AcDbSpline
 70
8
 71
3
 72
8
 73
4
 74
0
 40
0
 40
0
 40
0
 40
0
 40
1
 40
1
 40
1
 40
1
 10
0.663493
 20
0.375800
 30
0.0
 10
0.676911
 20
0.386687
 30
0.0
 10
0.693748
 20
0.392131
 30
0.0
 10
0.714003
 20
0.392131
 30
0.0
  0
SPLINE
  5
26c
100
AcDbEntity
  8
Layer_1
 62
7
100
AcDbSpline
 70
8
 71
3
 72
8
 73
4
 74
0
 40
0
 40
0
 40
0
 40
0
 40
1
 40
1
 40
1
 40
1
 10
0.714003
 20
0.392131
 30
0.0
 10
0.728941
 20
0.392131
 30
0.0
 10
0.742043
 20
0.389092
 30
0.0
 10
0.753309
 20
0.383016
 30
0.0
  0
SPLINE
  5
26d
100
AcDbEntity
  8
Layer_1
 62
7
100
AcDbSpline
 70
8
 71
3
 72
8
 73
4
 74
0
 40
0
 40
0
 40
0
 40
0
 40
1
 40
1
 40
1
 40
1
 10
0.753309
 20
0.383016
 30
0.0
 10
0.764576
 20
0.377066
 30
0.0
 10
0.773881
 20
0.368395
 30
0.0
 10
0.781223
 20
0.357001
 30
0.0
  0
SPLINE
  5
26e
100
AcDbEntity
  8
Layer_1
 62
7
100
AcDbSpline
 70
8
 71
3
 72
8
 73
4
 74
0
 40
0
 40
0
 40
0
 40
0
 40
1
 40
1
 40
1
 40
1
 10
0.781223
 20
0.357001
 30
0.0
 10
0.788565
 20
0.345735
 30
0.0
 10
0.794325
 20
0.331936
 30
0.0
 10
0.798503
 20
0.315606
 30
0.0
  0
SPLINE
  5
26f
100
AcDbEntity
  8
Layer_1
 62
7
100
AcDbSpline
 70
8
 71
3
 72
8
 73
4
 74
0
 40
0
 40
0
 40
0
 40
0
 40
1
 40
1
 40
1
 40
1
 10
0.798503
 20
0.315606
 30
0.0
 10
0.802680
 20
0.299402
 30
0.0
 10
0.804769
 20
0.277502
 30
0.0
 10
0.804769
 20
0.249905
 30
0.0
  0
SPLINE
  5
270
100
AcDbEntity
  8
Layer_1
 62
7
100
AcDbSpline
 70
8
 71
3
 72
8
 73
4
 74
0
 40
0
 40
0
 40
0
 40
0
 40
1
 40
1
 40
1
 40
1
 10
0.804769
 20
0.249905
 30
0.0
 10
0.804769
 20
0.217244
 30
0.0
 10
0.801414
 20
0.190850
 30
0.0
 10
0.794705
 20
0.170722
 30
0.0
  0
SPLINE
  5
271
100
AcDbEntity
  8
Layer_1
 62
7
100
AcDbSpline
 70
8
 71
3
 72
8
 73
4
 74
0
 40
0
 40
0
 40
0
 40
0
 40
1
 40
1
 40
1
 40
1
 10
0.794705
 20
0.170722
 30
0.0
 10
0.787995
 20
0.150721
 30
0.0
 10
0.777931
 20
0.135213
 30
0.0
 10
0.764513
 20
0.124200
 30
0.0
  0
SPLINE
  5
272
100
AcDbEntity
  8
Layer_1
 62
7
100
AcDbSpline
 70
8
 71
3
 72
8
 73
4
 74
0
 40
0
 40
0
 40
0
 40
0
 40
1
 40
1
 40
1
 40
1
 10
0.764513
 20
0.124200
 30
0.0
 10
0.751221
 20
0.113313
 30
0.0
 10
0.734384
 20
0.107869
 30
0.0
 10
0.714003
 20
0.107869
 30
0.0
  0
SPLINE
  5
273
100
AcDbEntity
  8
Layer_1
 62
7
100
AcDbSpline
 70
8
 71
3
 72
8
 73
4
 74
0
 40
0
 40
0
 40
0
 40
0
 40
1
 40
1
 40
1
 40
1
 10
0.714003
 20
0.107869
 30
0.0
 10
0.687165
 20
0.107869
 30
0.0
 10
0.666088
 20
0.117490
 30
0.0
 10
0.650770
 20
0.136732
 30
0.0
  0
SPLINE
  5
274
100
AcDbEntity
  8
Layer_1
 62
7
100
AcDbSpline
 70
8
 71
3
 72
8
 73
4
 74
0
 40
0
 40
0
 40
0
 40
0
 40
1
 40
1
 40
1
 40
1
 10
0.650770
 20
0.136732
 30
0.0
 10
0.632415
 20
0.159899
 30
0.0
 10
0.623237
 20
0.197623
 30
0.0
 10
0.623237
 20
0.249905
 30
0.0
  0
LINE
  5
275
100
AcDbEntity
  8
Layer_1
 62
7
100
AcDbLine
 10
0.623237
 20
0.249905
 30
0.0
 11
0.623237
 21
0.249905
 31
0.0
  0
SPLINE
  5
276
100
AcDbEntity
  8
Layer_1
 62
7
100
AcDbSpline
 70
8
 71
3
 72
8
 73
4
 74
0
 40
0
 40
0
 40
0
 40
0
 40
1
 40
1
 40
1
 40
1
 10
0.658366
 20
0.249905
 30
0.0
 10
0.658366
 20
0.204206
 30
0.0
 10
0.663683
 20
0.173760
 30
0.0
 10
0.674316
 20
0.158569
 30
0.0
  0
SPLINE
  5
277
100
AcDbEntity
  8
Layer_1
 62
7
100
AcDbSpline
 70
8
 71
3
 72
8
 73
4
 74
0
 40
0
 40
0
 40
0
 40
0
 40
1
 40
1
 40
1
 40
1
 10
0.674316
 20
0.158569
 30
0.0
 10
0.685077
 20
0.143505
 30
0.0
 10
0.698305
 20
0.135973
 30
0.0
 10
0.714003
 20
0.135973
 30
0.0
  0
SPLINE
  5
278
100
AcDbEntity
  8
Layer_1
 62
7
100
AcDbSpline
 70
8
 71
3
 72
8
 73
4
 74
0
 40
0
 40
0
 40
0
 40
0
 40
1
 40
1
 40
1
 40
1
 10
0.714003
 20
0.135973
 30
0.0
 10
0.729700
 20
0.135973
 30
0.0
 10
0.742866
 20
0.143568
 30
0.0
 10
0.753499
 20
0.158759
 30
0.0
  0
SPLINE
  5
279
100
AcDbEntity
  8
Layer_1
 62
7
100
AcDbSpline
 70
8
 71
3
 72
8
 73
4
 74
0
 40
0
 40
0
 40
0
 40
0
 40
1
 40
1
 40
1
 40
1
 10
0.753499
 20
0.158759
 30
0.0
 10
0.764260
 20
0.173950
 30
0.0
 10
0.769640
 20
0.204332
 30
0.0
 10
0.769640
 20
0.249905
 30
0.0
  0
SPLINE
  5
27a
100
AcDbEntity
  8
Layer_1
 62
7
100
AcDbSpline
 70
8
 71
3
 72
8
 73
4
 74
0
 40
0
 40
0
 40
0
 40
0
 40
1
 40
1
 40
1
 40
1
 10
0.769640
 20
0.249905
 30
0.0
 10
0.769640
 20
0.295731
 30
0.0
 10
0.764260
 20
0.326176
 30
0.0
 10
0.753499
 20
0.341241
 30
0.0
  0
SPLINE
  5
27b
100
AcDbEntity
  8
Layer_1
 62
7
100
AcDbSpline
 70
8
 71
3
 72
8
 73
4
 74
0
 40
0
 40
0
 40
0
 40
0
 40
1
 40
1
 40
1
 40
1
 10
0.753499
 20
0.341241
 30
0.0
 10
0.742866
 20
0.356305
 30
0.0
 10
0.729574
 20
0.363837
 30
0.0
 10
0.713623
 20
0.363837
 30
0.0
  0
SPLINE
  5
27c
100
AcDbEntity
  8
Layer_1
 62
7
100
AcDbSpline
 70
8
 71
3
 72
8
 73
4
 74
0
 40
0
 40
0
 40
0
 40
0
 40
1
 40
1
 40
1
 40
1
 10
0.713623
 20
0.363837
 30
0.0
 10
0.697926
 20
0.363837
 30
0.0
 10
0.685393
 20
0.357191
 30
0.0
 10
0.676025
 20
0.343899
 30
0.0
  0
SPLINE
  5
27d
100
AcDbEntity
  8
Layer_1
 62
7
100
AcDbSpline
 70
8
 71
3
 72
8
 73
4
 74
0
 40
0
 40
0
 40
0
 40
0
 40
1
 40
1
 40
1
 40
1
 10
0.676025
 20
0.343899
 30
0.0
 10
0.664252
 20
0.326936
 30
0.0
 10
0.658366
 20
0.295605
 30
0.0
 10
0.658366
 20
0.249905
 30
0.0
  0
LINE
  5
27e
100
AcDbEntity
  8
Layer_1
 62
7
100
AcDbLine
 10
0.658366
 20
0.249905
 30
0.0
 11
0.658366
 21
0.249905
 31
0.0
  0
LINE
  5
27f
100
AcDbEntity
  8
Layer_1
 62
7
100
AcDbLine
 10
1.132240
 20
2.347859
 30
0.0
 11
1.132240
 21
2.456143
 31
0.0
  0
LINE
  5
280
100
AcDbEntity
  8
Layer_1
 62
7
100
AcDbLine
 10
1.132240
 20
2.456143
 30
0.0
 11
1.115343
 21
2.426877
 31
0.0
  0
SPLINE
  5
281
100
AcDbEntity
  8
Layer_1
 62
7
100
AcDbSpline
 70
8
 71
3
 72
8
 73
4
 74
0
 40
0
 40
0
 40
0
 40
0
 40
1
 40
1
 40
1
 40
1
 10
1.201766
 20
2.402000
 30
0.0
 10
1.201766
 20
2.387692
 30
0.0
 10
1.199650
 20
2.373970
 30
0.0
 10
1.195884
 20
2.363853
 30
0.0
  0
SPLINE
  5
282
100
AcDbEntity
  8
Layer_1
 62
7
100
AcDbSpline
 70
8
 71
3
 72
8
 73
4
 74
0
 40
0
 40
0
 40
0
 40
0
 40
1
 40
1
 40
1
 40
1
 10
1.195884
 20
2.363853
 30
0.0
 10
1.192118
 20
2.353736
 30
0.0
 10
1.187010
 20
2.348052
 30
0.0
 10
1.181684
 20
2.348052
 30
0.0
  0
SPLINE
  5
283
100
AcDbEntity
  8
Layer_1
 62
7
100
AcDbSpline
 70
8
 71
3
 72
8
 73
4
 74
0
 40
0
 40
0
 40
0
 40
0
 40
1
 40
1
 40
1
 40
1
 10
1.181684
 20
2.348052
 30
0.0
 10
1.170593
 20
2.348052
 30
0.0
 10
1.161602
 20
2.372205
 30
0.0
 10
1.161602
 20
2.402000
 30
0.0
  0
SPLINE
  5
284
100
AcDbEntity
  8
Layer_1
 62
7
100
AcDbSpline
 70
8
 71
3
 72
8
 73
4
 74
0
 40
0
 40
0
 40
0
 40
0
 40
1
 40
1
 40
1
 40
1
 10
1.161602
 20
2.402000
 30
0.0
 10
1.161602
 20
2.431794
 30
0.0
 10
1.170593
 20
2.455948
 30
0.0
 10
1.181684
 20
2.455948
 30
0.0
  0
SPLINE
  5
285
100
AcDbEntity
  8
Layer_1
 62
7
100
AcDbSpline
 70
8
 71
3
 72
8
 73
4
 74
0
 40
0
 40
0
 40
0
 40
0
 40
1
 40
1
 40
1
 40
1
 10
1.181684
 20
2.455948
 30
0.0
 10
1.187010
 20
2.455948
 30
0.0
 10
1.192118
 20
2.450264
 30
0.0
 10
1.195884
 20
2.440147
 30
0.0
  0
SPLINE
  5
286
100
AcDbEntity
  8
Layer_1
 62
7
100
AcDbSpline
 70
8
 71
3
 72
8
 73
4
 74
0
 40
0
 40
0
 40
0
 40
0
 40
1
 40
1
 40
1
 40
1
 10
1.195884
 20
2.440147
 30
0.0
 10
1.199650
 20
2.430030
 30
0.0
 10
1.201766
 20
2.416308
 30
0.0
 10
1.201766
 20
2.402000
 30
0.0
  0
LINE
  5
287
100
AcDbEntity
  8
Layer_1
 62
7
100
AcDbLine
 10
1.201766
 20
2.402000
 30
0.0
 11
1.201766
 21
2.402000
 31
0.0
  0
SPLINE
  5
288
100
AcDbEntity
  8
Layer_1
 62
7
100
AcDbSpline
 70
8
 71
3
 72
8
 73
4
 74
0
 40
0
 40
0
 40
0
 40
0
 40
1
 40
1
 40
1
 40
1
 10
1.261952
 20
2.402000
 30
0.0
 10
1.261952
 20
2.387692
 30
0.0
 10
1.259836
 20
2.373970
 30
0.0
 10
1.256070
 20
2.363853
 30
0.0
  0
SPLINE
  5
289
100
AcDbEntity
  8
Layer_1
 62
7
100
AcDbSpline
 70
8
 71
3
 72
8
 73
4
 74
0
 40
0
 40
0
 40
0
 40
0
 40
1
 40
1
 40
1
 40
1
 10
1.256070
 20
2.363853
 30
0.0
 10
1.252304
 20
2.353736
 30
0.0
 10
1.247196
 20
2.348052
 30
0.0
 10
1.241870
 20
2.348052
 30
0.0
  0
SPLINE
  5
28a
100
AcDbEntity
  8
Layer_1
 62
7
100
AcDbSpline
 70
8
 71
3
 72
8
 73
4
 74
0
 40
0
 40
0
 40
0
 40
0
 40
1
 40
1
 40
1
 40
1
 10
1.241870
 20
2.348052
 30
0.0
 10
1.236544
 20
2.348052
 30
0.0
 10
1.231436
 20
2.353736
 30
0.0
 10
1.227670
 20
2.363853
 30
0.0
  0
SPLINE
  5
28b
100
AcDbEntity
  8
Layer_1
 62
7
100
AcDbSpline
 70
8
 71
3
 72
8
 73
4
 74
0
 40
0
 40
0
 40
0
 40
0
 40
1
 40
1
 40
1
 40
1
 10
1.227670
 20
2.363853
 30
0.0
 10
1.223904
 20
2.373970
 30
0.0
 10
1.221788
 20
2.387692
 30
0.0
 10
1.221788
 20
2.402000
 30
0.0
  0
SPLINE
  5
28c
100
AcDbEntity
  8
Layer_1
 62
7
100
AcDbSpline
 70
8
 71
3
 72
8
 73
4
 74
0
 40
0
 40
0
 40
0
 40
0
 40
1
 40
1
 40
1
 40
1
 10
1.221788
 20
2.402000
 30
0.0
 10
1.221788
 20
2.416308
 30
0.0
 10
1.223904
 20
2.430030
 30
0.0
 10
1.227670
 20
2.440147
 30
0.0
  0
SPLINE
  5
28d
100
AcDbEntity
  8
Layer_1
 62
7
100
AcDbSpline
 70
8
 71
3
 72
8
 73
4
 74
0
 40
0
 40
0
 40
0
 40
0
 40
1
 40
1
 40
1
 40
1
 10
1.227670
 20
2.440147
 30
0.0
 10
1.231436
 20
2.450264
 30
0.0
 10
1.236544
 20
2.455948
 30
0.0
 10
1.241870
 20
2.455948
 30
0.0
  0
SPLINE
  5
28e
100
AcDbEntity
  8
Layer_1
 62
7
100
AcDbSpline
 70
8
 71
3
 72
8
 73
4
 74
0
 40
0
 40
0
 40
0
 40
0
 40
1
 40
1
 40
1
 40
1
 10
1.241870
 20
2.455948
 30
0.0
 10
1.247196
 20
2.455948
 30
0.0
 10
1.252304
 20
2.450264
 30
0.0
 10
1.256070
 20
2.440147
 30
0.0
  0
SPLINE
  5
28f
100
AcDbEntity
  8
Layer_1
 62
7
100
AcDbSpline
 70
8
 71
3
 72
8
 73
4
 74
0
 40
0
 40
0
 40
0
 40
0
 40
1
 40
1
 40
1
 40
1
 10
1.256070
 20
2.440147
 30
0.0
 10
1.259836
 20
2.430030
 30
0.0
 10
1.261952
 20
2.416308
 30
0.0
 10
1.261952
 20
2.402000
 30
0.0
  0
LINE
  5
290
100
AcDbEntity
  8
Layer_1
 62
7
100
AcDbLine
 10
1.261952
 20
2.402000
 30
0.0
 11
1.261952
 21
2.402000
 31
0.0
  0
SPLINE
  5
291
100
AcDbEntity
  8
Layer_1
 62
7
100
AcDbSpline
 70
8
 71
3
 72
8
 73
4
 74
0
 40
0
 40
0
 40
0
 40
0
 40
1
 40
1
 40
1
 40
1
 10
1.699279
 20
2.402000
 30
0.0
 10
1.699279
 20
2.387692
 30
0.0
 10
1.697163
 20
2.373970
 30
0.0
 10
1.693397
 20
2.363853
 30
0.0
  0
SPLINE
  5
292
100
AcDbEntity
  8
Layer_1
 62
7
100
AcDbSpline
 70
8
 71
3
 72
8
 73
4
 74
0
 40
0
 40
0
 40
0
 40
0
 40
1
 40
1
 40
1
 40
1
 10
1.693397
 20
2.363853
 30
0.0
 10
1.689630
 20
2.353736
 30
0.0
 10
1.684522
 20
2.348052
 30
0.0
 10
1.679196
 20
2.348052
 30
0.0
  0
SPLINE
  5
293
100
AcDbEntity
  8
Layer_1
 62
7
100
AcDbSpline
 70
8
 71
3
 72
8
 73
4
 74
0
 40
0
 40
0
 40
0
 40
0
 40
1
 40
1
 40
1
 40
1
 10
1.679196
 20
2.348052
 30
0.0
 10
1.668105
 20
2.348052
 30
0.0
 10
1.659114
 20
2.372205
 30
0.0
 10
1.659114
 20
2.402000
 30
0.0
  0
SPLINE
  5
294
100
AcDbEntity
  8
Layer_1
 62
7
100
AcDbSpline
 70
8
 71
3
 72
8
 73
4
 74
0
 40
0
 40
0
 40
0
 40
0
 40
1
 40
1
 40
1
 40
1
 10
1.659114
 20
2.402000
 30
0.0
 10
1.659114
 20
2.431794
 30
0.0
 10
1.668105
 20
2.455948
 30
0.0
 10
1.679196
 20
2.455948
 30
0.0
  0
SPLINE
  5
295
100
AcDbEntity
  8
Layer_1
 62
7
100
AcDbSpline
 70
8
 71
3
 72
8
 73
4
 74
0
 40
0
 40
0
 40
0
 40
0
 40
1
 40
1
 40
1
 40
1
 10
1.679196
 20
2.455948
 30
0.0
 10
1.684522
 20
2.455948
 30
0.0
 10
1.689630
 20
2.450264
 30
0.0
 10
1.693397
 20
2.440147
 30
0.0
  0
SPLINE
  5
296
100
AcDbEntity
  8
Layer_1
 62
7
100
AcDbSpline
 70
8
 71
3
 72
8
 73
4
 74
0
 40
0
 40
0
 40
0
 40
0
 40
1
 40
1
 40
1
 40
1
 10
1.693397
 20
2.440147
 30
0.0
 10
1.697163
 20
2.430030
 30
0.0
 10
1.699279
 20
2.416308
 30
0.0
 10
1.699279
 20
2.402000
 30
0.0
  0
LINE
  5
297
100
AcDbEntity
  8
Layer_1
 62
7
100
AcDbLine
 10
1.699279
 20
2.402000
 30
0.0
 11
1.699279
 21
2.402000
 31
0.0
  0
SPLINE
  5
298
100
AcDbEntity
  8
Layer_1
 62
7
100
AcDbSpline
 70
8
 71
3
 72
8
 73
4
 74
0
 40
0
 40
0
 40
0
 40
0
 40
1
 40
1
 40
1
 40
1
 10
1.759465
 20
2.402000
 30
0.0
 10
1.759465
 20
2.387692
 30
0.0
 10
1.757349
 20
2.373970
 30
0.0
 10
1.753583
 20
2.363853
 30
0.0
  0
SPLINE
  5
299
100
AcDbEntity
  8
Layer_1
 62
7
100
AcDbSpline
 70
8
 71
3
 72
8
 73
4
 74
0
 40
0
 40
0
 40
0
 40
0
 40
1
 40
1
 40
1
 40
1
 10
1.753583
 20
2.363853
 30
0.0
 10
1.749816
 20
2.353736
 30
0.0
 10
1.744709
 20
2.348052
 30
0.0
 10
1.739382
 20
2.348052
 30
0.0
  0
SPLINE
  5
29a
100
AcDbEntity
  8
Layer_1
 62
7
100
AcDbSpline
 70
8
 71
3
 72
8
 73
4
 74
0
 40
0
 40
0
 40
0
 40
0
 40
1
 40
1
 40
1
 40
1
 10
1.739382
 20
2.348052
 30
0.0
 10
1.734056
 20
2.348052
 30
0.0
 10
1.728948
 20
2.353736
 30
0.0
 10
1.725182
 20
2.363853
 30
0.0
  0
SPLINE
  5
29b
100
AcDbEntity
  8
Layer_1
 62
7
100
AcDbSpline
 70
8
 71
3
 72
8
 73
4
 74
0
 40
0
 40
0
 40
0
 40
0
 40
1
 40
1
 40
1
 40
1
 10
1.725182
 20
2.363853
 30
0.0
 10
1.721416
 20
2.373970
 30
0.0
 10
1.719300
 20
2.387692
 30
0.0
 10
1.719300
 20
2.402000
 30
0.0
  0
SPLINE
  5
29c
100
AcDbEntity
  8
Layer_1
 62
7
100
AcDbSpline
 70
8
 71
3
 72
8
 73
4
 74
0
 40
0
 40
0
 40
0
 40
0
 40
1
 40
1
 40
1
 40
1
 10
1.719300
 20
2.402000
 30
0.0
 10
1.719300
 20
2.416308
 30
0.0
 10
1.721416
 20
2.430030
 30
0.0
 10
1.725182
 20
2.440147
 30
0.0
  0
SPLINE
  5
29d
100
AcDbEntity
  8
Layer_1
 62
7
100
AcDbSpline
 70
8
 71
3
 72
8
 73
4
 74
0
 40
0
 40
0
 40
0
 40
0
 40
1
 40
1
 40
1
 40
1
 10
1.725182
 20
2.440147
 30
0.0
 10
1.728948
 20
2.450264
 30
0.0
 10
1.734056
 20
2.455948
 30
0.0
 10
1.739382
 20
2.455948
 30
0.0
  0
SPLINE
  5
29e
100
AcDbEntity
  8
Layer_1
 62
7
100
AcDbSpline
 70
8
 71
3
 72
8
 73
4
 74
0
 40
0
 40
0
 40
0
 40
0
 40
1
 40
1
 40
1
 40
1
 10
1.739382
 20
2.455948
 30
0.0
 10
1.744709
 20
2.455948
 30
0.0
 10
1.749816
 20
2.450264
 30
0.0
 10
1.753583
 20
2.440147
 30
0.0
  0
SPLINE
  5
29f
100
AcDbEntity
  8
Layer_1
 62
7
100
AcDbSpline
 70
8
 71
3
 72
8
 73
4
 74
0
 40
0
 40
0
 40
0
 40
0
 40
1
 40
1
 40
1
 40
1
 10
1.753583
 20
2.440147
 30
0.0
 10
1.757349
 20
2.430030
 30
0.0
 10
1.759465
 20
2.416308
 30
0.0
 10
1.759465
 20
2.402000
 30
0.0
  0
LINE
  5
2a0
100
AcDbEntity
  8
Layer_1
 62
7
100
AcDbLine
 10
1.759465
 20
2.402000
 30
0.0
 11
1.759465
 21
2.402000
 31
0.0
  0
SPLINE
  5
2a1
100
AcDbEntity
  8
Layer_1
 62
7
100
AcDbSpline
 70
8
 71
3
 72
8
 73
4
 74
0
 40
0
 40
0
 40
0
 40
0
 40
1
 40
1
 40
1
 40
1
 10
2.208280
 20
2.402000
 30
0.0
 10
2.208280
 20
2.372205
 30
0.0
 10
2.199289
 20
2.348052
 30
0.0
 10
2.188198
 20
2.348052
 30
0.0
  0
SPLINE
  5
2a2
100
AcDbEntity
  8
Layer_1
 62
7
100
AcDbSpline
 70
8
 71
3
 72
8
 73
4
 74
0
 40
0
 40
0
 40
0
 40
0
 40
1
 40
1
 40
1
 40
1
 10
2.188198
 20
2.348052
 30
0.0
 10
2.182872
 20
2.348052
 30
0.0
 10
2.177764
 20
2.353736
 30
0.0
 10
2.173998
 20
2.363853
 30
0.0
  0
SPLINE
  5
2a3
100
AcDbEntity
  8
Layer_1
 62
7
100
AcDbSpline
 70
8
 71
3
 72
8
 73
4
 74
0
 40
0
 40
0
 40
0
 40
0
 40
1
 40
1
 40
1
 40
1
 10
2.173998
 20
2.363853
 30
0.0
 10
2.170232
 20
2.373970
 30
0.0
 10
2.168116
 20
2.387692
 30
0.0
 10
2.168116
 20
2.402000
 30
0.0
  0
SPLINE
  5
2a4
100
AcDbEntity
  8
Layer_1
 62
7
100
AcDbSpline
 70
8
 71
3
 72
8
 73
4
 74
0
 40
0
 40
0
 40
0
 40
0
 40
1
 40
1
 40
1
 40
1
 10
2.168116
 20
2.402000
 30
0.0
 10
2.168116
 20
2.416308
 30
0.0
 10
2.170232
 20
2.430030
 30
0.0
 10
2.173998
 20
2.440147
 30
0.0
  0
SPLINE
  5
2a5
100
AcDbEntity
  8
Layer_1
 62
7
100
AcDbSpline
 70
8
 71
3
 72
8
 73
4
 74
0
 40
0
 40
0
 40
0
 40
0
 40
1
 40
1
 40
1
 40
1
 10
2.173998
 20
2.440147
 30
0.0
 10
2.177764
 20
2.450264
 30
0.0
 10
2.182872
 20
2.455948
 30
0.0
 10
2.188198
 20
2.455948
 30
0.0
  0
SPLINE
  5
2a6
100
AcDbEntity
  8
Layer_1
 62
7
100
AcDbSpline
 70
8
 71
3
 72
8
 73
4
 74
0
 40
0
 40
0
 40
0
 40
0
 40
1
 40
1
 40
1
 40
1
 10
2.188198
 20
2.455948
 30
0.0
 10
2.199289
 20
2.455948
 30
0.0
 10
2.208280
 20
2.431794
 30
0.0
 10
2.208280
 20
2.402000
 30
0.0
  0
LINE
  5
2a7
100
AcDbEntity
  8
Layer_1
 62
7
100
AcDbLine
 10
2.208280
 20
2.402000
 30
0.0
 11
2.208280
 21
2.402000
 31
0.0
  0
SPLINE
  5
2a8
100
AcDbEntity
  8
Layer_1
 62
7
100
AcDbSpline
 70
8
 71
3
 72
8
 73
4
 74
0
 40
0
 40
0
 40
0
 40
0
 40
1
 40
1
 40
1
 40
1
 10
2.268466
 20
2.402000
 30
0.0
 10
2.268466
 20
2.387692
 30
0.0
 10
2.266351
 20
2.373970
 30
0.0
 10
2.262585
 20
2.363853
 30
0.0
  0
SPLINE
  5
2a9
100
AcDbEntity
  8
Layer_1
 62
7
100
AcDbSpline
 70
8
 71
3
 72
8
 73
4
 74
0
 40
0
 40
0
 40
0
 40
0
 40
1
 40
1
 40
1
 40
1
 10
2.262585
 20
2.363853
 30
0.0
 10
2.258818
 20
2.353736
 30
0.0
 10
2.253710
 20
2.348052
 30
0.0
 10
2.248384
 20
2.348052
 30
0.0
  0
SPLINE
  5
2aa
100
AcDbEntity
  8
Layer_1
 62
7
100
AcDbSpline
 70
8
 71
3
 72
8
 73
4
 74
0
 40
0
 40
0
 40
0
 40
0
 40
1
 40
1
 40
1
 40
1
 10
2.248384
 20
2.348052
 30
0.0
 10
2.243058
 20
2.348052
 30
0.0
 10
2.237950
 20
2.353736
 30
0.0
 10
2.234184
 20
2.363853
 30
0.0
  0
SPLINE
  5
2ab
100
AcDbEntity
  8
Layer_1
 62
7
100
AcDbSpline
 70
8
 71
3
 72
8
 73
4
 74
0
 40
0
 40
0
 40
0
 40
0
 40
1
 40
1
 40
1
 40
1
 10
2.234184
 20
2.363853
 30
0.0
 10
2.230418
 20
2.373970
 30
0.0
 10
2.228302
 20
2.387692
 30
0.0
 10
2.228302
 20
2.402000
 30
0.0
  0
SPLINE
  5
2ac
100
AcDbEntity
  8
Layer_1
 62
7
100
AcDbSpline
 70
8
 71
3
 72
8
 73
4
 74
0
 40
0
 40
0
 40
0
 40
0
 40
1
 40
1
 40
1
 40
1
 10
2.228302
 20
2.402000
 30
0.0
 10
2.228302
 20
2.416308
 30
0.0
 10
2.230418
 20
2.430030
 30
0.0
 10
2.234184
 20
2.440147
 30
0.0
  0
SPLINE
  5
2ad
100
AcDbEntity
  8
Layer_1
 62
7
100
AcDbSpline
 70
8
 71
3
 72
8
 73
4
 74
0
 40
0
 40
0
 40
0
 40
0
 40
1
 40
1
 40
1
 40
1
 10
2.234184
 20
2.440147
 30
0.0
 10
2.237950
 20
2.450264
 30
0.0
 10
2.243058
 20
2.455948
 30
0.0
 10
2.248384
 20
2.455948
 30
0.0
  0
SPLINE
  5
2ae
100
AcDbEntity
  8
Layer_1
 62
7
100
AcDbSpline
 70
8
 71
3
 72
8
 73
4
 74
0
 40
0
 40
0
 40
0
 40
0
 40
1
 40
1
 40
1
 40
1
 10
2.248384
 20
2.455948
 30
0.0
 10
2.253710
 20
2.455948
 30
0.0
 10
2.258818
 20
2.450264
 30
0.0
 10
2.262585
 20
2.440147
 30
0.0
  0
SPLINE
  5
2af
100
AcDbEntity
  8
Layer_1
 62
7
100
AcDbSpline
 70
8
 71
3
 72
8
 73
4
 74
0
 40
0
 40
0
 40
0
 40
0
 40
1
 40
1
 40
1
 40
1
 10
2.262585
 20
2.440147
 30
0.0
 10
2.266351
 20
2.430030
 30
0.0
 10
2.268466
 20
2.416308
 30
0.0
 10
2.268466
 20
2.402000
 30
0.0
  0
LINE
  5
2b0
100
AcDbEntity
  8
Layer_1
 62
7
100
AcDbLine
 10
2.268466
 20
2.402000
 30
0.0
 11
2.268466
 21
2.402000
 31
0.0
  0
SPLINE
  5
2b1
100
AcDbEntity
  8
Layer_1
 62
7
100
AcDbSpline
 70
8
 71
3
 72
8
 73
4
 74
0
 40
0
 40
0
 40
0
 40
0
 40
1
 40
1
 40
1
 40
1
 10
2.711257
 20
2.402000
 30
0.0
 10
2.711257
 20
2.387692
 30
0.0
 10
2.709142
 20
2.373970
 30
0.0
 10
2.705375
 20
2.363853
 30
0.0
  0
SPLINE
  5
2b2
100
AcDbEntity
  8
Layer_1
 62
7
100
AcDbSpline
 70
8
 71
3
 72
8
 73
4
 74
0
 40
0
 40
0
 40
0
 40
0
 40
1
 40
1
 40
1
 40
1
 10
2.705375
 20
2.363853
 30
0.0
 10
2.701609
 20
2.353736
 30
0.0
 10
2.696501
 20
2.348052
 30
0.0
 10
2.691175
 20
2.348052
 30
0.0
  0
SPLINE
  5
2b3
100
AcDbEntity
  8
Layer_1
 62
7
100
AcDbSpline
 70
8
 71
3
 72
8
 73
4
 74
0
 40
0
 40
0
 40
0
 40
0
 40
1
 40
1
 40
1
 40
1
 10
2.691175
 20
2.348052
 30
0.0
 10
2.680084
 20
2.348052
 30
0.0
 10
2.671093
 20
2.372205
 30
0.0
 10
2.671093
 20
2.402000
 30
0.0
  0
SPLINE
  5
2b4
100
AcDbEntity
  8
Layer_1
 62
7
100
AcDbSpline
 70
8
 71
3
 72
8
 73
4
 74
0
 40
0
 40
0
 40
0
 40
0
 40
1
 40
1
 40
1
 40
1
 10
2.671093
 20
2.402000
 30
0.0
 10
2.671093
 20
2.431794
 30
0.0
 10
2.680084
 20
2.455948
 30
0.0
 10
2.691175
 20
2.455948
 30
0.0
  0
SPLINE
  5
2b5
100
AcDbEntity
  8
Layer_1
 62
7
100
AcDbSpline
 70
8
 71
3
 72
8
 73
4
 74
0
 40
0
 40
0
 40
0
 40
0
 40
1
 40
1
 40
1
 40
1
 10
2.691175
 20
2.455948
 30
0.0
 10
2.696501
 20
2.455948
 30
0.0
 10
2.701609
 20
2.450264
 30
0.0
 10
2.705375
 20
2.440147
 30
0.0
  0
SPLINE
  5
2b6
100
AcDbEntity
  8
Layer_1
 62
7
100
AcDbSpline
 70
8
 71
3
 72
8
 73
4
 74
0
 40
0
 40
0
 40
0
 40
0
 40
1
 40
1
 40
1
 40
1
 10
2.705375
 20
2.440147
 30
0.0
 10
2.709142
 20
2.430030
 30
0.0
 10
2.711257
 20
2.416308
 30
0.0
 10
2.711257
 20
2.402000
 30
0.0
  0
LINE
  5
2b7
100
AcDbEntity
  8
Layer_1
 62
7
100
AcDbLine
 10
2.711257
 20
2.402000
 30
0.0
 11
2.711257
 21
2.402000
 31
0.0
  0
SPLINE
  5
2b8
100
AcDbEntity
  8
Layer_1
 62
7
100
AcDbSpline
 70
8
 71
3
 72
8
 73
4
 74
0
 40
0
 40
0
 40
0
 40
0
 40
1
 40
1
 40
1
 40
1
 10
2.771443
 20
2.402000
 30
0.0
 10
2.771443
 20
2.387692
 30
0.0
 10
2.769328
 20
2.373970
 30
0.0
 10
2.765561
 20
2.363853
 30
0.0
  0
SPLINE
  5
2b9
100
AcDbEntity
  8
Layer_1
 62
7
100
AcDbSpline
 70
8
 71
3
 72
8
 73
4
 74
0
 40
0
 40
0
 40
0
 40
0
 40
1
 40
1
 40
1
 40
1
 10
2.765561
 20
2.363853
 30
0.0
 10
2.761795
 20
2.353736
 30
0.0
 10
2.756687
 20
2.348052
 30
0.0
 10
2.751361
 20
2.348052
 30
0.0
  0
SPLINE
  5
2ba
100
AcDbEntity
  8
Layer_1
 62
7
100
AcDbSpline
 70
8
 71
3
 72
8
 73
4
 74
0
 40
0
 40
0
 40
0
 40
0
 40
1
 40
1
 40
1
 40
1
 10
2.751361
 20
2.348052
 30
0.0
 10
2.746035
 20
2.348052
 30
0.0
 10
2.740927
 20
2.353736
 30
0.0
 10
2.737161
 20
2.363853
 30
0.0
  0
SPLINE
  5
2bb
100
AcDbEntity
  8
Layer_1
 62
7
100
AcDbSpline
 70
8
 71
3
 72
8
 73
4
 74
0
 40
0
 40
0
 40
0
 40
0
 40
1
 40
1
 40
1
 40
1
 10
2.737161
 20
2.363853
 30
0.0
 10
2.733395
 20
2.373970
 30
0.0
 10
2.731279
 20
2.387692
 30
0.0
 10
2.731279
 20
2.402000
 30
0.0
  0
SPLINE
  5
2bc
100
AcDbEntity
  8
Layer_1
 62
7
100
AcDbSpline
 70
8
 71
3
 72
8
 73
4
 74
0
 40
0
 40
0
 40
0
 40
0
 40
1
 40
1
 40
1
 40
1
 10
2.731279
 20
2.402000
 30
0.0
 10
2.731279
 20
2.416308
 30
0.0
 10
2.733395
 20
2.430030
 30
0.0
 10
2.737161
 20
2.440147
 30
0.0
  0
SPLINE
  5
2bd
100
AcDbEntity
  8
Layer_1
 62
7
100
AcDbSpline
 70
8
 71
3
 72
8
 73
4
 74
0
 40
0
 40
0
 40
0
 40
0
 40
1
 40
1
 40
1
 40
1
 10
2.737161
 20
2.440147
 30
0.0
 10
2.740927
 20
2.450264
 30
0.0
 10
2.746035
 20
2.455948
 30
0.0
 10
2.751361
 20
2.455948
 30
0.0
  0
SPLINE
  5
2be
100
AcDbEntity
  8
Layer_1
 62
7
100
AcDbSpline
 70
8
 71
3
 72
8
 73
4
 74
0
 40
0
 40
0
 40
0
 40
0
 40
1
 40
1
 40
1
 40
1
 10
2.751361
 20
2.455948
 30
0.0
 10
2.756687
 20
2.455948
 30
0.0
 10
2.761795
 20
2.450264
 30
0.0
 10
2.765561
 20
2.440147
 30
0.0
  0
SPLINE
  5
2bf
100
AcDbEntity
  8
Layer_1
 62
7
100
AcDbSpline
 70
8
 71
3
 72
8
 73
4
 74
0
 40
0
 40
0
 40
0
 40
0
 40
1
 40
1
 40
1
 40
1
 10
2.765561
 20
2.440147
 30
0.0
 10
2.769328
 20
2.430030
 30
0.0
 10
2.771443
 20
2.416308
 30
0.0
 10
2.771443
 20
2.402000
 30
0.0
  0
LINE
  5
2c0
100
AcDbEntity
  8
Layer_1
 62
7
100
AcDbLine
 10
2.771443
 20
2.402000
 30
0.0
 11
2.771443
 21
2.402000
 31
0.0
  0
SPLINE
  5
2c1
100
AcDbEntity
  8
Layer_1
 62
7
100
AcDbSpline
 70
8
 71
3
 72
8
 73
4
 74
0
 40
0
 40
0
 40
0
 40
0
 40
1
 40
1
 40
1
 40
1
 10
3.207921
 20
2.402000
 30
0.0
 10
3.207921
 20
2.387692
 30
0.0
 10
3.205805
 20
2.373970
 30
0.0
 10
3.202039
 20
2.363853
 30
0.0
  0
SPLINE
  5
2c2
100
AcDbEntity
  8
Layer_1
 62
7
100
AcDbSpline
 70
8
 71
3
 72
8
 73
4
 74
0
 40
0
 40
0
 40
0
 40
0
 40
1
 40
1
 40
1
 40
1
 10
3.202039
 20
2.363853
 30
0.0
 10
3.198273
 20
2.353736
 30
0.0
 10
3.193165
 20
2.348052
 30
0.0
 10
3.187839
 20
2.348052
 30
0.0
  0
SPLINE
  5
2c3
100
AcDbEntity
  8
Layer_1
 62
7
100
AcDbSpline
 70
8
 71
3
 72
8
 73
4
 74
0
 40
0
 40
0
 40
0
 40
0
 40
1
 40
1
 40
1
 40
1
 10
3.187839
 20
2.348052
 30
0.0
 10
3.182512
 20
2.348052
 30
0.0
 10
3.177405
 20
2.353736
 30
0.0
 10
3.173638
 20
2.363853
 30
0.0
  0
SPLINE
  5
2c4
100
AcDbEntity
  8
Layer_1
 62
7
100
AcDbSpline
 70
8
 71
3
 72
8
 73
4
 74
0
 40
0
 40
0
 40
0
 40
0
 40
1
 40
1
 40
1
 40
1
 10
3.173638
 20
2.363853
 30
0.0
 10
3.169872
 20
2.373970
 30
0.0
 10
3.167756
 20
2.387692
 30
0.0
 10
3.167756
 20
2.402000
 30
0.0
  0
SPLINE
  5
2c5
100
AcDbEntity
  8
Layer_1
 62
7
100
AcDbSpline
 70
8
 71
3
 72
8
 73
4
 74
0
 40
0
 40
0
 40
0
 40
0
 40
1
 40
1
 40
1
 40
1
 10
3.167756
 20
2.402000
 30
0.0
 10
3.167756
 20
2.416308
 30
0.0
 10
3.169872
 20
2.430030
 30
0.0
 10
3.173638
 20
2.440147
 30
0.0
  0
SPLINE
  5
2c6
100
AcDbEntity
  8
Layer_1
 62
7
100
AcDbSpline
 70
8
 71
3
 72
8
 73
4
 74
0
 40
0
 40
0
 40
0
 40
0
 40
1
 40
1
 40
1
 40
1
 10
3.173638
 20
2.440147
 30
0.0
 10
3.177405
 20
2.450264
 30
0.0
 10
3.182512
 20
2.455948
 30
0.0
 10
3.187839
 20
2.455948
 30
0.0
  0
SPLINE
  5
2c7
100
AcDbEntity
  8
Layer_1
 62
7
100
AcDbSpline
 70
8
 71
3
 72
8
 73
4
 74
0
 40
0
 40
0
 40
0
 40
0
 40
1
 40
1
 40
1
 40
1
 10
3.187839
 20
2.455948
 30
0.0
 10
3.193165
 20
2.455948
 30
0.0
 10
3.198273
 20
2.450264
 30
0.0
 10
3.202039
 20
2.440147
 30
0.0
  0
SPLINE
  5
2c8
100
AcDbEntity
  8
Layer_1
 62
7
100
AcDbSpline
 70
8
 71
3
 72
8
 73
4
 74
0
 40
0
 40
0
 40
0
 40
0
 40
1
 40
1
 40
1
 40
1
 10
3.202039
 20
2.440147
 30
0.0
 10
3.205805
 20
2.430030
 30
0.0
 10
3.207921
 20
2.416308
 30
0.0
 10
3.207921
 20
2.402000
 30
0.0
  0
LINE
  5
2c9
100
AcDbEntity
  8
Layer_1
 62
7
100
AcDbLine
 10
3.207921
 20
2.402000
 30
0.0
 11
3.207921
 21
2.402000
 31
0.0
  0
SPLINE
  5
2ca
100
AcDbEntity
  8
Layer_1
 62
7
100
AcDbSpline
 70
8
 71
3
 72
8
 73
4
 74
0
 40
0
 40
0
 40
0
 40
0
 40
1
 40
1
 40
1
 40
1
 10
3.268107
 20
2.402000
 30
0.0
 10
3.268107
 20
2.372205
 30
0.0
 10
3.259116
 20
2.348052
 30
0.0
 10
3.248025
 20
2.348052
 30
0.0
  0
SPLINE
  5
2cb
100
AcDbEntity
  8
Layer_1
 62
7
100
AcDbSpline
 70
8
 71
3
 72
8
 73
4
 74
0
 40
0
 40
0
 40
0
 40
0
 40
1
 40
1
 40
1
 40
1
 10
3.248025
 20
2.348052
 30
0.0
 10
3.242698
 20
2.348052
 30
0.0
 10
3.237591
 20
2.353736
 30
0.0
 10
3.233824
 20
2.363853
 30
0.0
  0
SPLINE
  5
2cc
100
AcDbEntity
  8
Layer_1
 62
7
100
AcDbSpline
 70
8
 71
3
 72
8
 73
4
 74
0
 40
0
 40
0
 40
0
 40
0
 40
1
 40
1
 40
1
 40
1
 10
3.233824
 20
2.363853
 30
0.0
 10
3.230058
 20
2.373970
 30
0.0
 10
3.227942
 20
2.387692
 30
0.0
 10
3.227942
 20
2.402000
 30
0.0
  0
SPLINE
  5
2cd
100
AcDbEntity
  8
Layer_1
 62
7
100
AcDbSpline
 70
8
 71
3
 72
8
 73
4
 74
0
 40
0
 40
0
 40
0
 40
0
 40
1
 40
1
 40
1
 40
1
 10
3.227942
 20
2.402000
 30
0.0
 10
3.227942
 20
2.416308
 30
0.0
 10
3.230058
 20
2.430030
 30
0.0
 10
3.233824
 20
2.440147
 30
0.0
  0
SPLINE
  5
2ce
100
AcDbEntity
  8
Layer_1
 62
7
100
AcDbSpline
 70
8
 71
3
 72
8
 73
4
 74
0
 40
0
 40
0
 40
0
 40
0
 40
1
 40
1
 40
1
 40
1
 10
3.233824
 20
2.440147
 30
0.0
 10
3.237591
 20
2.450264
 30
0.0
 10
3.242698
 20
2.455948
 30
0.0
 10
3.248025
 20
2.455948
 30
0.0
  0
SPLINE
  5
2cf
100
AcDbEntity
  8
Layer_1
 62
7
100
AcDbSpline
 70
8
 71
3
 72
8
 73
4
 74
0
 40
0
 40
0
 40
0
 40
0
 40
1
 40
1
 40
1
 40
1
 10
3.248025
 20
2.455948
 30
0.0
 10
3.259116
 20
2.455948
 30
0.0
 10
3.268107
 20
2.431794
 30
0.0
 10
3.268107
 20
2.402000
 30
0.0
  0
LINE
  5
2d0
100
AcDbEntity
  8
Layer_1
 62
7
100
AcDbLine
 10
3.268107
 20
2.402000
 30
0.0
 11
3.268107
 21
2.402000
 31
0.0
  0
SPLINE
  5
2d1
100
AcDbEntity
  8
Layer_1
 62
7
100
AcDbSpline
 70
8
 71
3
 72
8
 73
4
 74
0
 40
0
 40
0
 40
0
 40
0
 40
1
 40
1
 40
1
 40
1
 10
3.715979
 20
2.402000
 30
0.0
 10
3.715979
 20
2.387692
 30
0.0
 10
3.713863
 20
2.373970
 30
0.0
 10
3.710097
 20
2.363853
 30
0.0
  0
SPLINE
  5
2d2
100
AcDbEntity
  8
Layer_1
 62
7
100
AcDbSpline
 70
8
 71
3
 72
8
 73
4
 74
0
 40
0
 40
0
 40
0
 40
0
 40
1
 40
1
 40
1
 40
1
 10
3.710097
 20
2.363853
 30
0.0
 10
3.706331
 20
2.353736
 30
0.0
 10
3.701223
 20
2.348052
 30
0.0
 10
3.695897
 20
2.348052
 30
0.0
  0
SPLINE
  5
2d3
100
AcDbEntity
  8
Layer_1
 62
7
100
AcDbSpline
 70
8
 71
3
 72
8
 73
4
 74
0
 40
0
 40
0
 40
0
 40
0
 40
1
 40
1
 40
1
 40
1
 10
3.695897
 20
2.348052
 30
0.0
 10
3.690571
 20
2.348052
 30
0.0
 10
3.685463
 20
2.353736
 30
0.0
 10
3.681697
 20
2.363853
 30
0.0
  0
SPLINE
  5
2d4
100
AcDbEntity
  8
Layer_1
 62
7
100
AcDbSpline
 70
8
 71
3
 72
8
 73
4
 74
0
 40
0
 40
0
 40
0
 40
0
 40
1
 40
1
 40
1
 40
1
 10
3.681697
 20
2.363853
 30
0.0
 10
3.677931
 20
2.373970
 30
0.0
 10
3.675815
 20
2.387692
 30
0.0
 10
3.675815
 20
2.402000
 30
0.0
  0
SPLINE
  5
2d5
100
AcDbEntity
  8
Layer_1
 62
7
100
AcDbSpline
 70
8
 71
3
 72
8
 73
4
 74
0
 40
0
 40
0
 40
0
 40
0
 40
1
 40
1
 40
1
 40
1
 10
3.675815
 20
2.402000
 30
0.0
 10
3.675815
 20
2.416308
 30
0.0
 10
3.677931
 20
2.430030
 30
0.0
 10
3.681697
 20
2.440147
 30
0.0
  0
SPLINE
  5
2d6
100
AcDbEntity
  8
Layer_1
 62
7
100
AcDbSpline
 70
8
 71
3
 72
8
 73
4
 74
0
 40
0
 40
0
 40
0
 40
0
 40
1
 40
1
 40
1
 40
1
 10
3.681697
 20
2.440147
 30
0.0
 10
3.685463
 20
2.450264
 30
0.0
 10
3.690571
 20
2.455948
 30
0.0
 10
3.695897
 20
2.455948
 30
0.0
  0
SPLINE
  5
2d7
100
AcDbEntity
  8
Layer_1
 62
7
100
AcDbSpline
 70
8
 71
3
 72
8
 73
4
 74
0
 40
0
 40
0
 40
0
 40
0
 40
1
 40
1
 40
1
 40
1
 10
3.695897
 20
2.455948
 30
0.0
 10
3.701223
 20
2.455948
 30
0.0
 10
3.706331
 20
2.450264
 30
0.0
 10
3.710097
 20
2.440147
 30
0.0
  0
SPLINE
  5
2d8
100
AcDbEntity
  8
Layer_1
 62
7
100
AcDbSpline
 70
8
 71
3
 72
8
 73
4
 74
0
 40
0
 40
0
 40
0
 40
0
 40
1
 40
1
 40
1
 40
1
 10
3.710097
 20
2.440147
 30
0.0
 10
3.713863
 20
2.430030
 30
0.0
 10
3.715979
 20
2.416308
 30
0.0
 10
3.715979
 20
2.402000
 30
0.0
  0
LINE
  5
2d9
100
AcDbEntity
  8
Layer_1
 62
7
100
AcDbLine
 10
3.715979
 20
2.402000
 30
0.0
 11
3.715979
 21
2.402000
 31
0.0
  0
SPLINE
  5
2da
100
AcDbEntity
  8
Layer_1
 62
7
100
AcDbSpline
 70
8
 71
3
 72
8
 73
4
 74
0
 40
0
 40
0
 40
0
 40
0
 40
1
 40
1
 40
1
 40
1
 10
3.776165
 20
2.402000
 30
0.0
 10
3.776165
 20
2.387692
 30
0.0
 10
3.774049
 20
2.373970
 30
0.0
 10
3.770283
 20
2.363853
 30
0.0
  0
SPLINE
  5
2db
100
AcDbEntity
  8
Layer_1
 62
7
100
AcDbSpline
 70
8
 71
3
 72
8
 73
4
 74
0
 40
0
 40
0
 40
0
 40
0
 40
1
 40
1
 40
1
 40
1
 10
3.770283
 20
2.363853
 30
0.0
 10
3.766517
 20
2.353736
 30
0.0
 10
3.761409
 20
2.348052
 30
0.0
 10
3.756083
 20
2.348052
 30
0.0
  0
SPLINE
  5
2dc
100
AcDbEntity
  8
Layer_1
 62
7
100
AcDbSpline
 70
8
 71
3
 72
8
 73
4
 74
0
 40
0
 40
0
 40
0
 40
0
 40
1
 40
1
 40
1
 40
1
 10
3.756083
 20
2.348052
 30
0.0
 10
3.744992
 20
2.348052
 30
0.0
 10
3.736001
 20
2.372205
 30
0.0
 10
3.736001
 20
2.402000
 30
0.0
  0
SPLINE
  5
2dd
100
AcDbEntity
  8
Layer_1
 62
7
100
AcDbSpline
 70
8
 71
3
 72
8
 73
4
 74
0
 40
0
 40
0
 40
0
 40
0
 40
1
 40
1
 40
1
 40
1
 10
3.736001
 20
2.402000
 30
0.0
 10
3.736001
 20
2.431794
 30
0.0
 10
3.744992
 20
2.455948
 30
0.0
 10
3.756083
 20
2.455948
 30
0.0
  0
SPLINE
  5
2de
100
AcDbEntity
  8
Layer_1
 62
7
100
AcDbSpline
 70
8
 71
3
 72
8
 73
4
 74
0
 40
0
 40
0
 40
0
 40
0
 40
1
 40
1
 40
1
 40
1
 10
3.756083
 20
2.455948
 30
0.0
 10
3.761409
 20
2.455948
 30
0.0
 10
3.766517
 20
2.450264
 30
0.0
 10
3.770283
 20
2.440147
 30
0.0
  0
SPLINE
  5
2df
100
AcDbEntity
  8
Layer_1
 62
7
100
AcDbSpline
 70
8
 71
3
 72
8
 73
4
 74
0
 40
0
 40
0
 40
0
 40
0
 40
1
 40
1
 40
1
 40
1
 10
3.770283
 20
2.440147
 30
0.0
 10
3.774049
 20
2.430030
 30
0.0
 10
3.776165
 20
2.416308
 30
0.0
 10
3.776165
 20
2.402000
 30
0.0
  0
LINE
  5
2e0
100
AcDbEntity
  8
Layer_1
 62
7
100
AcDbLine
 10
3.776165
 20
2.402000
 30
0.0
 11
3.776165
 21
2.402000
 31
0.0
  0
SPLINE
  5
2e1
100
AcDbEntity
  8
Layer_1
 62
7
100
AcDbSpline
 70
8
 71
3
 72
8
 73
4
 74
0
 40
0
 40
0
 40
0
 40
0
 40
1
 40
1
 40
1
 40
1
 10
1.602371
 20
2.422234
 30
0.0
 10
1.604582
 20
2.433724
 30
0.0
 10
1.609856
 20
2.450371
 30
0.0
 10
1.617885
 20
2.451394
 30
0.0
  0
SPLINE
  5
2e2
100
AcDbEntity
  8
Layer_1
 62
7
100
AcDbSpline
 70
8
 71
3
 72
8
 73
4
 74
0
 40
0
 40
0
 40
0
 40
0
 40
1
 40
1
 40
1
 40
1
 10
1.617885
 20
2.451394
 30
0.0
 10
1.631494
 20
2.453129
 30
0.0
 10
1.639450
 20
2.436932
 30
0.0
 10
1.636242
 20
2.419890
 30
0.0
  0
SPLINE
  5
2e3
100
AcDbEntity
  8
Layer_1
 62
7
100
AcDbSpline
 70
8
 71
3
 72
8
 73
4
 74
0
 40
0
 40
0
 40
0
 40
0
 40
1
 40
1
 40
1
 40
1
 10
1.636242
 20
2.419890
 30
0.0
 10
1.631814
 20
2.396368
 30
0.0
 10
1.604923
 20
2.374320
 30
0.0
 10
1.602713
 20
2.352970
 30
0.0
  0
SPLINE
  5
2e4
100
AcDbEntity
  8
Layer_1
 62
7
100
AcDbSpline
 70
8
 71
3
 72
8
 73
4
 74
0
 40
0
 40
0
 40
0
 40
0
 40
1
 40
1
 40
1
 40
1
 10
1.602713
 20
2.352970
 30
0.0
 10
1.602622
 20
2.352149
 30
0.0
 10
1.636998
 20
2.352548
 30
0.0
 10
1.639803
 20
2.353000
 30
0.0
  0
SPLINE
  5
2e5
100
AcDbEntity
  8
Layer_1
 62
7
100
AcDbSpline
 70
8
 71
3
 72
8
 73
4
 74
0
 40
0
 40
0
 40
0
 40
0
 40
1
 40
1
 40
1
 40
1
 10
2.093411
 20
2.443253
 30
0.0
 10
2.105086
 20
2.473642
 30
0.0
 10
2.163541
 20
2.450161
 30
0.0
 10
2.111138
 20
2.403399
 30
0.0
  0
SPLINE
  5
2e6
100
AcDbEntity
  8
Layer_1
 62
7
100
AcDbSpline
 70
8
 71
3
 72
8
 73
4
 74
0
 40
0
 40
0
 40
0
 40
0
 40
1
 40
1
 40
1
 40
1
 10
2.111138
 20
2.403399
 30
0.0
 10
2.135547
 20
2.410956
 30
0.0
 10
2.158687
 20
2.361713
 30
0.0
 10
2.131218
 20
2.353329
 30
0.0
  0
SPLINE
  5
2e7
100
AcDbEntity
  8
Layer_1
 62
7
100
AcDbSpline
 70
8
 71
3
 72
8
 73
4
 74
0
 40
0
 40
0
 40
0
 40
0
 40
1
 40
1
 40
1
 40
1
 10
2.131218
 20
2.353329
 30
0.0
 10
2.108876
 20
2.343684
 30
0.0
 10
2.107550
 20
2.344634
 30
0.0
 10
2.089148
 20
2.360658
 30
0.0
  0
LINE
  5
2e8
100
AcDbEntity
  8
Layer_1
 62
7
100
AcDbLine
 10
2.629205
 20
2.347597
 30
0.0
 11
2.631319
 21
2.456404
 31
0.0
  0
LINE
  5
2e9
100
AcDbEntity
  8
Layer_1
 62
7
100
AcDbLine
 10
2.631319
 20
2.456404
 30
0.0
 11
2.592967
 21
2.396809
 31
0.0
  0
LINE
  5
2ea
100
AcDbEntity
  8
Layer_1
 62
7
100
AcDbLine
 10
2.592967
 20
2.396809
 30
0.0
 11
2.647679
 21
2.397200
 31
0.0
  0
LINE
  5
2eb
100
AcDbEntity
  8
Layer_1
 62
7
100
AcDbLine
 10
3.136933
 20
2.454013
 30
0.0
 11
3.089517
 21
2.453070
 31
0.0
  0
LINE
  5
2ec
100
AcDbEntity
  8
Layer_1
 62
7
100
AcDbLine
 10
3.089517
 20
2.453070
 30
0.0
 11
3.090194
 21
2.404143
 31
0.0
  0
SPLINE
  5
2ed
100
AcDbEntity
  8
Layer_1
 62
7
100
AcDbSpline
 70
8
 71
3
 72
8
 73
4
 74
0
 40
0
 40
0
 40
0
 40
0
 40
1
 40
1
 40
1
 40
1
 10
3.090194
 20
2.404143
 30
0.0
 10
3.106445
 20
2.403233
 30
0.0
 10
3.119804
 20
2.410791
 30
0.0
 10
3.131042
 20
2.401413
 30
0.0
  0
SPLINE
  5
2ee
100
AcDbEntity
  8
Layer_1
 62
7
100
AcDbSpline
 70
8
 71
3
 72
8
 73
4
 74
0
 40
0
 40
0
 40
0
 40
0
 40
1
 40
1
 40
1
 40
1
 10
3.131042
 20
2.401413
 30
0.0
 10
3.142280
 20
2.392035
 30
0.0
 10
3.146622
 20
2.376611
 30
0.0
 10
3.136844
 20
2.360299
 30
0.0
  0
SPLINE
  5
2ef
100
AcDbEntity
  8
Layer_1
 62
7
100
AcDbSpline
 70
8
 71
3
 72
8
 73
4
 74
0
 40
0
 40
0
 40
0
 40
0
 40
1
 40
1
 40
1
 40
1
 10
3.136844
 20
2.360299
 30
0.0
 10
3.127065
 20
2.343988
 30
0.0
 10
3.104188
 20
2.348532
 30
0.0
 10
3.089058
 20
2.363166
 30
0.0
  0
SPLINE
  5
2f0
100
AcDbEntity
  8
Layer_1
 62
7
100
AcDbSpline
 70
8
 71
3
 72
8
 73
4
 74
0
 40
0
 40
0
 40
0
 40
0
 40
1
 40
1
 40
1
 40
1
 10
3.642864
 20
2.446156
 30
0.0
 10
3.630385
 20
2.466460
 30
0.0
 10
3.603147
 20
2.452714
 30
0.0
 10
3.596530
 20
2.432338
 30
0.0
  0
SPLINE
  5
2f1
100
AcDbEntity
  8
Layer_1
 62
7
100
AcDbSpline
 70
8
 71
3
 72
8
 73
4
 74
0
 40
0
 40
0
 40
0
 40
0
 40
1
 40
1
 40
1
 40
1
 10
3.596530
 20
2.432338
 30
0.0
 10
3.590784
 20
2.414641
 30
0.0
 10
3.588480
 20
2.347357
 30
0.0
 10
3.627735
 20
2.347863
 30
0.0
  0
SPLINE
  5
2f2
100
AcDbEntity
  8
Layer_1
 62
7
100
AcDbSpline
 70
8
 71
3
 72
8
 73
4
 74
0
 40
0
 40
0
 40
0
 40
0
 40
1
 40
1
 40
1
 40
1
 10
3.627735
 20
2.347863
 30
0.0
 10
3.680181
 20
2.348539
 30
0.0
 10
3.637276
 20
2.443789
 30
0.0
 10
3.596876
 20
2.376404
 30
0.0
  0
LINE
  5
2f3
100
AcDbEntity
  8
Layer_1
 62
7
100
AcDbLine
 10
0.650195
 20
2.400043
 30
0.0
 11
0.944515
 21
2.400043
 31
0.0
  0
LINE
  5
2f4
100
AcDbEntity
  8
Layer_1
 62
7
100
AcDbLine
 10
0.944515
 20
2.400043
 30
0.0
 11
0.844557
 21
2.438915
 31
0.0
  0
LINE
  5
2f5
100
AcDbEntity
  8
Layer_1
 62
7
100
AcDbLine
 10
0.845020
 20
2.361633
 30
0.0
 11
0.944515
 21
2.400043
 31
0.0
  0
LINE
  5
2f6
100
AcDbEntity
  8
Layer_1
 62
7
100
AcDbLine
 10
0.197114
 20
1.635253
 30
0.0
 11
0.197114
 21
1.340934
 31
0.0
  0
LINE
  5
2f7
100
AcDbEntity
  8
Layer_1
 62
7
100
AcDbLine
 10
0.197114
 20
1.340934
 30
0.0
 11
0.235986
 21
1.440891
 31
0.0
  0
LINE
  5
2f8
100
AcDbEntity
  8
Layer_1
 62
7
100
AcDbLine
 10
0.158704
 20
1.440428
 30
0.0
 11
0.197114
 21
1.340934
 31
0.0
  0
LINE
  5
2f9
100
AcDbEntity
  8
Layer_1
 62
7
100
AcDbLine
 10
0.201205
 20
2.426649
 30
0.0
 11
0.201965
 21
2.292420
 31
0.0
  0
SPLINE
  5
2fa
100
AcDbEntity
  8
Layer_1
 62
7
100
AcDbSpline
 70
8
 71
3
 72
8
 73
4
 74
0
 40
0
 40
0
 40
0
 40
0
 40
1
 40
1
 40
1
 40
1
 10
0.201380
 20
2.399840
 30
0.0
 10
0.203215
 20
2.407594
 30
0.0
 10
0.206179
 20
2.413706
 30
0.0
 10
0.210272
 20
2.418178
 30
0.0
  0
SPLINE
  5
2fb
100
AcDbEntity
  8
Layer_1
 62
7
100
AcDbSpline
 70
8
 71
3
 72
8
 73
4
 74
0
 40
0
 40
0
 40
0
 40
0
 40
1
 40
1
 40
1
 40
1
 10
0.210272
 20
2.418178
 30
0.0
 10
0.211295
 20
2.419303
 30
0.0
 10
0.212405
 20
2.420327
 30
0.0
 10
0.213601
 20
2.421247
 30
0.0
  0
SPLINE
  5
2fc
100
AcDbEntity
  8
Layer_1
 62
7
100
AcDbSpline
 70
8
 71
3
 72
8
 73
4
 74
0
 40
0
 40
0
 40
0
 40
0
 40
1
 40
1
 40
1
 40
1
 10
0.213601
 20
2.421247
 30
0.0
 10
0.217207
 20
2.424028
 30
0.0
 10
0.221238
 20
2.425828
 30
0.0
 10
0.225693
 20
2.426649
 30
0.0
  0
SPLINE
  5
2fd
100
AcDbEntity
  8
Layer_1
 62
7
100
AcDbSpline
 70
8
 71
3
 72
8
 73
4
 74
0
 40
0
 40
0
 40
0
 40
0
 40
1
 40
1
 40
1
 40
1
 10
0.225693
 20
2.426649
 30
0.0
 10
0.229169
 20
2.427195
 30
0.0
 10
0.232584
 20
2.427192
 30
0.0
 10
0.235939
 20
2.426638
 30
0.0
  0
SPLINE
  5
2fe
100
AcDbEntity
  8
Layer_1
 62
7
100
AcDbSpline
 70
8
 71
3
 72
8
 73
4
 74
0
 40
0
 40
0
 40
0
 40
0
 40
1
 40
1
 40
1
 40
1
 10
0.235939
 20
2.426638
 30
0.0
 10
0.239306
 20
2.426084
 30
0.0
 10
0.242464
 20
2.424998
 30
0.0
 10
0.245411
 20
2.423379
 30
0.0
  0
SPLINE
  5
2ff
100
AcDbEntity
  8
Layer_1
 62
7
100
AcDbSpline
 70
8
 71
3
 72
8
 73
4
 74
0
 40
0
 40
0
 40
0
 40
0
 40
1
 40
1
 40
1
 40
1
 10
0.245411
 20
2.423379
 30
0.0
 10
0.249831
 20
2.420950
 30
0.0
 10
0.253610
 20
2.417430
 30
0.0
 10
0.256747
 20
2.412818
 30
0.0
  0
SPLINE
  5
300
100
AcDbEntity
  8
Layer_1
 62
7
100
AcDbSpline
 70
8
 71
3
 72
8
 73
4
 74
0
 40
0
 40
0
 40
0
 40
0
 40
1
 40
1
 40
1
 40
1
 10
0.256747
 20
2.412818
 30
0.0
 10
0.257799
 20
2.411281
 30
0.0
 10
0.258747
 20
2.409621
 30
0.0
 10
0.259592
 20
2.407840
 30
0.0
  0
SPLINE
  5
301
100
AcDbEntity
  8
Layer_1
 62
7
100
AcDbSpline
 70
8
 71
3
 72
8
 73
4
 74
0
 40
0
 40
0
 40
0
 40
0
 40
1
 40
1
 40
1
 40
1
 10
0.259592
 20
2.407840
 30
0.0
 10
0.262970
 20
2.400747
 30
0.0
 10
0.264660
 20
2.392226
 30
0.0
 10
0.264660
 20
2.382276
 30
0.0
  0
SPLINE
  5
302
100
AcDbEntity
  8
Layer_1
 62
7
100
AcDbSpline
 70
8
 71
3
 72
8
 73
4
 74
0
 40
0
 40
0
 40
0
 40
0
 40
1
 40
1
 40
1
 40
1
 10
0.264660
 20
2.382276
 30
0.0
 10
0.264660
 20
2.371724
 30
0.0
 10
0.262855
 20
2.362803
 30
0.0
 10
0.259246
 20
2.355513
 30
0.0
  0
SPLINE
  5
303
100
AcDbEntity
  8
Layer_1
 62
7
100
AcDbSpline
 70
8
 71
3
 72
8
 73
4
 74
0
 40
0
 40
0
 40
0
 40
0
 40
1
 40
1
 40
1
 40
1
 10
0.259246
 20
2.355513
 30
0.0
 10
0.258352
 20
2.353698
 30
0.0
 10
0.257349
 20
2.352013
 30
0.0
 10
0.256239
 20
2.350458
 30
0.0
  0
SPLINE
  5
304
100
AcDbEntity
  8
Layer_1
 62
7
100
AcDbSpline
 70
8
 71
3
 72
8
 73
4
 74
0
 40
0
 40
0
 40
0
 40
0
 40
1
 40
1
 40
1
 40
1
 10
0.256239
 20
2.350458
 30
0.0
 10
0.252928
 20
2.345810
 30
0.0
 10
0.248937
 20
2.342272
 30
0.0
 10
0.244266
 20
2.339844
 30
0.0
  0
SPLINE
  5
305
100
AcDbEntity
  8
Layer_1
 62
7
100
AcDbSpline
 70
8
 71
3
 72
8
 73
4
 74
0
 40
0
 40
0
 40
0
 40
0
 40
1
 40
1
 40
1
 40
1
 10
0.244266
 20
2.339844
 30
0.0
 10
0.241167
 20
2.338240
 30
0.0
 10
0.237933
 20
2.337166
 30
0.0
 10
0.234562
 20
2.336620
 30
0.0
  0
SPLINE
  5
306
100
AcDbEntity
  8
Layer_1
 62
7
100
AcDbSpline
 70
8
 71
3
 72
8
 73
4
 74
0
 40
0
 40
0
 40
0
 40
0
 40
1
 40
1
 40
1
 40
1
 10
0.234562
 20
2.336620
 30
0.0
 10
0.231217
 20
2.336074
 30
0.0
 10
0.227913
 20
2.336049
 30
0.0
 10
0.224650
 20
2.336545
 30
0.0
  0
SPLINE
  5
307
100
AcDbEntity
  8
Layer_1
 62
7
100
AcDbSpline
 70
8
 71
3
 72
8
 73
4
 74
0
 40
0
 40
0
 40
0
 40
0
 40
1
 40
1
 40
1
 40
1
 10
0.224650
 20
2.336545
 30
0.0
 10
0.220539
 20
2.337290
 30
0.0
 10
0.216788
 20
2.338930
 30
0.0
 10
0.213396
 20
2.341468
 30
0.0
  0
SPLINE
  5
308
100
AcDbEntity
  8
Layer_1
 62
7
100
AcDbSpline
 70
8
 71
3
 72
8
 73
4
 74
0
 40
0
 40
0
 40
0
 40
0
 40
1
 40
1
 40
1
 40
1
 10
0.213396
 20
2.341468
 30
0.0
 10
0.212265
 20
2.342314
 30
0.0
 10
0.211205
 20
2.343265
 30
0.0
 10
0.210215
 20
2.344321
 30
0.0
  0
SPLINE
  5
309
100
AcDbEntity
  8
Layer_1
 62
7
100
AcDbSpline
 70
8
 71
3
 72
8
 73
4
 74
0
 40
0
 40
0
 40
0
 40
0
 40
1
 40
1
 40
1
 40
1
 10
0.210215
 20
2.344321
 30
0.0
 10
0.206287
 20
2.348547
 30
0.0
 10
0.203041
 20
2.355130
 30
0.0
 10
0.201585
 20
2.362156
 30
0.0
  0
LINE
  5
30a
100
AcDbEntity
  8
Layer_1
 62
7
100
AcDbLine
 10
0.592650
 20
2.336237
 30
0.0
 11
0.591890
 21
2.470465
 31
0.0
  0
SPLINE
  5
30b
100
AcDbEntity
  8
Layer_1
 62
7
100
AcDbSpline
 70
8
 71
3
 72
8
 73
4
 74
0
 40
0
 40
0
 40
0
 40
0
 40
1
 40
1
 40
1
 40
1
 10
0.592475
 20
2.399479
 30
0.0
 10
0.590640
 20
2.407232
 30
0.0
 10
0.587675
 20
2.413345
 30
0.0
 10
0.583583
 20
2.417816
 30
0.0
  0
SPLINE
  5
30c
100
AcDbEntity
  8
Layer_1
 62
7
100
AcDbSpline
 70
8
 71
3
 72
8
 73
4
 74
0
 40
0
 40
0
 40
0
 40
0
 40
1
 40
1
 40
1
 40
1
 10
0.583583
 20
2.417816
 30
0.0
 10
0.582560
 20
2.418942
 30
0.0
 10
0.581450
 20
2.419965
 30
0.0
 10
0.580254
 20
2.420885
 30
0.0
  0
SPLINE
  5
30d
100
AcDbEntity
  8
Layer_1
 62
7
100
AcDbSpline
 70
8
 71
3
 72
8
 73
4
 74
0
 40
0
 40
0
 40
0
 40
0
 40
1
 40
1
 40
1
 40
1
 10
0.580254
 20
2.420885
 30
0.0
 10
0.576647
 20
2.423666
 30
0.0
 10
0.572617
 20
2.425467
 30
0.0
 10
0.568162
 20
2.426287
 30
0.0
  0
SPLINE
  5
30e
100
AcDbEntity
  8
Layer_1
 62
7
100
AcDbSpline
 70
8
 71
3
 72
8
 73
4
 74
0
 40
0
 40
0
 40
0
 40
0
 40
1
 40
1
 40
1
 40
1
 10
0.568162
 20
2.426287
 30
0.0
 10
0.564686
 20
2.426834
 30
0.0
 10
0.561270
 20
2.426830
 30
0.0
 10
0.557916
 20
2.426276
 30
0.0
  0
SPLINE
  5
30f
100
AcDbEntity
  8
Layer_1
 62
7
100
AcDbSpline
 70
8
 71
3
 72
8
 73
4
 74
0
 40
0
 40
0
 40
0
 40
0
 40
1
 40
1
 40
1
 40
1
 10
0.557916
 20
2.426276
 30
0.0
 10
0.554548
 20
2.425723
 30
0.0
 10
0.551391
 20
2.424636
 30
0.0
 10
0.548444
 20
2.423017
 30
0.0
  0
SPLINE
  5
310
100
AcDbEntity
  8
Layer_1
 62
7
100
AcDbSpline
 70
8
 71
3
 72
8
 73
4
 74
0
 40
0
 40
0
 40
0
 40
0
 40
1
 40
1
 40
1
 40
1
 10
0.548444
 20
2.423017
 30
0.0
 10
0.544023
 20
2.420588
 30
0.0
 10
0.540245
 20
2.417068
 30
0.0
 10
0.537108
 20
2.412456
 30
0.0
  0
SPLINE
  5
311
100
AcDbEntity
  8
Layer_1
 62
7
100
AcDbSpline
 70
8
 71
3
 72
8
 73
4
 74
0
 40
0
 40
0
 40
0
 40
0
 40
1
 40
1
 40
1
 40
1
 10
0.537108
 20
2.412456
 30
0.0
 10
0.536056
 20
2.410919
 30
0.0
 10
0.535108
 20
2.409260
 30
0.0
 10
0.534263
 20
2.407478
 30
0.0
  0
SPLINE
  5
312
100
AcDbEntity
  8
Layer_1
 62
7
100
AcDbSpline
 70
8
 71
3
 72
8
 73
4
 74
0
 40
0
 40
0
 40
0
 40
0
 40
1
 40
1
 40
1
 40
1
 10
0.534263
 20
2.407478
 30
0.0
 10
0.530884
 20
2.400386
 30
0.0
 10
0.529195
 20
2.391864
 30
0.0
 10
0.529195
 20
2.381914
 30
0.0
  0
SPLINE
  5
313
100
AcDbEntity
  8
Layer_1
 62
7
100
AcDbSpline
 70
8
 71
3
 72
8
 73
4
 74
0
 40
0
 40
0
 40
0
 40
0
 40
1
 40
1
 40
1
 40
1
 10
0.529195
 20
2.381914
 30
0.0
 10
0.529195
 20
2.371363
 30
0.0
 10
0.531000
 20
2.362442
 30
0.0
 10
0.534609
 20
2.355151
 30
0.0
  0
SPLINE
  5
314
100
AcDbEntity
  8
Layer_1
 62
7
100
AcDbSpline
 70
8
 71
3
 72
8
 73
4
 74
0
 40
0
 40
0
 40
0
 40
0
 40
1
 40
1
 40
1
 40
1
 10
0.534609
 20
2.355151
 30
0.0
 10
0.535503
 20
2.353337
 30
0.0
 10
0.536505
 20
2.351652
 30
0.0
 10
0.537616
 20
2.350096
 30
0.0
  0
SPLINE
  5
315
100
AcDbEntity
  8
Layer_1
 62
7
100
AcDbSpline
 70
8
 71
3
 72
8
 73
4
 74
0
 40
0
 40
0
 40
0
 40
0
 40
1
 40
1
 40
1
 40
1
 10
0.537616
 20
2.350096
 30
0.0
 10
0.540927
 20
2.345448
 30
0.0
 10
0.544918
 20
2.341910
 30
0.0
 10
0.549589
 20
2.339482
 30
0.0
  0
SPLINE
  5
316
100
AcDbEntity
  8
Layer_1
 62
7
100
AcDbSpline
 70
8
 71
3
 72
8
 73
4
 74
0
 40
0
 40
0
 40
0
 40
0
 40
1
 40
1
 40
1
 40
1
 10
0.549589
 20
2.339482
 30
0.0
 10
0.552688
 20
2.337879
 30
0.0
 10
0.555922
 20
2.336804
 30
0.0
 10
0.559292
 20
2.336258
 30
0.0
  0
SPLINE
  5
317
100
AcDbEntity
  8
Layer_1
 62
7
100
AcDbSpline
 70
8
 71
3
 72
8
 73
4
 74
0
 40
0
 40
0
 40
0
 40
0
 40
1
 40
1
 40
1
 40
1
 10
0.559292
 20
2.336258
 30
0.0
 10
0.562638
 20
2.335712
 30
0.0
 10
0.565942
 20
2.335687
 30
0.0
 10
0.569204
 20
2.336183
 30
0.0
  0
SPLINE
  5
318
100
AcDbEntity
  8
Layer_1
 62
7
100
AcDbSpline
 70
8
 71
3
 72
8
 73
4
 74
0
 40
0
 40
0
 40
0
 40
0
 40
1
 40
1
 40
1
 40
1
 10
0.569204
 20
2.336183
 30
0.0
 10
0.573316
 20
2.336928
 30
0.0
 10
0.577067
 20
2.338568
 30
0.0
 10
0.580459
 20
2.341106
 30
0.0
  0
SPLINE
  5
319
100
AcDbEntity
  8
Layer_1
 62
7
100
AcDbSpline
 70
8
 71
3
 72
8
 73
4
 74
0
 40
0
 40
0
 40
0
 40
0
 40
1
 40
1
 40
1
 40
1
 10
0.580459
 20
2.341106
 30
0.0
 10
0.581590
 20
2.341952
 30
0.0
 10
0.582650
 20
2.342903
 30
0.0
 10
0.583640
 20
2.343959
 30
0.0
  0
SPLINE
  5
31a
100
AcDbEntity
  8
Layer_1
 62
7
100
AcDbSpline
 70
8
 71
3
 72
8
 73
4
 74
0
 40
0
 40
0
 40
0
 40
0
 40
1
 40
1
 40
1
 40
1
 10
0.583640
 20
2.343959
 30
0.0
 10
0.587568
 20
2.348185
 30
0.0
 10
0.590814
 20
2.354768
 30
0.0
 10
0.592270
 20
2.361794
 30
0.0
  0
SPLINE
  5
31b
100
AcDbEntity
  8
Layer_1
 62
7
100
AcDbSpline
 70
8
 71
3
 72
8
 73
4
 74
0
 40
0
 40
0
 40
0
 40
0
 40
1
 40
1
 40
1
 40
1
 10
0.490734
 20
2.365509
 30
0.0
 10
0.488049
 20
2.355763
 30
0.0
 10
0.483722
 20
2.348393
 30
0.0
 10
0.477752
 20
2.343397
 30
0.0
  0
SPLINE
  5
31c
100
AcDbEntity
  8
Layer_1
 62
7
100
AcDbSpline
 70
8
 71
3
 72
8
 73
4
 74
0
 40
0
 40
0
 40
0
 40
0
 40
1
 40
1
 40
1
 40
1
 10
0.477752
 20
2.343397
 30
0.0
 10
0.471783
 20
2.338401
 30
0.0
 10
0.464313
 20
2.335903
 30
0.0
 10
0.455343
 20
2.335903
 30
0.0
  0
SPLINE
  5
31d
100
AcDbEntity
  8
Layer_1
 62
7
100
AcDbSpline
 70
8
 71
3
 72
8
 73
4
 74
0
 40
0
 40
0
 40
0
 40
0
 40
1
 40
1
 40
1
 40
1
 10
0.455343
 20
2.335903
 30
0.0
 10
0.443782
 20
2.335903
 30
0.0
 10
0.434401
 20
2.340021
 30
0.0
 10
0.427295
 20
2.348358
 30
0.0
  0
SPLINE
  5
31e
100
AcDbEntity
  8
Layer_1
 62
7
100
AcDbSpline
 70
8
 71
3
 72
8
 73
4
 74
0
 40
0
 40
0
 40
0
 40
0
 40
1
 40
1
 40
1
 40
1
 10
0.427295
 20
2.348358
 30
0.0
 10
0.420524
 20
2.356300
 30
0.0
 10
0.416820
 20
2.367549
 30
0.0
 10
0.416195
 20
2.381815
 30
0.0
  0
SPLINE
  5
31f
100
AcDbEntity
  8
Layer_1
 62
7
100
AcDbSpline
 70
8
 71
3
 72
8
 73
4
 74
0
 40
0
 40
0
 40
0
 40
0
 40
1
 40
1
 40
1
 40
1
 10
0.416195
 20
2.381815
 30
0.0
 10
0.416479
 20
2.396134
 30
0.0
 10
0.420127
 20
2.407357
 30
0.0
 10
0.427139
 20
2.415484
 30
0.0
  0
SPLINE
  5
320
100
AcDbEntity
  8
Layer_1
 62
7
100
AcDbSpline
 70
8
 71
3
 72
8
 73
4
 74
0
 40
0
 40
0
 40
0
 40
0
 40
1
 40
1
 40
1
 40
1
 10
0.427139
 20
2.415484
 30
0.0
 10
0.434183
 20
2.423611
 30
0.0
 10
0.443137
 20
2.427675
 30
0.0
 10
0.454003
 20
2.427675
 30
0.0
  0
SPLINE
  5
321
100
AcDbEntity
  8
Layer_1
 62
7
100
AcDbSpline
 70
8
 71
3
 72
8
 73
4
 74
0
 40
0
 40
0
 40
0
 40
0
 40
1
 40
1
 40
1
 40
1
 10
0.454003
 20
2.427675
 30
0.0
 10
0.465057
 20
2.427675
 30
0.0
 10
0.474075
 20
2.423295
 30
0.0
 10
0.481055
 20
2.414534
 30
0.0
  0
SPLINE
  5
322
100
AcDbEntity
  8
Layer_1
 62
7
100
AcDbSpline
 70
8
 71
3
 72
8
 73
4
 74
0
 40
0
 40
0
 40
0
 40
0
 40
1
 40
1
 40
1
 40
1
 10
0.481055
 20
2.414534
 30
0.0
 10
0.487088
 20
2.407076
 30
0.0
 10
0.490294
 20
2.396363
 30
0.0
 10
0.490673
 20
2.382396
 30
0.0
  0
LINE
  5
323
100
AcDbEntity
  8
Layer_1
 62
7
100
AcDbLine
 10
0.490673
 20
2.382396
 30
0.0
 11
0.416262
 21
2.382486
 31
0.0
  0
SPLINE
  5
324
100
AcDbEntity
  8
Layer_1
 62
7
100
AcDbSpline
 70
8
 71
3
 72
8
 73
4
 74
0
 40
0
 40
0
 40
0
 40
0
 40
1
 40
1
 40
1
 40
1
 10
0.184765
 20
1.744476
 30
0.0
 10
0.175082
 20
1.747161
 30
0.0
 10
0.167760
 20
1.751489
 30
0.0
 10
0.162796
 20
1.757459
 30
0.0
  0
SPLINE
  5
325
100
AcDbEntity
  8
Layer_1
 62
7
100
AcDbSpline
 70
8
 71
3
 72
8
 73
4
 74
0
 40
0
 40
0
 40
0
 40
0
 40
1
 40
1
 40
1
 40
1
 10
0.162796
 20
1.757459
 30
0.0
 10
0.157833
 20
1.763430
 30
0.0
 10
0.155351
 20
1.770900
 30
0.0
 10
0.155351
 20
1.779872
 30
0.0
  0
SPLINE
  5
326
100
AcDbEntity
  8
Layer_1
 62
7
100
AcDbSpline
 70
8
 71
3
 72
8
 73
4
 74
0
 40
0
 40
0
 40
0
 40
0
 40
1
 40
1
 40
1
 40
1
 10
0.155351
 20
1.779872
 30
0.0
 10
0.155351
 20
1.791433
 30
0.0
 10
0.159442
 20
1.800816
 30
0.0
 10
0.167725
 20
1.807923
 30
0.0
  0
SPLINE
  5
327
100
AcDbEntity
  8
Layer_1
 62
7
100
AcDbSpline
 70
8
 71
3
 72
8
 73
4
 74
0
 40
0
 40
0
 40
0
 40
0
 40
1
 40
1
 40
1
 40
1
 10
0.167725
 20
1.807923
 30
0.0
 10
0.175616
 20
1.814695
 30
0.0
 10
0.186792
 20
1.818399
 30
0.0
 10
0.200966
 20
1.819024
 30
0.0
  0
SPLINE
  5
328
100
AcDbEntity
  8
Layer_1
 62
7
100
AcDbSpline
 70
8
 71
3
 72
8
 73
4
 74
0
 40
0
 40
0
 40
0
 40
0
 40
1
 40
1
 40
1
 40
1
 10
0.200966
 20
1.819024
 30
0.0
 10
0.215192
 20
1.818740
 30
0.0
 10
0.226342
 20
1.815091
 30
0.0
 10
0.234416
 20
1.808078
 30
0.0
  0
SPLINE
  5
329
100
AcDbEntity
  8
Layer_1
 62
7
100
AcDbSpline
 70
8
 71
3
 72
8
 73
4
 74
0
 40
0
 40
0
 40
0
 40
0
 40
1
 40
1
 40
1
 40
1
 10
0.234416
 20
1.808078
 30
0.0
 10
0.242491
 20
1.801034
 30
0.0
 10
0.246528
 20
1.792078
 30
0.0
 10
0.246528
 20
1.781212
 30
0.0
  0
SPLINE
  5
32a
100
AcDbEntity
  8
Layer_1
 62
7
100
AcDbSpline
 70
8
 71
3
 72
8
 73
4
 74
0
 40
0
 40
0
 40
0
 40
0
 40
1
 40
1
 40
1
 40
1
 10
0.246528
 20
1.781212
 30
0.0
 10
0.246528
 20
1.770156
 30
0.0
 10
0.242176
 20
1.761137
 30
0.0
 10
0.233473
 20
1.754156
 30
0.0
  0
SPLINE
  5
32b
100
AcDbEntity
  8
Layer_1
 62
7
100
AcDbSpline
 70
8
 71
3
 72
8
 73
4
 74
0
 40
0
 40
0
 40
0
 40
0
 40
1
 40
1
 40
1
 40
1
 10
0.233473
 20
1.754156
 30
0.0
 10
0.226063
 20
1.748122
 30
0.0
 10
0.215419
 20
1.744916
 30
0.0
 10
0.201542
 20
1.744537
 30
0.0
  0
LINE
  5
32c
100
AcDbEntity
  8
Layer_1
 62
7
100
AcDbLine
 10
0.201542
 20
1.744537
 30
0.0
 11
0.201633
 21
1.818957
 31
0.0
  0
LINE
  5
32d
100
AcDbEntity
  8
Layer_1
 62
7
100
AcDbLine
 10
0.246121
 20
2.164539
 30
0.0
 11
0.111893
 21
2.163780
 31
0.0
  0
SPLINE
  5
32e
100
AcDbEntity
  8
Layer_1
 62
7
100
AcDbSpline
 70
8
 71
3
 72
8
 73
4
 74
0
 40
0
 40
0
 40
0
 40
0
 40
1
 40
1
 40
1
 40
1
 10
0.219313
 20
2.164365
 30
0.0
 10
0.227067
 20
2.162529
 30
0.0
 10
0.233179
 20
2.159565
 30
0.0
 10
0.237650
 20
2.155472
 30
0.0
  0
SPLINE
  5
32f
100
AcDbEntity
  8
Layer_1
 62
7
100
AcDbSpline
 70
8
 71
3
 72
8
 73
4
 74
0
 40
0
 40
0
 40
0
 40
0
 40
1
 40
1
 40
1
 40
1
 10
0.237650
 20
2.155472
 30
0.0
 10
0.238776
 20
2.154449
 30
0.0
 10
0.239799
 20
2.153340
 30
0.0
 10
0.240720
 20
2.152143
 30
0.0
  0
SPLINE
  5
330
100
AcDbEntity
  8
Layer_1
 62
7
100
AcDbSpline
 70
8
 71
3
 72
8
 73
4
 74
0
 40
0
 40
0
 40
0
 40
0
 40
1
 40
1
 40
1
 40
1
 10
0.240720
 20
2.152143
 30
0.0
 10
0.243500
 20
2.148537
 30
0.0
 10
0.245301
 20
2.144506
 30
0.0
 10
0.246121
 20
2.140051
 30
0.0
  0
SPLINE
  5
331
100
AcDbEntity
  8
Layer_1
 62
7
100
AcDbSpline
 70
8
 71
3
 72
8
 73
4
 74
0
 40
0
 40
0
 40
0
 40
0
 40
1
 40
1
 40
1
 40
1
 10
0.246121
 20
2.140051
 30
0.0
 10
0.246668
 20
2.136575
 30
0.0
 10
0.246664
 20
2.133160
 30
0.0
 10
0.246111
 20
2.129805
 30
0.0
  0
SPLINE
  5
332
100
AcDbEntity
  8
Layer_1
 62
7
100
AcDbSpline
 70
8
 71
3
 72
8
 73
4
 74
0
 40
0
 40
0
 40
0
 40
0
 40
1
 40
1
 40
1
 40
1
 10
0.246111
 20
2.129805
 30
0.0
 10
0.245557
 20
2.126438
 30
0.0
 10
0.244470
 20
2.123281
 30
0.0
 10
0.242851
 20
2.120333
 30
0.0
  0
SPLINE
  5
333
100
AcDbEntity
  8
Layer_1
 62
7
100
AcDbSpline
 70
8
 71
3
 72
8
 73
4
 74
0
 40
0
 40
0
 40
0
 40
0
 40
1
 40
1
 40
1
 40
1
 10
0.242851
 20
2.120333
 30
0.0
 10
0.240422
 20
2.115913
 30
0.0
 10
0.236902
 20
2.112134
 30
0.0
 10
0.232290
 20
2.108998
 30
0.0
  0
SPLINE
  5
334
100
AcDbEntity
  8
Layer_1
 62
7
100
AcDbSpline
 70
8
 71
3
 72
8
 73
4
 74
0
 40
0
 40
0
 40
0
 40
0
 40
1
 40
1
 40
1
 40
1
 10
0.232290
 20
2.108998
 30
0.0
 10
0.230753
 20
2.107946
 30
0.0
 10
0.229094
 20
2.106997
 30
0.0
 10
0.227313
 20
2.106153
 30
0.0
  0
SPLINE
  5
335
100
AcDbEntity
  8
Layer_1
 62
7
100
AcDbSpline
 70
8
 71
3
 72
8
 73
4
 74
0
 40
0
 40
0
 40
0
 40
0
 40
1
 40
1
 40
1
 40
1
 10
0.227313
 20
2.106153
 30
0.0
 10
0.220220
 20
2.102774
 30
0.0
 10
0.211698
 20
2.101085
 30
0.0
 10
0.201748
 20
2.101085
 30
0.0
  0
SPLINE
  5
336
100
AcDbEntity
  8
Layer_1
 62
7
100
AcDbSpline
 70
8
 71
3
 72
8
 73
4
 74
0
 40
0
 40
0
 40
0
 40
0
 40
1
 40
1
 40
1
 40
1
 10
0.201748
 20
2.101085
 30
0.0
 10
0.191197
 20
2.101085
 30
0.0
 10
0.182276
 20
2.102889
 30
0.0
 10
0.174985
 20
2.106498
 30
0.0
  0
SPLINE
  5
337
100
AcDbEntity
  8
Layer_1
 62
7
100
AcDbSpline
 70
8
 71
3
 72
8
 73
4
 74
0
 40
0
 40
0
 40
0
 40
0
 40
1
 40
1
 40
1
 40
1
 10
0.174985
 20
2.106498
 30
0.0
 10
0.173171
 20
2.107393
 30
0.0
 10
0.171486
 20
2.108395
 30
0.0
 10
0.169930
 20
2.109505
 30
0.0
  0
SPLINE
  5
338
100
AcDbEntity
  8
Layer_1
 62
7
100
AcDbSpline
 70
8
 71
3
 72
8
 73
4
 74
0
 40
0
 40
0
 40
0
 40
0
 40
1
 40
1
 40
1
 40
1
 10
0.169930
 20
2.109505
 30
0.0
 10
0.165283
 20
2.112816
 30
0.0
 10
0.161745
 20
2.116807
 30
0.0
 10
0.159316
 20
2.121479
 30
0.0
  0
SPLINE
  5
339
100
AcDbEntity
  8
Layer_1
 62
7
100
AcDbSpline
 70
8
 71
3
 72
8
 73
4
 74
0
 40
0
 40
0
 40
0
 40
0
 40
1
 40
1
 40
1
 40
1
 10
0.159316
 20
2.121479
 30
0.0
 10
0.157713
 20
2.124577
 30
0.0
 10
0.156638
 20
2.127811
 30
0.0
 10
0.156092
 20
2.131182
 30
0.0
  0
SPLINE
  5
33a
100
AcDbEntity
  8
Layer_1
 62
7
100
AcDbSpline
 70
8
 71
3
 72
8
 73
4
 74
0
 40
0
 40
0
 40
0
 40
0
 40
1
 40
1
 40
1
 40
1
 10
0.156092
 20
2.131182
 30
0.0
 10
0.155546
 20
2.134527
 30
0.0
 10
0.155521
 20
2.137831
 30
0.0
 10
0.156017
 20
2.141094
 30
0.0
  0
SPLINE
  5
33b
100
AcDbEntity
  8
Layer_1
 62
7
100
AcDbSpline
 70
8
 71
3
 72
8
 73
4
 74
0
 40
0
 40
0
 40
0
 40
0
 40
1
 40
1
 40
1
 40
1
 10
0.156017
 20
2.141094
 30
0.0
 10
0.156761
 20
2.145205
 30
0.0
 10
0.158402
 20
2.148956
 30
0.0
 10
0.160940
 20
2.152348
 30
0.0
  0
SPLINE
  5
33c
100
AcDbEntity
  8
Layer_1
 62
7
100
AcDbSpline
 70
8
 71
3
 72
8
 73
4
 74
0
 40
0
 40
0
 40
0
 40
0
 40
1
 40
1
 40
1
 40
1
 10
0.160940
 20
2.152348
 30
0.0
 10
0.161785
 20
2.153479
 30
0.0
 10
0.162736
 20
2.154539
 30
0.0
 10
0.163793
 20
2.155529
 30
0.0
  0
SPLINE
  5
33d
100
AcDbEntity
  8
Layer_1
 62
7
100
AcDbSpline
 70
8
 71
3
 72
8
 73
4
 74
0
 40
0
 40
0
 40
0
 40
0
 40
1
 40
1
 40
1
 40
1
 10
0.163793
 20
2.155529
 30
0.0
 10
0.168018
 20
2.159457
 30
0.0
 10
0.174602
 20
2.162703
 30
0.0
 10
0.181628
 20
2.164159
 30
0.0
  0
LINE
  5
33e
100
AcDbEntity
  8
Layer_1
 62
7
100
AcDbLine
 10
0.246528
 20
1.961013
 30
0.0
 11
0.153240
 21
1.932376
 31
0.0
  0
LINE
  5
33f
100
AcDbEntity
  8
Layer_1
 62
7
100
AcDbLine
 10
0.153240
 20
1.932376
 30
0.0
 11
0.246528
 21
1.904662
 31
0.0
  0
LINE
  5
340
100
AcDbEntity
  8
Layer_1
 62
7
100
AcDbLine
 10
0.246528
 20
1.904662
 30
0.0
 11
0.153240
 21
1.878573
 31
0.0
  0
LINE
  5
341
100
AcDbEntity
  8
Layer_1
 62
7
100
AcDbLine
 10
0.153240
 20
1.878573
 30
0.0
 11
0.246528
 21
1.848883
 31
0.0
  0
SPLINE
  5
342
100
AcDbEntity
  8
Layer_1
 62
7
100
AcDbSpline
 70
8
 71
3
 72
8
 73
4
 74
0
 40
0
 40
0
 40
0
 40
0
 40
1
 40
1
 40
1
 40
1
 10
0.232117
 20
1.667881
 30
0.0
 10
0.245174
 20
1.668821
 30
0.0
 10
0.249407
 20
1.686307
 30
0.0
 10
0.243562
 20
1.698690
 30
0.0
  0
SPLINE
  5
343
100
AcDbEntity
  8
Layer_1
 62
7
100
AcDbSpline
 70
8
 71
3
 72
8
 73
4
 74
0
 40
0
 40
0
 40
0
 40
0
 40
1
 40
1
 40
1
 40
1
 10
0.243562
 20
1.698690
 30
0.0
 10
0.237718
 20
1.711072
 30
0.0
 10
0.210614
 20
1.714264
 30
0.0
 10
0.196113
 20
1.714206
 30
0.0
  0
LINE
  5
344
100
AcDbEntity
  8
Layer_1
 62
7
100
AcDbLine
 10
0.246528
 20
1.714617
 30
0.0
 11
0.149469
 21
1.713795
 31
0.0
  0
ENDSEC
  0
SECTION
  2
OBJECTS
  0
DICTIONARY
  5
C
330
0
100
AcDbDictionary
  3
ACAD_GROUP
350
D
  3
ACAD_MLINESTYLE
350
17
  0
DICTIONARY
  5
D
330
C
100
AcDbDictionary
  0
DICTIONARY
  5
1A
330
C
100
AcDbDictionary
  0
DICTIONARY
  5
17
330
C
100
AcDbDictionary
  3
STANDARD
350
18
  0
DICTIONARY
  5
19
330
C
100
AcDbDictionary
  0
ENDSEC
  0
EOF
